<?xml version="1.0" encoding="utf-8"?><!DOCTYPE svg PUBLIC "-//W3C//DTD SVG 1.1//EN" "http://www.w3.org/Graphics/SVG/1.1/DTD/svg11.dtd"><svg version="1.1" id="Contours" xmlns="http://www.w3.org/2000/svg" xmlns:xlink="http://www.w3.org/1999/xlink" x="0px" y="0px" width="1200.684692px" height="1200.684692px" viewBox="-0.000008 0.000002 1200.684692 1497.131958" enable-background="new 0 0 1200.684692 1200.684692" xml:space="preserve" stroke="black" fill="none" stroke-linecap='round' stroke-linejoin='round'><path class="selected"  fill="#000000" opacity="1.000000" stroke="none" 
 	d="
M341.213662 841.662260 C332.529458 843.679716 324.104714 845.493803 315.657571 847.197294 C310.716470 848.193632 305.769509 849.481962 300.771828 849.799345 C293.743264 850.245634 286.660683 850.069853 279.609536 849.868193 C272.480813 849.664213 267.802102 845.836210 264.379983 839.624540 C259.925088 831.537870 257.842568 822.915068 256.356057 813.911039 C254.700051 803.881010 252.111184 794.008451 250.121926 784.028715 C248.733865 777.065214 247.527322 770.057524 246.516946 763.029692 C245.895791 758.709379 246.123940 754.254667 245.348061 749.973173 C244.835427 747.144438 243.910317 744.248320 239.313393 745.744780 C235.723428 746.913359 231.635110 746.496733 227.784524 746.929960 C220.561074 747.742338 219.179299 749.952787 220.412698 757.066069 C221.957803 765.976835 223.081033 774.959623 224.476601 783.897245 C226.087563 794.215239 227.932046 804.498442 229.421243 814.833159 C230.630105 823.221952 231.305154 831.687284 232.503762 840.077665 C234.003640 850.577299 235.882363 861.022612 237.435342 871.515165 C238.579507 879.246122 239.378945 887.027372 240.486184 894.764311 C241.720986 903.392363 243.236184 911.980986 244.433205 920.613920 C245.574685 928.846342 246.356484 937.128691 247.493691 945.361845 C248.642800 953.681303 250.110635 961.956327 251.297402 970.271147 C252.446572 978.322294 253.329140 986.411406 254.484719 994.461454 C256.062295 1005.451445 257.858071 1016.410185 259.425698 1027.401518 C260.552346 1035.300932 261.359109 1043.246000 262.490884 1051.144682 C263.703774 1059.609282 265.215432 1068.031034 266.438699 1076.494413 C267.556680 1084.229521 268.388833 1092.005644 269.481362 1099.744780 C271.079202 1111.063627 272.866677 1122.355864 274.440102 1133.678007 C275.561379 1141.746611 276.330544 1149.865019 277.496621 1157.926420 C279.015603 1168.427031 280.864114 1178.880034 282.390420 1189.379667 C283.265969 1195.402861 283.639748 1201.498564 284.498757 1207.524687 C285.682534 1215.829374 287.229043 1224.082426 288.401894 1232.388334 C289.563577 1240.615019 289.769631 1249.042875 291.680215 1257.076689 C293.208535 1263.502958 290.496804 1267.559843 286.475320 1271.149199 C284.554665 1272.863676 281.428262 1273.752348 278.755227 1273.995512 C272.007180 1274.609282 265.076760 1275.558622 258.468789 1274.619047 C253.309182 1273.885527 249.671487 1268.910551 248.647439 1263.859892 C246.968423 1255.578764 246.633523 1247.035063 245.419106 1238.647245 C244.014687 1228.947538 242.206948 1219.307035 240.697182 1209.621611 C239.521828 1202.081816 238.644326 1194.495146 237.438393 1186.960600 C235.540749 1175.104643 233.395303 1163.288237 231.516091 1151.429350 C230.345010 1144.039579 229.579934 1136.585722 228.436440 1129.190947 C226.963235 1119.663969 225.228249 1110.177519 223.729836 1100.654081 C222.544228 1093.118803 221.644875 1085.538237 220.440774 1078.006132 C218.545022 1066.147123 216.423440 1054.324003 214.546181 1042.462309 C213.377053 1035.074736 212.581094 1027.628691 211.438943 1020.236479 C209.966470 1010.706572 208.257424 1001.213408 206.759743 991.687040 C205.575478 984.154326 204.645425 976.581327 203.443154 969.051786 C201.549233 957.189726 199.471719 945.356962 197.569436 933.496122 C196.437661 926.439116 195.570596 919.339750 194.444985 912.281645 C192.852029 902.293974 191.053445 892.339018 189.489358 882.346952 C188.357461 875.115385 187.572976 867.829618 186.439187 860.598295 C184.528542 848.413237 182.372231 836.266386 180.492837 824.076689 C179.014077 814.485136 177.939980 804.830595 176.426980 795.244902 C174.580849 783.549467 172.434609 771.901884 170.484597 760.222319 C170.010720 757.384062 169.551736 754.503691 169.534219 751.639921 C169.517495 748.903959 168.617043 747.971830 165.816506 747.843901 C154.865334 747.343046 146.771096 737.356718 145.595681 727.838774 C145.310769 725.531401 146.358559 722.883818 147.352029 720.639921 C148.532143 717.974394 148.068032 716.017241 146.130532 714.058989 C139.753030 707.612822 137.600625 700.426542 141.879617 691.818022 C142.566933 690.435209 142.078469 688.111113 141.446877 686.489531 C138.245339 678.269682 138.005471 670.333525 143.525368 663.017118 C145.215249 660.777250 147.327493 658.340605 149.794961 657.318266 C153.960610 655.592436 153.720071 652.485868 153.418801 649.289335 C152.545510 640.025297 151.506264 630.775908 150.453774 621.529814 C148.824441 607.216520 147.024453 592.921782 145.504006 578.597197 C144.615945 570.230497 144.292886 561.804167 143.423806 553.435026 C142.250710 542.137785 140.573159 530.890348 139.528970 519.583036 C138.556618 509.054533 138.161172 498.473356 137.429726 487.921110 C137.323098 486.383268 136.759682 484.877104 136.407693 483.356291 C135.347085 484.454191 134.240762 485.511869 133.233743 486.657011 C128.619851 491.903959 124.219643 497.354216 119.379372 502.381804 C115.475014 506.437223 109.512795 504.950285 107.789956 499.646879 C106.968362 497.117949 106.544839 494.353178 106.520486 491.689848 C106.396951 478.191496 106.459451 464.691374 106.470498 451.191862 C106.471597 449.880034 106.138100 448.337858 106.696267 447.297880 C108.740884 443.488859 106.630044 440.894377 104.013711 439.089384 C93.553506 431.873198 82.885964 424.957853 72.313271 417.904020 C69.690865 416.154448 66.741341 414.665739 64.660439 412.398039 C62.539498 410.086760 59.512337 406.547758 60.039040 404.279326 C61.276192 398.951139 64.344918 394.445646 71.152627 393.809050 C85.326943 392.483671 99.470803 390.743193 113.560647 388.711943 C115.395913 388.447416 117.643288 385.734770 118.336404 383.693205 C123.897195 367.313566 129.302285 350.875151 134.341775 334.328825 C135.587319 330.239042 137.983254 328.558744 141.650735 327.942595 C145.828652 327.240690 147.859841 330.149015 149.434121 333.244841 C156.501870 347.143644 163.439309 361.108549 170.479714 375.021330 C172.391030 378.798430 173.995705 381.558439 179.866982 380.190214 C191.120095 377.567839 202.744607 376.510527 214.233559 374.939848 C220.383279 374.099150 222.438454 377.366240 221.627236 383.834318 C220.842873 390.087858 217.557900 394.291472 213.461648 398.531523 C207.687112 404.509184 202.625466 411.194853 196.673074 416.974211 C193.086037 420.456938 193.617837 423.850187 194.753335 427.681425 C199.547463 443.857206 204.489114 459.990080 209.148782 476.204130 C209.974648 479.077665 210.388955 482.348845 207.238503 484.678740 C203.677956 487.312040 200.056680 487.512968 196.343850 485.261564 C192.600747 482.991789 189.008950 480.468962 185.229592 478.264860 C183.960244 477.524565 182.318826 477.422331 180.847451 477.028471 C181.052834 478.170683 181.338174 479.305265 181.449075 480.456572 C181.820779 484.314604 182.146889 488.177397 182.460610 492.040739 C183.468911 504.458708 184.392312 516.884062 185.486123 529.294462 C186.375893 539.389555 187.493935 549.464323 188.456338 559.553251 C189.818337 573.831083 191.103371 588.116118 192.472878 602.393217 C193.424783 612.316557 194.364114 622.242949 195.501199 632.146025 C196.176553 638.028227 196.501626 643.530180 203.487283 646.909941 C209.270181 649.708036 213.682046 655.327177 218.736855 659.655058 C219.560220 660.360136 220.531960 660.917875 221.496255 661.428129 C228.088967 664.916655 227.646035 664.716581 230.690102 657.542021 C231.864114 654.775053 235.279885 651.842070 238.202431 651.118681 C254.743996 647.024931 271.373330 643.199858 288.110085 640.001860 C312.748513 635.293852 336.324563 627.165556 359.921487 618.988798 C374.795205 613.834745 390.095864 609.744413 404.582803 603.688383 C419.786599 597.332609 434.382607 589.449369 448.899880 581.596952 C451.320718 580.287504 452.309548 575.843901 453.400918 572.657072 C456.253823 564.325834 459.278664 556.000700 461.271035 547.448576 C462.351662 542.810026 461.835061 537.677397 461.374184 532.830900 C460.728860 526.045012 458.850442 519.342253 458.583230 512.561186 C457.892922 495.047270 457.591042 477.510283 457.572121 459.981962 C457.565224 453.592436 458.762063 447.197599 459.476540 440.812712 C459.914834 436.895536 456.968911 435.570097 454.290017 435.023527 C446.238992 433.381193 438.013039 432.576445 429.986367 430.839140 C415.962868 427.803801 402.011086 424.422148 388.076272 420.994658 C365.934792 415.548674 344.581399 407.744658 324.666604 396.716764 C313.697366 390.642607 303.721902 382.727507 293.535012 375.317045 C290.736855 373.281401 288.698708 370.147917 286.479897 367.383268 C284.069131 364.379484 285.387124 361.779020 288.031289 359.901091 C301.430947 350.383940 314.370705 340.116911 329.529702 333.368254 C346.483315 325.820707 363.707131 318.995573 381.885232 314.925261 C394.098244 312.190519 406.277261 309.233061 418.589822 307.039640 C426.190896 305.685453 434.007607 305.485014 441.739785 304.940825 C448.425149 304.470243 455.137368 303.857573 461.820107 304.022245 C468.389443 304.184233 474.931618 305.301786 481.495827 305.886625 C484.437295 306.148710 486.642190 305.779997 487.576089 301.945585 C490.957314 288.062101 494.447488 274.185698 498.540017 260.499113 C505.936929 235.761869 513.436440 211.042570 521.614602 186.556730 C525.750710 174.173124 530.979226 162.086699 536.574441 150.273588 C545.493081 131.443998 555.138833 112.959044 564.461709 94.320646 C576.789162 69.675413 591.153359 46.258696 607.767739 24.299284 C613.566689 16.634672 620.351968 9.648863 627.186806 2.856016 C632.907143 -2.829226 643.303506 0.572477 647.405556 7.793028 C654.131753 19.632628 657.917275 32.556486 660.470986 45.872160 C662.098061 54.355711 663.809243 62.823118 665.460244 71.302153 C667.142373 79.941771 668.913979 88.566191 670.436806 97.234068 C672.870034 111.082823 675.282143 124.938810 677.398721 138.838102 C678.439370 145.671415 678.681680 152.622221 679.490517 159.495756 C680.721230 169.955107 682.020547 180.409086 683.494057 190.836576 C685.024453 201.665007 686.548135 212.505034 688.524575 223.257353 C691.193642 237.778227 694.841347 252.039030 701.417153 265.403105 C705.227700 273.147123 708.619302 281.102201 712.606362 288.750151 C713.411294 290.294035 716.050698 291.770903 717.839639 291.765532 C728.035439 291.734770 738.248330 290.701994 748.420205 291.045866 C762.023843 291.505827 775.695596 292.191130 789.159463 294.063993 C816.262490 297.834257 842.922646 303.884794 868.791299 312.957426 C886.725625 319.247343 904.419595 326.179106 920.524819 336.510893 C925.964150 340.000273 926.478555 349.724943 921.214761 353.561796 C910.123452 361.646330 899.183755 370.049467 887.456094 377.117582 C876.787759 383.547270 865.415078 389.001799 853.892251 393.773466 C837.674599 400.489103 821.164468 406.572416 804.525063 412.170073 C792.921304 416.073820 780.913857 418.798552 769.036660 421.855253 C765.712075 422.710966 764.344277 424.149931 764.357461 427.789091 C764.383706 434.982817 762.998452 442.250761 763.639931 449.357756 C764.767861 461.852568 766.427895 474.360868 768.909097 486.652800 C770.987588 496.948576 773.689248 507.300627 777.679604 516.982939 C782.841958 529.508879 789.411294 541.471220 795.697549 553.507719 C797.562539 557.078825 801.612832 557.631315 805.198769 556.835722 C817.832681 554.032621 830.452798 551.129789 842.972695 547.860441 C861.093789 543.128630 878.832314 537.375273 895.244302 527.990324 C903.128213 523.481901 909.415932 517.764982 913.487832 509.609709 C915.423623 505.732939 917.468301 501.893705 919.728432 498.199430 C924.134438 490.997282 931.219521 488.839933 940.424599 491.318632 C945.703408 492.739958 951.070229 493.887053 956.451333 494.858793 C960.306557 495.554960 963.424722 490.466948 962.096230 486.037321 C960.001870 479.054533 954.947549 474.333220 949.590005 469.941923 C941.676797 463.455839 935.294228 456.475065 935.267007 445.156462 C935.252724 439.220182 941.726601 431.275785 947.797402 429.974577 C954.416177 428.555815 960.778725 432.999784 963.555581 440.089262 C964.130776 441.557890 965.880532 442.566374 967.089028 443.786894 C967.213906 442.281523 967.496865 440.769682 967.436440 439.271818 C967.165688 432.574308 966.005898 425.804228 966.643716 419.203093 C967.676675 408.513639 978.207681 394.305143 990.257119 395.087553 C993.598306 395.304533 996.751992 397.788115 1000.085000 398.968290 C1002.369424 399.777128 1005.044839 401.045744 1007.146889 400.519011 C1014.073647 398.783293 1021.735757 400.176237 1025.786538 407.465300 C1026.509927 408.767180 1030.062905 409.921354 1031.355141 409.265043 C1046.577431 401.532988 1055.669350 412.547148 1058.382607 424.598478 C1061.422402 438.100126 1058.507607 451.143950 1053.972817 463.890593 C1048.237344 480.011869 1042.406045 496.099211 1036.685708 512.225859 C1035.700967 515.001738 1036.954140 516.916960 1039.651894 517.909880 C1049.630532 521.582487 1059.732827 524.955717 1069.546914 529.024443 C1075.144082 531.344999 1080.746987 534.099089 1083.999551 539.877531 C1085.514077 542.567900 1088.133340 543.082060 1091.209878 542.988859 C1098.369790 542.771940 1100.457314 545.933744 1098.496377 552.800932 C1094.875161 565.481840 1091.900552 578.365080 1087.829873 590.895475 C1082.705972 606.668180 1074.015176 620.712370 1064.585610 634.248320 C1053.614663 649.996855 1041.728310 664.958281 1028.301797 678.782743 C1013.343301 694.184233 996.818520 707.359159 977.331704 716.235624 C968.401772 720.303251 958.518594 722.441923 948.903481 724.780058 C943.189004 726.169584 937.137246 726.126005 931.276284 726.990995 C929.678750 727.226713 928.222817 728.420195 926.701821 729.174101 C927.367959 730.332426 927.925088 731.571806 928.716470 732.636992 C942.685830 751.437895 959.135415 768.021391 976.196816 783.891874 C992.261147 798.835112 1010.164590 811.230375 1031.642495 817.668364 C1048.664468 822.770659 1065.721597 826.969023 1083.724038 826.009428 C1089.219033 825.716581 1094.787759 826.993681 1100.301675 826.832060 C1115.031777 826.400785 1129.780679 825.959868 1144.465249 824.801786 C1158.285439 823.711821 1170.788247 818.488310 1181.784219 810.011869 C1186.067178 806.710478 1189.834145 807.826689 1193.188882 810.999907 C1198.028847 815.578398 1201.703164 820.424101 1200.430337 827.522734 C1200.161050 829.023954 1199.908730 830.978056 1198.896645 831.824247 C1191.403847 838.089628 1189.013100 847.430326 1184.594277 855.470610 C1176.498208 870.201811 1167.960000 884.522978 1156.201455 896.698027 C1150.710000 902.384184 1145.404824 908.250273 1139.914346 913.937651 C1129.303384 924.928984 1116.699868 933.432646 1103.509072 940.754057 C1083.820840 951.681913 1063.532632 961.609648 1041.815713 967.970121 C1018.150430 974.901274 994.421548 981.665678 970.523843 987.727934 C960.860146 990.179472 950.704873 990.883696 940.720742 991.829985 C929.865029 992.859159 918.919839 994.077055 908.065347 993.704374 C894.088906 993.224638 880.153481 991.342802 866.222085 989.862089 C861.011758 989.308378 859.920937 990.491728 861.444619 995.628813 C868.137490 1018.194120 875.149697 1040.675932 881.233559 1063.405668 C883.960854 1073.594877 884.755776 1084.299101 886.470498 1094.762602 C888.105874 1104.743681 889.970376 1114.690702 891.403725 1124.699980 C892.383950 1131.545439 892.947060 1138.461332 893.433144 1145.364409 C894.530312 1160.942778 895.463906 1176.532621 896.463784 1192.117826 C896.797036 1197.312895 897.158974 1202.506376 897.456338 1207.703398 C897.820351 1214.063383 898.366982 1220.425566 898.390908 1226.788359 C898.411172 1232.148710 897.661904 1237.508940 897.558999 1242.875029 C897.533486 1244.209135 898.577309 1245.632841 899.328164 1246.897368 C900.624795 1249.080717 903.338174 1251.265776 903.187905 1253.281157 C902.916909 1256.917387 899.334756 1258.436796 895.931435 1258.853056 C891.265298 1259.423613 886.553262 1259.690092 881.852456 1259.888945 C872.160806 1260.299467 862.459389 1260.487700 852.769814 1260.935209 C840.375405 1261.507719 827.987466 1262.224882 815.598916 1262.918486 C804.207192 1263.556303 792.818642 1264.249418 781.428262 1264.911284 C769.871743 1265.582670 758.312173 1266.203398 746.759805 1266.938383 C743.372964 1267.153837 741.350991 1268.380888 741.349526 1272.581938 C741.345254 1284.276884 740.789834 1295.971342 740.465859 1307.666410 C740.123330 1320.027617 739.796914 1332.389311 739.463662 1344.750761 C739.130288 1357.112211 738.797036 1369.473784 738.463662 1381.835234 C738.130288 1394.196684 737.814370 1406.558622 737.458413 1418.919462 C737.150430 1429.615019 736.869424 1440.312529 736.406411 1451.001738 C736.306191 1453.314360 736.189370 1456.208036 734.844521 1457.770659 C731.483681 1461.676054 732.308877 1465.114164 734.426553 1469.038115 C737.044472 1473.889311 735.221352 1483.076323 730.372109 1486.487211 C724.510537 1490.610014 715.274087 1489.183744 710.682900 1485.724150 C705.136147 1481.544584 705.210854 1475.782133 705.481484 1469.851103 C705.540932 1468.546904 705.825112 1467.252958 706.005776 1465.954252 C704.887978 1466.044096 703.364419 1465.714994 702.742837 1466.317045 C701.684487 1467.341948 700.715493 1468.901274 700.562417 1470.327543 C700.238198 1473.349760 700.696816 1476.453398 700.406899 1479.482695 C700.011025 1483.622343 698.279458 1487.723784 694.066933 1488.568510 C689.461831 1489.492094 684.387246 1490.102201 680.512856 1485.571074 C677.585366 1482.146879 673.668618 1479.451933 674.168252 1474.153227 C674.218789 1473.617582 673.338906 1472.735258 673.517983 1472.508329 C678.553750 1466.123076 672.469155 1468.357451 669.962563 1467.938749 C668.989663 1467.776274 667.942910 1467.779570 666.975014 1467.955839 C666.247720 1468.088285 665.473183 1468.505644 664.975991 1469.036284 C664.819619 1469.203276 665.345620 1470.333647 665.812051 1470.710112 C671.561074 1475.351835 670.092446 1481.506376 667.017373 1486.682402 C663.423623 1492.731840 657.711465 1494.239409 651.096108 1491.912260 C643.193276 1489.132231 639.054116 1479.597197 642.455239 1472.301420 C642.697182 1471.782377 641.826699 1470.053740 641.388100 1470.020659 C638.570840 1469.808256 635.633462 1469.494780 632.943398 1470.115263 C631.848916 1470.367949 630.267861 1473.211332 630.631142 1474.302031 C632.613931 1480.254789 631.940957 1485.739531 627.113686 1489.568510 C619.502358 1495.605742 610.240029 1495.611235 604.954140 1491.627714 C599.640420 1487.623320 596.049722 1482.086576 598.155434 1474.634550 C598.397134 1473.779081 597.924722 1472.543119 597.431680 1471.686064 C591.960854 1462.178862 592.629189 1458.908476 599.829751 1450.933500 C613.190102 1436.136015 629.453164 1425.588285 647.141030 1416.820097 C652.711709 1414.058622 657.791787 1410.282255 662.999551 1406.824369 C665.610757 1405.090605 666.746743 1402.689970 666.562539 1399.276884 C666.218545 1392.905180 666.360635 1386.499662 666.485024 1380.111723 C666.748330 1366.582304 667.125771 1353.055082 667.465127 1339.527128 C667.792153 1326.498930 668.085366 1313.469511 668.480264 1300.443266 C668.723794 1292.412260 669.017495 1284.379301 669.515786 1276.361235 C669.733315 1272.860014 668.537514 1271.565825 665.028115 1271.881620 C649.420815 1273.285917 633.813271 1274.719877 618.183022 1275.817900 C614.031777 1276.109404 609.804360 1275.139067 605.602822 1274.945341 C602.110390 1274.784086 598.602944 1274.982695 595.105019 1274.899565 C582.409585 1274.598173 569.713052 1274.308989 557.021706 1273.875029 C553.041909 1273.738920 551.534951 1275.274687 551.385781 1279.316679 C550.934548 1291.548124 550.172158 1303.768827 549.450722 1315.989042 C548.846902 1326.216215 548.100991 1336.434843 547.471535 1346.660673 C546.770669 1358.048735 546.145425 1369.441191 545.459267 1380.830229 C544.813027 1391.554838 544.118203 1402.276640 543.466958 1413.001005 C542.785439 1424.223417 542.236977 1435.455473 541.418435 1446.667753 C541.011391 1452.243681 539.887429 1457.772612 539.604409 1463.349150 C539.513711 1465.135283 540.703835 1467.330717 541.955239 1468.779814 C546.850686 1474.447294 546.860329 1481.907377 542.006875 1486.945097 C538.272805 1490.820951 533.832375 1490.629057 529.462502 1489.285429 C524.249245 1487.682768 521.290444 1483.678862 520.500466 1478.263578 C520.262368 1476.631743 521.096597 1474.487944 520.310830 1473.377348 C519.215188 1471.829008 517.069070 1470.174101 515.353432 1470.153227 C513.639199 1470.132719 511.101479 1470.983183 512.338967 1474.611967 C515.094827 1482.693754 512.051003 1488.404814 503.867776 1492.008207 C497.871316 1494.648466 491.366677 1492.117460 487.502908 1485.361601 C485.408486 1481.699492 484.339211 1477.750639 486.475076 1473.633085 C486.692422 1473.214140 487.391885 1472.640287 487.319680 1472.542387 C486.871560 1471.934965 486.246499 1470.967436 485.717568 1470.990141 C482.499612 1471.128691 479.283303 1471.445341 476.099831 1471.924345 C475.893349 1471.955351 475.579995 1474.019804 475.966164 1474.827909 C480.622597 1484.573515 475.147378 1493.596952 464.116311 1495.729521 C459.710366 1496.581327 451.184975 1490.537626 450.600869 1485.640165 C450.137551 1481.754911 451.038796 1477.722685 451.018349 1473.757353 C451.013467 1472.805693 449.743996 1471.039824 449.074380 1471.048491 C445.375466 1471.096952 441.666177 1471.475126 438.007668 1472.043974 C437.551431 1472.114775 437.005532 1474.026884 437.125405 1475.009916 C438.287453 1484.540800 438.085732 1492.107206 427.691872 1496.052397 C418.997536 1499.352568 408.512917 1495.013823 406.374184 1484.032743 C405.747414 1480.814604 405.513711 1478.059233 407.412759 1475.197294 C407.646951 1474.844511 405.842141 1472.240019 404.736428 1472.040434 C396.530984 1470.558500 395.324197 1466.664579 399.405556 1459.274076 C408.455300 1442.886747 423.330910 1433.397734 439.021401 1425.100981 C449.468789 1419.576689 460.720071 1415.568876 471.628457 1410.922026 C475.769936 1409.157988 477.442483 1406.243681 477.558327 1401.618315 C477.987222 1384.498808 478.780129 1367.387846 479.471780 1350.275297 C479.755959 1343.244902 480.153847 1336.219145 480.458779 1329.189604 C481.140847 1313.467070 481.797036 1297.743437 482.462746 1282.020170 C482.469765 1281.853788 482.445473 1281.684477 482.466286 1281.520536 C483.814126 1270.912260 483.812783 1271.029692 473.022378 1270.885405 C455.493081 1270.651030 437.965127 1270.291288 420.438577 1269.895292 C409.741677 1269.653715 399.048013 1269.259794 388.353799 1268.907988 C378.824868 1268.594755 369.294900 1268.299955 359.769997 1267.888578 C355.235574 1267.692778 350.186379 1268.369780 346.342751 1266.572172 C343.004983 1265.011015 339.681924 1260.880156 338.721230 1257.256987 C335.987466 1246.946928 333.770119 1236.390287 332.639870 1225.792997 C331.237832 1212.648100 330.897622 1199.371855 330.518960 1186.140165 C329.969888 1166.951811 329.339089 1147.746000 329.618996 1128.560453 C329.817422 1114.963408 331.380166 1101.380766 332.490395 1087.804472 C333.356789 1077.208159 334.184731 1066.595976 335.528115 1056.054350 C337.617654 1039.657133 339.739785 1023.246244 342.561623 1006.964628 C346.157082 986.218901 349.999673 965.492704 354.590615 944.949125 C359.443215 923.234526 365.360635 901.759428 370.697427 880.151274 C374.062539 866.526030 377.215920 852.848784 380.459023 839.193510 C380.496438 839.035795 380.428384 838.852079 380.468850 838.695951 C381.036050 836.508207 381.613625 834.323027 382.188638 832.137236 C379.662576 832.728910 377.011514 833.009428 374.632058 833.965727 C363.965615 838.251738 352.775430 840.073637 341.213662 841.662260 M790.963662 1251.912260 C797.148843 1251.578886 803.332558 1251.211454 809.519692 1250.919096 C824.073891 1250.231108 838.629800 1249.577665 853.185220 1248.912748 C860.546059 1248.576445 867.910317 1248.299345 875.266396 1247.881132 C877.639321 1247.746122 880.033974 1247.411650 882.330727 1246.824858 C883.172402 1246.610014 884.256020 1245.472563 884.378091 1244.632231 C884.910806 1240.966337 885.499795 1237.245390 885.402505 1233.561918 C884.863931 1213.170683 884.130044 1192.784452 883.465737 1172.396391 C883.449380 1171.897123 883.510171 1171.391630 883.456826 1170.897490 C882.132119 1158.617094 880.776040 1146.339994 879.472085 1134.057524 C878.758828 1127.339384 878.435586 1120.564848 877.394936 1113.900175 C875.644936 1102.691069 873.653970 1091.511015 871.412270 1080.389677 C868.972085 1068.283598 866.445596 1056.177519 863.382119 1044.218779 C859.728066 1029.955717 855.784829 1015.746489 851.314126 1001.722075 C849.378213 995.649199 848.371377 988.259794 840.797890 985.804838 C833.142373 983.323271 825.364785 981.219633 817.653847 978.906767 C804.908242 975.083769 792.018349 971.666777 779.473183 967.268950 C764.220620 961.921904 749.033242 956.256620 734.242959 949.760649 C720.410439 943.685453 706.417153 937.455107 693.780434 929.300444 C674.873208 917.098906 655.562295 905.465849 637.904580 891.249540 C624.374429 880.356352 611.008950 869.598539 599.351113 856.579252 C587.416360 843.251005 579.044350 827.698027 569.530801 812.852079 C560.029946 798.025785 551.404153 782.635038 541.787087 767.888090 C532.067361 752.983549 521.316933 738.752714 511.539712 723.883574 C500.618264 707.274443 492.593240 689.158354 486.572060 670.262480 C482.663003 657.995024 479.301919 645.500639 476.621377 632.910795 C474.503701 622.964750 473.805276 612.717253 472.461098 602.605619 C471.138650 592.657805 469.830605 582.707731 468.423623 572.771757 C468.235818 571.445829 467.504678 570.196867 467.025307 568.912260 C466.171426 570.184416 464.905434 571.347990 464.536599 572.747892 C463.104897 578.181120 462.364602 583.821135 460.638039 589.147917 C451.593911 617.051298 441.817056 644.727812 433.304177 672.789335 C426.901650 693.894682 421.857766 715.420927 416.523598 736.838163 C413.200722 750.180082 410.491372 763.673979 407.455788 777.088041 C404.492043 790.185209 401.404336 803.254423 398.479531 816.360014 C395.242654 830.863920 392.352822 845.448637 388.904397 859.901030 C384.643410 877.758329 379.908181 895.502104 375.479714 913.320219 C371.421304 929.649321 367.308694 945.969267 363.579446 962.374907 C360.900857 974.158354 358.622964 986.042631 356.519753 997.944365 C354.588540 1008.872465 352.942361 1019.859770 351.510476 1030.865141 C349.652261 1045.147978 348.028970 1059.463652 346.496682 1073.785795 C345.330483 1084.685698 344.294656 1095.605497 343.508889 1106.538725 C342.643533 1118.580107 341.759927 1130.640898 341.571938 1142.704008 C341.397561 1153.889921 342.037942 1165.093657 342.486855 1176.282866 C343.057656 1190.508818 343.358559 1204.766386 344.606911 1218.937284 C345.549966 1229.642607 347.683205 1240.253080 349.556435 1250.858183 C349.946206 1253.064604 351.018288 1255.020903 354.389199 1255.030180 C366.583718 1255.063871 378.777566 1255.556303 390.970437 1255.919218 C400.998818 1256.217802 411.024148 1256.616728 421.052834 1256.902861 C434.078652 1257.274687 447.107827 1257.534941 460.132912 1257.928251 C468.329690 1258.175810 476.520303 1258.624418 484.716409 1258.901152 C495.908791 1259.278959 507.104165 1259.563749 518.297402 1259.916899 C528.158730 1260.228056 538.018288 1260.598539 547.879739 1260.907133 C559.239480 1261.262602 570.598672 1261.718412 581.961587 1261.874296 C594.181435 1262.042021 606.412637 1262.170073 618.625649 1261.834135 C629.191811 1261.543608 639.735513 1260.503569 650.296304 1259.931059 C664.014199 1259.187529 677.743325 1258.648222 691.460366 1257.888945 C701.356118 1257.341459 711.236123 1256.510771 721.130410 1255.929472 C733.681802 1255.192045 746.237344 1254.510405 758.797036 1253.934477 C768.486123 1253.490141 778.184853 1253.264799 787.876626 1252.872221 C788.584023 1252.843657 789.268472 1252.245512 790.963662 1251.912260 M927.463662 750.412260 C924.868325 747.483549 921.907632 744.801176 919.738076 741.585234 C907.541421 723.505034 895.668130 705.206205 883.422768 687.159452 C873.067300 671.897978 863.000161 656.370390 851.607461 641.904081 C841.701577 629.325834 829.994424 618.179167 819.325845 606.183928 C813.124673 599.211576 806.983315 592.112638 801.571206 584.530851 C795.035561 575.374968 789.667641 565.385222 783.126382 556.233793 C774.907021 544.734587 769.265298 531.913176 764.701577 518.856535 C756.659219 495.848112 752.068154 471.993925 752.466958 447.416166 C752.560830 441.631193 752.398354 435.819548 752.925576 430.072599 C753.241494 426.628141 752.348550 425.239836 749.001260 425.893583 C736.811440 428.274260 724.648110 430.835295 712.392739 432.820951 C704.425698 434.111723 703.033852 434.971220 703.473428 441.516874 C703.755410 445.715300 704.226357 449.902433 704.443032 454.103361 C704.848183 461.961027 705.797158 469.866911 705.306069 477.676420 C704.583657 489.161589 702.263589 500.550077 701.622720 512.035551 C701.051431 522.278288 699.669228 532.260527 696.426064 541.940641 C692.063515 554.961210 684.652993 565.826994 671.357339 570.750456 C661.067788 574.560820 650.362466 577.503263 639.618081 579.770720 C624.341592 582.994658 608.922768 585.748014 593.438393 587.698210 C585.818032 588.657866 577.817910 588.031401 570.159219 586.936369 C557.235390 585.088591 545.990090 579.251493 535.760659 571.011259 C527.163369 564.085905 521.380044 555.747831 518.410867 545.140898 C514.008828 529.415373 514.753518 513.201567 513.627908 497.189421 C513.033059 488.726713 514.518716 480.137602 514.353616 471.619291 C514.190896 463.219694 512.824807 454.845854 512.592385 446.444059 C512.475930 442.234709 510.407693 441.154570 507.033852 440.934111 C503.915871 440.730436 500.768410 440.886076 497.664651 440.575712 C489.694131 439.778959 481.750283 438.690092 473.768655 438.062773 C472.749551 437.982756 470.711770 439.871183 470.604958 440.987150 C469.983193 447.487638 469.381753 454.040190 469.544045 460.555937 C469.973183 477.784391 470.685708 495.008390 471.516457 512.222990 C471.865762 519.461576 472.414529 526.732451 473.542580 533.882963 C475.951211 549.151213 478.912087 564.331450 481.428689 579.583769 C483.597207 592.726469 485.734841 605.884855 487.396401 619.097990 C489.572732 636.403471 493.009438 653.405424 499.557717 669.576567 C504.757363 682.417265 510.231545 695.214140 516.651650 707.471098 C521.359231 716.458891 527.812051 724.530180 533.460366 733.027739 C542.926431 747.268950 552.627114 761.362700 561.759805 775.814970 C572.914101 793.466581 583.644265 811.387724 594.445229 829.260405 C603.557900 844.339384 615.170327 857.407743 628.726723 868.345732 C643.603188 880.348784 658.413857 892.535063 675.090493 902.238676 C688.603310 910.101103 700.994302 919.966093 714.757485 927.301909 C727.058389 933.858183 740.477700 938.371244 753.544472 943.421415 C769.351846 949.530668 785.114297 955.862577 801.245400 961.002348 C824.141518 968.297636 847.109658 975.624296 871.249184 977.911772 C885.362099 979.249174 899.453530 981.021269 913.598183 981.730375 C920.936196 982.098051 928.391763 980.765898 935.753091 979.865019 C945.057168 978.726591 954.502358 977.990995 963.564248 975.767485 C987.400796 969.918852 1011.153481 963.679594 1034.768227 956.990751 C1057.916177 950.434355 1079.352212 939.838285 1100.243447 927.978788 C1125.966225 913.376860 1145.313760 892.256620 1162.454140 868.744780 C1170.007363 858.383940 1174.855508 846.637724 1179.390176 834.768339 C1179.978066 833.229399 1179.564248 831.307524 1179.614419 829.563017 C1177.809731 829.600493 1175.733926 829.063383 1174.243691 829.766996 C1163.099282 835.028471 1151.138345 836.817656 1139.105874 837.797026 C1128.289346 838.677397 1117.392617 838.855009 1106.532021 838.839384 C1094.170571 838.821562 1081.802651 838.406279 1069.452065 837.846098 C1063.044961 837.555326 1056.426064 837.444731 1050.328896 835.734282 C1037.109780 832.026274 1023.833169 828.137358 1011.185708 822.868559 C992.503701 815.085600 976.958169 802.245390 962.568642 788.301909 C950.388467 776.499296 939.130044 763.745268 927.463662 750.412260 M484.463662 360.412260 C483.463662 366.991484 482.922707 373.692778 481.221474 380.085417 C480.603616 382.407011 477.215920 383.991484 475.092019 385.912260 C473.215859 383.577116 469.999978 381.370146 469.761575 378.878263 C469.351418 374.591764 470.480264 370.050993 471.521340 365.752165 C475.036477 351.237700 478.867593 336.799467 482.337075 322.274565 C482.632241 321.038908 481.465859 318.471586 480.413674 318.093107 C477.921487 317.196867 475.076028 316.876432 472.396951 316.973417 C457.505105 317.512480 442.583047 317.804899 427.745400 319.058744 C416.874978 319.977385 405.902993 321.397429 395.353982 324.079496 C369.112832 330.751188 343.217324 338.633024 319.861489 352.943327 C314.777627 356.058256 309.793252 359.381865 305.063638 363.001982 C303.550515 364.160246 300.636452 366.296659 303.853188 368.757475 C322.275002 382.850004 342.799905 393.085844 364.531838 400.849699 C391.592385 410.517302 419.556313 416.886747 447.812051 421.792509 C463.196938 424.463652 478.761941 426.225493 494.304971 427.819426 C508.342507 429.259001 522.461526 430.755156 536.543313 430.742643 C569.262673 430.713652 602.028603 432.372099 634.697305 428.946135 C646.258340 427.733793 657.877602 427.078459 669.438271 425.863066 C679.907998 424.762419 690.384682 423.552092 700.767861 421.842192 C717.397866 419.103727 734.079995 416.474150 750.507119 412.766447 C769.905190 408.388151 789.212441 403.437712 808.261514 397.739958 C822.553506 393.465055 836.613442 388.173857 850.333535 382.300077 C862.090371 377.266752 873.454507 371.173857 884.545571 364.775236 C892.572915 360.144133 899.801064 354.144560 907.520425 348.955961 C911.251870 346.447844 911.586709 344.803801 907.563760 342.981840 C895.363076 337.456205 883.267739 331.543425 870.668374 327.092314 C855.365273 321.686064 839.722207 317.088896 823.975381 313.142546 C812.370522 310.234159 800.383096 308.805204 788.527627 306.963835 C782.350747 306.004423 776.082436 305.647490 769.870034 304.898588 C755.149087 303.123991 740.413735 302.572416 725.616738 303.866240 C722.648843 304.125700 721.267495 305.617643 723.065224 307.847075 C729.065957 315.288359 735.250527 322.609282 741.790200 329.576933 C745.407754 333.431181 750.071938 336.289152 753.839761 340.024443 C755.010415 341.184904 755.461343 343.904448 755.064248 345.640898 C754.218179 349.341032 748.229409 350.774748 744.768716 347.513151 C734.750039 338.070829 724.278359 328.876738 715.680215 318.217497 C704.553262 304.423368 697.311929 288.068205 690.568032 271.720976 C686.340615 261.473722 682.381997 250.996916 679.659219 240.278471 C676.487710 227.794157 674.583291 214.968168 672.525307 202.226530 C670.571938 190.132597 669.001382 177.971830 667.511025 165.810026 C666.588906 158.285795 666.557290 150.637419 665.377724 143.162809 C662.648232 125.866789 659.503335 108.635496 656.451455 91.391295 C653.843545 76.655516 651.456826 61.869017 648.348428 47.237486 C646.289956 37.548460 643.312417 28.037443 640.398232 18.553709 C638.528481 12.468718 634.880776 11.757597 630.460732 16.494047 C626.265298 20.989897 622.080849 25.561979 618.458657 30.515287 C602.765908 51.974699 588.516579 74.362272 576.490762 98.097960 C566.656960 117.507322 556.699136 136.868193 547.491006 156.575102 C541.503823 169.388701 536.198952 182.590605 531.598855 195.966093 C525.066506 214.959745 519.224831 234.202665 513.547707 253.474577 C509.771340 266.293547 506.915932 279.381010 503.430276 292.289396 C499.914895 305.308317 496.134743 318.255888 492.462197 331.232328 C489.803139 340.627653 487.130349 350.019133 484.463662 360.412260 M1059.463662 619.412260 C1062.130288 614.850859 1064.666665 610.206999 1067.488564 605.743803 C1075.411660 593.212492 1077.989053 578.733976 1082.324258 564.920134 C1083.486733 561.215666 1086.311318 556.601164 1080.555337 553.335966 C1078.204995 552.002653 1076.419595 549.576139 1074.568032 547.478666 C1068.208657 540.274443 1059.044961 538.388334 1050.745400 534.982573 C1039.496133 530.366362 1027.763100 526.851347 1016.751382 521.754057 C1003.890908 515.800993 990.511269 512.220976 976.669472 509.917204 C964.508218 507.893217 952.334145 505.945768 940.176431 503.900358 C932.267861 502.569670 930.908974 503.238676 927.047768 510.828154 C922.551553 519.665800 917.781899 528.346281 909.123574 533.887846 C894.448647 543.280058 879.092934 551.114347 861.909829 555.053373 C850.562783 557.654448 839.404580 561.069181 828.098061 563.861113 C821.556680 565.476347 814.880166 566.538847 808.286904 567.954863 C807.283364 568.170317 806.341225 568.881559 805.530923 569.555937 C805.413735 569.653532 806.097817 570.920988 806.583047 571.503874 C815.042641 581.668730 823.359170 591.959745 832.060586 601.914030 C839.829140 610.801298 848.040200 619.301481 856.033852 627.992704 C859.129311 631.358305 862.555947 634.505034 865.161294 638.221464 C878.714394 657.555082 892.131142 676.985868 905.417641 696.503935 C909.710610 702.810453 913.380532 709.538359 917.538491 715.941679 C918.308999 717.128325 920.855264 718.679106 921.224526 718.380888 C926.547036 714.082914 933.099770 716.799955 938.868691 715.012602 C949.678750 711.663725 961.016396 709.792021 971.512002 705.706572 C987.343179 699.543974 1000.114663 688.204374 1012.489175 676.997343 C1022.358926 668.058744 1030.966470 657.613798 1039.410439 647.247953 C1046.472207 638.579252 1052.485879 629.056730 1059.463662 619.412260 M280.963662 653.912260 C270.961770 655.912260 260.997353 658.135527 250.942727 659.820829 C245.680825 660.702787 241.660989 663.666655 242.510537 667.538603 C244.515359 676.675932 246.944253 685.721952 248.873269 694.874174 C251.560586 707.624052 254.234536 720.390043 256.355447 733.241240 C257.613564 740.864531 257.406838 748.723417 258.549538 756.373198 C260.577065 769.947050 262.920266 783.483061 265.532021 796.957182 C267.521157 807.219999 269.787759 817.459013 272.621743 827.513945 C273.864114 831.922148 275.289712 837.451078 281.415871 837.849638 C293.253396 838.619780 304.897073 836.825590 316.452187 834.419584 C325.191384 832.599882 333.912209 830.689604 342.664101 828.933867 C348.224526 827.818510 353.925149 827.278349 359.383523 825.812162 C365.172280 824.257231 370.752236 820.292265 376.417031 820.304838 C384.246377 820.322050 386.148415 816.366606 387.490151 810.334501 C390.065469 798.756865 392.882119 787.232573 395.445107 775.652250 C400.176431 754.274931 404.135964 732.701445 409.633950 711.525541 C416.247475 686.053373 423.876260 660.833159 431.580972 635.661528 C434.954690 624.639006 439.611611 614.009672 443.669350 603.195585 C444.095437 602.060087 444.409951 600.882780 444.776284 599.724821 C443.402932 599.889738 441.870339 599.715422 440.681618 600.273527 C431.611062 604.532805 422.877785 609.657133 413.531045 613.152739 C388.704446 622.437712 363.838662 631.726713 338.569558 639.683622 C320.044289 645.516996 300.856301 649.245634 280.963662 653.912260 M529.463662 538.412260 C531.480080 550.891447 539.391030 559.362761 549.360085 565.810026 C566.035867 576.594755 584.688943 578.104643 603.702187 574.790983 C619.420937 572.051481 635.034219 568.574797 650.536538 564.780302 C658.907021 562.731474 667.606118 560.665556 674.250771 554.550993 C683.871133 545.698271 686.791421 533.758757 688.392861 521.462248 C689.435586 513.456022 689.774575 505.359159 690.473550 497.306791 C690.793008 493.625883 691.248574 489.956938 691.591470 486.277861 C692.235024 479.372587 693.375039 472.459806 693.323037 465.557585 C693.263589 457.664457 691.825356 449.788359 691.594033 441.887053 C691.480874 438.014433 690.566933 436.415251 686.562417 436.883085 C674.460488 438.297026 662.358559 439.746244 650.227090 440.860258 C640.195718 441.781279 630.129067 442.378813 620.065957 442.875090 C609.881509 443.377226 599.680581 443.897734 589.489846 443.844755 C569.298257 443.739775 549.107278 443.312346 528.919900 442.848600 C525.435586 442.768583 524.183816 443.822538 524.413796 447.337492 C524.909341 454.910795 525.405556 462.501677 525.411904 470.085844 C525.430642 492.614592 525.764931 515.110624 529.463662 538.412260 M249.463662 1180.412260 C250.463662 1187.496977 251.489907 1194.578276 252.456460 1201.667509 C253.489968 1209.246977 254.422341 1216.840117 255.479470 1224.416166 C257.104714 1236.063383 259.084206 1247.671415 260.299660 1259.359892 C260.693337 1263.145781 261.763589 1264.331205 265.273232 1263.927763 C268.793069 1263.523222 272.458596 1263.692900 275.797219 1262.713652 C277.341714 1262.260527 279.312295 1259.646147 279.267983 1258.062651 C279.130898 1253.160307 278.191140 1248.271269 277.430398 1243.397734 C276.162209 1235.273222 274.668313 1227.182280 273.498391 1219.044340 C272.339516 1210.982817 271.553506 1202.868193 270.442117 1194.799101 C268.860024 1183.313139 267.103127 1171.851469 265.475930 1160.371489 C264.737038 1155.158842 264.202859 1149.916777 263.447488 1144.706694 C262.173318 1135.918608 260.739541 1127.153471 259.481118 1118.363310 C258.396951 1110.790800 257.555886 1103.183134 256.438943 1095.615995 C255.214394 1087.320341 253.661233 1079.072050 252.501565 1070.768339 C251.329324 1062.374662 250.590310 1053.920683 249.428201 1045.525419 C248.255898 1037.057035 246.701821 1028.641752 245.491372 1020.178007 C244.361672 1012.278837 243.557473 1004.333036 242.438393 996.432158 C241.216225 987.803495 239.708413 979.215361 238.489541 970.586332 C237.351052 962.526396 236.541787 954.419584 235.382241 946.362944 C233.847329 935.698149 232.009682 925.076445 230.496865 914.408720 C229.330239 906.181425 228.588113 897.893950 227.433022 889.664701 C225.890176 878.673002 224.083413 867.718412 222.483681 856.734282 C221.701150 851.361479 221.231423 845.943144 220.440285 840.571806 C219.194436 832.112822 217.681496 823.692045 216.496560 815.225126 C215.344827 806.995268 214.582497 798.711088 213.430703 790.481230 C212.245766 782.014311 210.660500 773.602690 209.507790 765.131987 C208.619851 758.605986 208.362954 751.991972 207.416787 745.476591 C205.230996 730.424223 202.892861 715.392118 200.416421 700.384916 C199.425332 694.378325 198.821999 688.058867 193.698952 683.701078 C192.174050 682.403959 191.227334 679.325956 188.167947 681.659697 C185.095376 684.003569 186.916787 686.056425 188.271523 688.222685 C190.542153 691.853910 192.131203 695.268461 190.683389 700.050200 C189.472817 704.048613 187.428017 708.621489 191.738992 712.842680 C198.152200 719.122465 196.157815 727.770414 189.947243 732.983915 C187.785744 734.798491 185.661111 736.772123 183.996499 739.025297 C182.754922 740.705961 181.437722 743.029326 181.610574 744.934477 C182.329140 752.855742 183.581948 760.729399 184.673440 768.615751 C185.588662 775.228056 186.452248 781.849882 187.515603 788.438871 C189.428384 800.291655 191.568093 812.108183 193.433633 823.968168 C194.915810 833.390776 196.016640 842.873442 197.492226 852.297148 C199.374551 864.318388 201.542214 876.294706 203.438332 888.313993 C204.899026 897.573271 206.037576 906.883451 207.486611 916.144804 C209.393105 928.328764 211.528542 940.477079 213.439187 952.660429 C214.573037 959.890654 215.337319 967.179106 216.492226 974.405668 C218.386636 986.258696 220.561196 998.067167 222.432656 1009.923613 C223.919778 1019.345366 224.995644 1028.832304 226.501687 1038.250761 C227.994424 1047.586576 229.966653 1056.846586 231.417336 1066.188139 C232.956826 1076.102079 233.927346 1086.105375 235.510415 1096.011381 C238.001260 1111.598784 240.905618 1127.120024 243.429177 1142.702543 C245.433694 1155.079985 247.130288 1167.507109 249.463662 1180.412260 M122.463662 482.412260 C130.703835 469.838774 138.915810 457.246672 147.195046 444.698942 C151.922952 437.533476 155.843484 437.234587 162.039529 442.927702 C171.524026 451.642424 181.183205 460.167753 190.827493 468.706572 C191.583779 469.376188 192.803262 469.522673 193.807534 469.912260 C193.994851 468.714201 194.612466 467.376432 194.278359 466.347685 C193.618935 464.317228 192.108743 462.551603 191.518838 460.512053 C188.719155 450.832731 186.739602 440.864653 183.245827 431.453154 C180.166177 423.157438 178.964089 416.123869 187.369546 410.489164 C187.776650 410.216276 188.082925 409.793058 188.436135 409.439787 C194.282693 403.593168 200.154397 397.771086 205.941323 391.866056 C206.599709 391.194181 206.782510 390.056303 207.185830 389.134489 C206.263955 388.908232 205.309304 388.398588 204.425515 388.501005 C198.094216 389.234892 191.786782 390.178373 185.452615 390.883451 C180.952676 391.384367 176.333230 391.183989 171.932412 392.095121 C167.793618 392.951994 165.180886 392.183195 163.279824 388.284452 C157.737527 376.917997 152.053506 365.620024 146.341103 354.337797 C145.390603 352.460539 144.018960 350.796537 142.841958 349.033964 C142.049172 350.870329 141.059548 352.648344 140.495461 354.552397 C136.758645 367.165739 133.251931 379.849333 129.350747 392.410734 C128.229104 396.022245 126.939309 400.258085 122.210244 400.859526 C115.352334 401.731779 108.447610 402.233122 101.565102 402.915861 C95.012429 403.565825 88.451943 404.161589 81.921975 404.993864 C80.813943 405.135160 79.842568 406.349333 78.808053 407.067839 C79.322884 407.682646 79.724404 408.476286 80.369729 408.885222 C88.935830 414.313749 97.643105 419.526762 106.098122 425.121489 C114.717080 430.824614 121.667825 436.630644 118.880959 449.528654 C116.522744 460.442717 117.756326 472.140837 117.517983 483.494413 C117.489907 484.830656 118.207070 486.182646 118.578713 487.527311 C119.540322 486.517118 120.503518 485.508268 121.462930 484.496000 C121.801064 484.139128 122.130349 483.773710 122.463662 482.412260 M1037.963662 472.912260 C1041.973916 461.290617 1046.728188 449.759184 1047.232705 437.361540 C1047.440835 432.246305 1045.649575 426.805876 1043.715127 421.931120 C1042.373452 418.550016 1038.963662 418.977140 1037.446450 422.531340 C1035.514443 427.057280 1034.481606 431.992155 1032.317544 436.384428 C1031.062417 438.931913 1028.568032 442.103239 1026.220254 442.488249 C1024.335000 442.797453 1021.464394 439.624968 1019.752602 437.433683 C1018.855508 436.285307 1018.985513 433.734831 1019.561196 432.147306 C1021.344033 427.229582 1019.180337 423.013395 1017.684975 418.684050 C1016.577309 415.477079 1015.103677 411.507658 1010.873574 413.138762 C1008.224160 414.160368 1005.516274 417.033781 1004.466103 419.715178 C1003.000283 423.458281 1002.775185 427.781889 1002.540322 431.886869 C1002.287637 436.302641 1000.373696 439.122587 995.959634 438.790800 C991.449990 438.451750 990.204873 434.994963 990.453652 430.855497 C990.825600 424.666594 991.236733 418.476164 991.384316 412.280485 C991.418862 410.836515 990.834634 408.606901 989.853799 408.124846 C988.856484 407.634794 986.499306 408.408537 985.638467 409.406157 C982.040810 413.575285 978.194375 417.764555 978.470620 423.882231 C978.772866 430.574553 979.592812 437.283659 979.315224 443.949125 C979.098916 449.142057 977.432046 454.199247 972.126626 456.918547 C967.342568 459.370695 962.902505 458.114775 959.398476 454.797087 C956.895303 452.426909 955.511147 448.908293 953.405434 446.066679 C952.683144 445.091887 951.287270 444.616056 950.199136 443.912260 C949.620644 444.959135 948.688760 445.953520 948.524331 447.061857 C947.785806 452.035734 951.526162 454.826811 954.361611 457.871183 C959.907265 463.825041 966.186806 469.157011 971.254800 475.474577 C975.336587 480.562712 974.748940 487.290251 974.443032 493.573698 C974.336098 495.771452 974.527749 496.690458 977.389565 497.093290 C984.169106 498.047453 990.942300 499.538054 997.483315 501.568388 C1005.560586 504.075285 1013.474038 507.168119 1021.306313 510.378263 C1024.508584 511.690763 1025.709634 509.829008 1026.387246 507.805510 C1030.212075 496.385588 1033.797036 484.885222 1037.963662 472.912260 M669.463540 1416.412138 C666.527627 1418.578764 663.784463 1421.092314 660.621743 1422.851347 C647.795937 1429.984282 634.274697 1435.961943 623.185708 1445.911650 C619.299355 1449.398710 615.351601 1452.820707 611.564492 1456.412260 C610.872109 1457.068998 610.820107 1458.400785 610.472329 1459.420927 C611.041299 1459.512846 611.622475 1459.730742 612.177529 1459.677763 C621.628213 1458.775785 631.057778 1457.539457 640.527749 1456.980131 C656.068764 1456.062284 671.635049 1455.565580 687.191811 1454.917509 C695.885171 1454.555326 704.583291 1454.297758 713.273721 1453.879667 C715.812173 1453.757597 718.374062 1453.420195 720.839761 1452.826567 C721.832681 1452.587553 723.077309 1451.543730 723.365762 1450.606962 C724.011758 1448.508207 724.377236 1446.252348 724.424844 1444.051054 C724.826455 1425.525419 725.192056 1406.998076 725.318642 1388.469633 C725.326699 1387.291044 723.270303 1385.089262 722.140664 1385.067045 C709.646523 1384.820951 697.145303 1384.848051 684.647134 1384.952787 C681.098428 1384.982573 679.018105 1386.587675 679.394082 1390.699247 C679.726601 1394.335234 679.520303 1398.026762 679.452676 1401.691801 C679.276406 1411.245146 678.202065 1412.820463 669.463540 1416.412138 M727.463784 1308.412260 C727.797036 1301.394682 728.210488 1294.379667 728.435342 1287.358671 C728.584389 1282.704008 727.602212 1277.826323 728.693398 1273.438261 C729.911538 1268.539457 727.636514 1268.755522 724.482095 1268.915068 C711.445107 1269.574614 698.407388 1270.223906 685.372842 1270.927641 C682.246987 1271.096342 681.483437 1273.092924 681.417031 1275.955717 C681.211343 1284.806669 680.660683 1293.650419 680.490639 1302.501493 C680.074502 1324.161528 679.840371 1345.825102 679.424844 1367.485136 C679.347207 1371.528593 680.994546 1373.089262 684.988442 1372.948881 C697.327554 1372.514921 709.671304 1372.190947 722.015664 1371.943876 C725.919228 1371.865873 726.324258 1369.127226 726.418862 1366.407866 C726.853921 1353.902372 727.186440 1341.392363 727.440469 1328.881743 C727.572060 1322.394438 727.463662 1315.902250 727.463784 1308.412260 M500.963662 1457.912260 C508.462319 1457.912260 515.961709 1457.854277 523.459328 1457.941923 C526.343240 1457.975737 528.257790 1457.093046 528.459451 1453.952787 C529.137124 1443.398222 529.879494 1432.846952 530.437905 1422.285917 C530.897195 1413.598784 531.119912 1404.899443 531.481423 1396.206938 C531.513467 1395.437040 531.705117 1394.643339 531.977883 1393.919096 C533.330972 1390.325956 532.190102 1388.823393 528.294656 1388.872343 C518.631264 1388.993681 508.962197 1389.063139 499.301247 1388.866606 C490.902139 1388.695951 490.338113 1389.208769 490.351723 1397.537382 C490.359170 1402.112822 489.583901 1406.774443 488.525613 1411.246733 C486.946511 1417.920073 480.808511 1420.266874 475.553017 1422.797758 C462.374673 1429.144316 448.650552 1434.396269 435.676308 1441.112822 C428.309365 1444.926420 421.937844 1450.692900 415.249978 1455.754179 C414.286538 1456.483305 414.064858 1458.192656 413.499856 1459.448515 C414.602212 1459.603056 415.717629 1459.950102 416.804665 1459.876860 C420.338967 1459.638212 423.858987 1459.009184 427.391518 1458.949980 C451.581216 1458.544096 475.772744 1458.245512 500.963662 1457.912260 M493.463662 1314.412260 C493.463662 1320.074736 493.650124 1325.744658 493.426858 1331.398344 C492.871987 1345.449369 492.049660 1359.490629 491.621621 1373.544462 C491.588418 1374.632231 493.777322 1376.738188 494.968667 1376.764311 C506.288247 1377.012114 517.619668 1377.061308 528.935403 1376.737455 C530.479470 1376.693266 533.166604 1374.383574 533.278664 1372.961699 C534.568703 1356.577787 535.531960 1340.166410 536.436257 1323.754423 C536.923745 1314.907499 536.970742 1306.035429 537.517983 1297.193388 C537.903970 1290.956816 538.672341 1284.735014 539.508584 1278.538847 C540.043069 1274.578764 537.744485 1273.118681 534.623269 1272.981230 C523.110879 1272.474394 511.586343 1272.243925 500.066201 1271.913481 C496.731728 1271.818022 495.567361 1273.576078 495.420937 1276.766264 C494.860024 1288.985868 494.130288 1301.197538 493.463662 1314.412260 M154.463662 540.412260 C155.796975 552.355558 157.201577 564.291533 158.444863 576.244169 C159.859536 589.844816 161.175454 603.456266 162.449685 617.070890 C163.517556 628.479277 164.321999 639.915190 165.620034 651.295927 C165.809548 652.957304 167.923074 655.421415 169.452431 655.676054 C171.949075 656.091826 175.204263 655.728300 177.207436 654.344389 C179.541604 652.731962 181.072671 649.783964 182.570046 647.194365 C183.551797 645.496489 184.515176 643.348051 184.350259 641.502958 C183.610635 633.230375 182.394509 625.001982 181.481606 616.743071 C180.404946 607.002836 179.410195 597.252836 178.476357 587.497770 C177.094277 573.060331 175.816689 558.612883 174.456887 544.173185 C173.491494 533.921476 172.429971 523.678740 171.471780 513.426359 C170.106606 498.820524 168.551064 484.226042 167.571145 469.593596 C167.105874 462.645597 162.035744 459.305021 157.972756 455.084501 C157.463235 454.555265 155.202737 454.677092 154.800881 455.242155 C151.560952 459.798002 146.260354 463.568693 146.597207 469.745756 C147.066750 478.357145 148.476846 486.916410 149.460671 495.500761 C151.137978 510.136808 152.796975 524.774992 154.463662 540.412260 M189.463662 658.412260 C189.620278 660.235502 189.164040 662.490263 190.074075 663.783232 C191.515847 665.831205 193.714089 667.480497 195.868386 668.870268 C205.730630 675.232817 210.771584 684.589872 212.399819 695.841826 C214.024331 707.068022 214.913735 718.402250 216.624245 729.612944 C217.024758 732.238066 216.450234 737.022001 222.153054 735.972441 C227.318764 735.021757 232.565285 734.446928 237.799233 733.947905 C243.461831 733.407988 244.448525 732.505644 243.438393 727.218657 C240.847451 713.657866 238.132912 700.120634 235.445901 686.578398 C235.390481 686.298979 234.882241 686.058622 234.899453 685.822905 C235.422463 678.653349 231.496743 675.974760 224.944314 674.803618 C214.627480 672.959501 207.140481 666.194120 200.039956 659.009184 C196.952615 655.885038 193.552590 654.204618 189.463662 658.412260 M170.463662 691.412260 C166.990456 692.245634 163.241799 692.524565 160.124368 694.073881 C157.221413 695.516386 154.990456 698.311308 152.463662 700.510771 C154.930520 703.278105 156.901528 707.074369 159.985757 708.560698 C164.143472 710.564360 176.442422 704.348051 178.905740 699.834990 C179.465005 698.810453 179.469643 696.514799 178.786721 695.955473 C176.402077 694.002226 173.604409 692.553007 170.463662 691.412260 M175.463662 730.412260 C177.811440 728.064482 180.292397 725.827909 182.409280 723.287748 C182.912759 722.683744 182.155373 720.052397 182.049722 720.056913 C175.582314 720.329741 169.049722 720.349150 162.696267 721.419462 C160.032937 721.868193 156.821389 724.006865 157.499612 727.931669 C158.539529 733.950224 166.577676 737.004179 171.503457 733.377348 C172.643716 732.537870 173.809609 731.733061 175.463662 730.412260 M163.963662 666.912260 C162.468484 666.912260 160.647439 666.365263 159.543801 667.022490 C156.998696 668.538237 154.181130 670.247709 152.676308 672.636015 C151.628091 674.299467 151.867471 678.876249 152.766457 679.260038 C155.203896 680.300810 158.306374 679.982695 161.131692 679.868315 C165.044045 679.709868 168.967324 679.401762 172.836160 678.824247 C174.124123 678.631865 176.371743 677.236113 176.285073 676.692411 C175.672219 672.846830 173.955239 669.473539 169.996987 668.000517 C168.404702 667.407988 166.646401 667.261625 163.963662 666.912260 z"/><path class="selected"  fill="#000000" opacity="1.000000" stroke="none" 
 	d="
M874.213662 1483.662260 C871.465615 1483.912260 868.943032 1483.689238 866.474770 1483.960478 C861.864419 1484.467070 858.415444 1482.484648 857.649209 1478.257841 C856.836343 1473.774809 860.770547 1472.348906 864.434975 1471.457060 C865.506875 1471.196074 866.611855 1470.973417 867.709389 1470.930571 C877.062661 1470.565214 886.416909 1470.221830 895.772622 1469.926420 C898.657754 1469.835234 901.750405 1469.279814 904.370766 1470.117216 C906.376138 1470.758207 909.011880 1473.175077 909.130166 1474.951078 C909.256631 1476.846830 907.115884 1479.401396 905.289223 1480.759306 C903.824258 1481.848417 901.360390 1481.742949 899.320351 1481.883329 C891.038857 1482.452421 882.749917 1482.912138 874.213662 1483.662260 z"/><path class="selected"  fill="#000000" opacity="1.000000" stroke="none" 
 	d="
M893.713662 1438.162260 C896.127114 1437.912260 898.306557 1438.080595 900.450600 1437.876493 C904.662270 1437.475370 907.421181 1440.383696 907.073159 1443.392241 C906.797524 1445.774809 903.279092 1449.223417 900.772866 1449.642851 C892.515054 1451.024931 884.053384 1451.150297 875.688515 1451.950224 C871.111123 1452.387968 866.550820 1453.779692 862.022378 1453.620268 C859.789834 1453.541533 856.633462 1451.384062 855.694009 1449.340483 C854.168252 1446.020903 857.056924 1442.608183 861.471230 1441.969633 C867.652505 1441.075346 873.892251 1440.587187 880.105386 1439.909452 C884.559487 1439.423613 889.011025 1438.912138 893.713662 1438.162260 z"/><path class="selected"  fill="#000000" opacity="1.000000" stroke="none" 
 	d="
M881.463662 1420.912260 C873.653481 1420.912260 866.343179 1420.890287 859.033120 1420.921415 C855.339394 1420.937162 852.795571 1418.884550 851.991860 1415.690947 C851.576211 1414.038725 852.697793 1411.146513 854.088540 1410.118925 C855.664223 1408.954741 858.326943 1408.920561 860.503213 1408.972441 C867.845254 1409.147612 875.178750 1409.657988 882.520303 1409.884184 C887.333901 1410.032621 892.156777 1409.978056 896.973306 1409.891386 C900.855141 1409.821684 903.335000 1411.459868 903.404458 1415.441923 C903.477700 1419.644194 900.203408 1420.677275 896.912881 1420.845976 C891.941689 1421.100493 886.947915 1420.912260 881.463662 1420.912260 z"/><path class="selected"  fill="#000000" opacity="1.000000" stroke="none" 
 	d="
M272.713662 415.662260 C273.696328 421.272062 271.728249 424.166838 266.639321 423.816740 C256.873818 423.145048 247.098977 422.223295 237.431924 420.731352 C234.350076 420.255766 230.793252 418.099394 231.528115 413.737272 C232.174905 409.898100 234.886330 408.484282 238.691506 408.901701 C248.097939 409.933622 257.532265 410.751310 266.902077 412.042448 C268.873330 412.314055 270.615762 414.245634 272.713662 415.662260 z"/><path class="selected"  fill="#000000" opacity="1.000000" stroke="none" 
 	d="
M161.713662 268.662260 C161.366006 274.509916 160.843850 280.117033 160.142007 285.701628 C159.730508 288.975981 159.441506 292.361296 158.340798 295.424833 C157.373452 298.117216 155.743386 300.886503 153.621133 302.706755 C152.660928 303.530241 148.695351 302.767912 148.032388 301.612516 C146.733498 299.348661 146.153847 296.240934 146.416909 293.595976 C147.104348 286.684172 148.464700 279.841764 149.444680 272.955717 C150.181557 267.777128 152.672829 264.538481 156.496926 265.069365 C158.272927 265.316008 159.815347 267.245573 161.713662 268.662260 z"/><path class="selected"  fill="#000000" opacity="1.000000" stroke="none" 
 	d="
M12.213662 446.662260 C8.707986 446.323271 4.856332 446.625639 2.334237 444.939360 C-1.593528 442.313200 -0.304313 435.740019 4.258858 435.091398 C13.228707 433.816435 22.342416 433.288054 31.405556 433.176420 C33.067025 433.155912 35.882699 436.447294 36.108987 438.443083 C36.295388 440.086882 33.768166 443.063749 31.857034 443.706877 C27.861672 445.051359 23.487710 445.307035 19.252450 445.887297 C17.007668 446.194853 14.727731 446.245573 12.213662 446.662260 z"/><path class="selected"  fill="#000000" opacity="1.000000" stroke="none" 
 	d="
M213.713662 309.162260 C217.266946 307.240934 220.442300 306.891691 223.093606 310.063139 C225.853432 313.364286 223.795022 316.526945 221.867471 318.812346 C216.912698 324.687040 211.668740 330.379240 205.994485 335.544706 C204.477090 336.926054 200.291665 337.190825 198.630227 336.059843 C197.141274 335.046232 196.642190 331.221281 197.165749 328.977140 C197.728249 326.565763 199.807656 324.390593 201.550088 322.396147 C205.413369 317.973967 209.479958 313.729338 213.713662 309.162260 z"/><path class="selected"  fill="#000000" opacity="1.000000" stroke="none" 
 	d="
M245.713662 332.162260 C248.014687 330.861296 250.157021 329.954618 252.096169 328.727018 C255.374917 326.651518 257.698525 328.812162 258.756509 331.024809 C259.583779 332.754850 259.324990 336.320951 258.070351 337.506193 C252.005471 343.235380 245.593850 348.634550 238.978127 353.725676 C236.303933 355.783537 232.906838 355.892668 230.564248 352.499113 C228.519326 349.536833 228.724465 346.769926 231.519326 344.362883 C236.157754 340.368132 240.814553 336.394621 245.713662 332.162260 z"/><path class="selected"  fill="#000000" opacity="1.000000" stroke="none" 
 	d="
M21.463662 386.912260 C25.752511 388.578886 29.802285 389.843718 33.228707 392.068571 C35.168862 393.328398 37.376077 396.308317 37.158150 398.255583 C36.839486 401.103056 34.420937 404.083036 30.598214 402.854887 C22.561044 400.272673 14.470986 397.721769 6.777322 394.312284 C5.173837 393.601713 4.597543 389.192045 4.767342 386.565947 C4.831918 385.567167 8.419320 383.910978 10.242715 384.098051 C13.874398 384.470671 17.396371 385.912199 21.463662 386.912260 z"/><path class="selected"  fill="#000000" opacity="1.000000" stroke="none" 
 	d="
M93.713662 326.662260 C96.689431 332.823149 96.308755 335.403898 91.700478 336.957853 C89.932107 337.554106 86.949807 337.003691 85.545449 335.789946 C80.208657 331.177702 75.250558 326.121244 70.232217 321.148832 C67.458871 318.400785 67.417184 315.375883 70.249123 312.686308 C73.442239 309.653715 76.674081 311.041166 79.398354 313.422819 C84.201394 317.621550 88.787026 322.068998 93.713662 326.662260 z"/><path class="selected"  fill="#000000" opacity="1.000000" stroke="none" 
 	d="
M601.463662 612.912260 C608.808877 612.578886 615.665200 611.865385 622.495156 612.062101 C626.284829 612.171293 630.175088 613.458220 633.711098 614.947599 C634.814370 615.412382 635.836098 618.736601 635.242715 619.930204 C634.387124 621.650969 632.045693 623.704374 630.298623 623.741484 C616.005898 624.044706 601.701699 624.042692 587.406167 623.813688 C584.136697 623.761381 582.537270 621.322722 582.396706 617.827055 C582.242898 614.000212 584.722756 613.141386 587.499795 612.981413 C591.974282 612.723784 596.474404 612.912260 601.463662 612.912260 z"/><path class="selected"  fill="#000000" opacity="1.000000" stroke="none" 
 	d="
M590.713662 515.162260 C594.251992 507.957304 597.550332 501.007048 600.824014 494.045195 C602.394814 490.705046 603.765420 487.261259 605.499429 484.009733 C608.124429 479.087187 612.344277 477.734221 614.957192 481.170805 C616.158974 482.751432 616.425332 485.734892 615.905801 487.773832 C615.083779 490.999296 613.389687 494.042509 611.809243 497.027678 C605.424966 509.087309 600.610390 521.723722 597.456826 535.000822 C595.369546 543.788542 597.871743 546.073820 606.988931 543.955595 C609.930703 543.272123 613.193276 542.508329 615.992593 543.153776 C618.080117 543.635222 620.524941 546.052946 621.173013 548.121611 C621.641030 549.615141 619.861123 553.143950 618.322427 553.715361 C609.489175 556.996183 600.130898 557.115690 591.180154 554.862089 C584.614114 553.209013 581.863564 545.850981 583.780373 539.092314 C586.018166 531.201811 588.236672 523.305815 590.713662 515.162260 z"/><path class="selected"  fill="#000000" opacity="1.000000" stroke="none" 
 	d="
M666.213662 505.162260 C672.552163 508.269255 675.367959 514.674223 673.463662 521.335173 C672.245034 525.597807 666.552041 529.087431 661.237588 528.923857 C656.364541 528.773832 653.317788 525.460539 651.641518 521.801359 C649.038979 516.120329 650.616494 511.301725 655.494790 508.559111 C658.665566 506.776457 662.452676 506.089872 666.213662 505.162260 z"/><path class="selected"  fill="#000000" opacity="1.000000" stroke="none" 
 	d="
M538.463662 521.912260 C538.200845 516.090483 538.895852 511.258635 544.357461 508.489409 C549.530129 505.866728 557.074075 507.833830 559.676369 512.624968 C563.148782 519.018095 561.437905 525.460112 555.350991 528.912199 C548.059975 533.047087 541.999001 530.714262 538.463662 521.912260 z"/></svg>