<?xml version="1.0" encoding="utf-8"?><!DOCTYPE svg PUBLIC "-//W3C//DTD SVG 1.1//EN" "http://www.w3.org/Graphics/SVG/1.1/DTD/svg11.dtd"><svg version="1.1" id="Contours" xmlns="http://www.w3.org/2000/svg" xmlns:xlink="http://www.w3.org/1999/xlink" x="0px" y="0px" width="1028.939819px" height="1028.939819px" viewBox="-0.000013 -0.000000 1028.939819 2038.641113" enable-background="new 0 0 1028.939819 1028.939819" xml:space="preserve" stroke="black" fill="none" stroke-linecap='round' stroke-linejoin='round'><path class="selected"  fill="#000000" opacity="1.000000" stroke="none" 
 	d="
M769.702780 363.241287 C747.310322 346.376712 719.284717 337.130649 691.252884 337.359502 C684.794741 337.412227 678.236976 337.974914 672.207829 340.290033 C665.476505 342.874778 659.642044 347.552007 652.741927 349.644855 C645.841810 351.737702 636.786936 350.062170 634.083700 343.377550 C640.638577 328.749998 657.689892 322.457391 673.158541 318.255902 C680.490727 316.264388 687.931488 314.400039 695.525398 314.155929 C708.458292 313.740196 721.026932 318.022376 733.256346 322.250141 C745.726396 326.561096 758.303126 330.921416 769.592519 337.750476 C780.373947 344.272264 789.759521 352.929648 797.930961 362.521336 C811.321732 378.239511 821.930995 398.148795 819.677666 418.674298 C819.105226 423.888644 816.373091 430.139618 811.127648 430.188894 C804.305020 430.252985 802.738495 420.873323 802.115504 414.078896 C800.225573 393.467004 786.236540 375.693464 769.702780 363.241287 z"/><path class="selected"  fill="#000000" opacity="1.000000" stroke="none" 
 	d="
M275.379629 338.109761 C286.927203 308.048376 318.931293 290.698578 350.305363 283.439023 C365.773153 279.859975 382.815886 278.287511 396.839694 285.730287 C400.868929 287.868700 405.443018 288.680003 409.844383 289.878138 C435.280677 296.802370 456.137708 318.430587 462.134253 344.101416 C463.325771 349.202230 463.833297 355.023244 460.747634 359.256055 C457.661971 363.488867 449.755910 363.931397 447.906186 359.030731 C442.871787 345.692565 437.538278 331.980243 427.629703 321.729784 C411.584043 305.130488 386.554356 300.767688 363.488979 301.761758 C338.966775 302.818615 312.294709 310.595835 299.262048 331.394997 C295.935840 336.703377 293.282156 343.026106 287.693761 345.856726 C282.105367 348.687345 273.133302 343.957549 275.379628 338.109764 z"/><path class="selected"  fill="#000000" opacity="1.000000" stroke="none" 
 	d="
M490.294903 1841.267803 C490.982485 1842.683818 491.670068 1844.099832 492.357650 1845.515847 C493.299851 1847.456224 490.871191 1849.644828 488.733241 1849.358511 C486.595291 1849.072195 484.982633 1847.341845 483.561919 1845.718768 C485.788271 1844.208092 488.014624 1842.697417 490.240976 1841.186741 z"/><path class="selected"  fill="#000000" opacity="1.000000" stroke="none" 
 	d="
M462.355716 1855.320621 C458.535398 1860.057489 460.934223 1867.679873 465.866212 1871.244734 C470.798201 1874.809595 477.289364 1875.270664 483.370760 1875.048474 C487.244642 1874.906938 491.802730 1874.834078 494.152055 1877.917529 C496.492470 1880.989288 495.034207 1885.754474 491.994030 1888.135770 C488.953853 1890.517065 484.882542 1891.057387 481.022920 1891.186063 C478.792540 1891.260421 476.553695 1891.226103 474.339177 1890.950366 C461.725268 1889.379768 450.648221 1879.207901 448.010583 1866.773259 C445.372945 1854.338616 451.366581 1840.545713 462.256620 1833.989454 C464.311531 1832.752311 466.689553 1832.149515 469.065128 1831.818108 C475.882311 1830.867070 482.985135 1832.080732 489.099745 1835.241430 C487.133583 1838.228858 483.097209 1838.803548 479.591595 1839.511495 C476.085982 1840.219441 472.049010 1842.023040 471.619478 1845.573535 C471.067083 1850.139606 465.243100 1851.740515 462.355719 1855.320623 z"/><path class="selected"  fill="#000000" opacity="1.000000" stroke="none" 
 	d="
M345.003665 1585.187999 C361.978590 1591.169398 379.598327 1595.558832 397.542268 1596.951744 C414.394815 1598.259936 431.690972 1596.963782 447.881158 1601.821514 C474.787344 1609.894492 504.277904 1609.090132 530.704030 1599.562504 C537.910480 1596.964302 546.151305 1599.916151 553.473661 1597.665221 C558.830393 1596.018541 562.959474 1591.825268 567.761344 1588.935944 C572.563214 1586.046621 579.309352 1584.697628 583.390753 1588.537981 C586.659873 1591.614029 586.795370 1597.016506 584.752931 1601.013709 C582.710492 1605.010912 578.959183 1607.843826 575.119726 1610.169284 C553.484913 1623.272917 526.854730 1624.115627 501.564851 1624.554066 C476.368131 1624.990892 451.078296 1625.388718 426.056906 1622.389465 C401.419529 1619.436242 377.296086 1613.218470 353.419001 1606.465201 C334.015358 1600.977176 314.383128 1594.970322 297.651555 1583.715358 C293.310259 1580.795063 288.869932 1577.001266 288.171680 1571.815958 C287.473427 1566.630651 293.152926 1560.900348 297.691533 1563.503426 C312.761103 1572.146449 328.618884 1579.414547 345.003665 1585.187999 z"/><path class="selected"  fill="#000000" opacity="1.000000" stroke="none" 
 	d="
M7.065146 1121.152972 C-8.510593 955.182088 1.715614 786.814940 37.264082 623.949214 C70.130144 473.372963 125.591268 325.717528 217.168164 201.753592 C302.675642 86.005572 434.608506 -11.907612 577.919137 1.176576 C714.054114 13.605603 822.789472 122.611290 890.620352 241.296517 C1001.990986 436.164238 1034.730590 667.412907 1028.131429 891.763723 C1023.571623 1046.783180 1000.976525 1202.331820 947.679019 1347.972471 C894.381512 1493.613123 809.336993 1629.305784 691.951358 1730.658811 C644.175397 1771.909498 650.368299 1846.361594 660.636686 1908.640980 C665.541779 1938.391146 698.198973 1953.122915 724.675216 1967.550001 C751.151459 1981.977088 778.159821 2012.141804 763.775122 2038.641101 C748.360586 2016.453313 732.486578 1993.795049 710.407653 1978.224991 C688.328728 1962.654933 658.416873 1955.346521 633.904995 1966.707573 C532.816644 2013.561187 408.553188 2006.498538 313.424638 1948.492722 C291.058990 1934.854990 261.516413 1946.405307 241.366151 1963.143792 C221.215888 1979.882276 204.777581 2001.874322 181.082695 2013.044029 C198.258378 1961.227661 247.285199 1921.485649 301.534186 1915.403911 C313.172453 1849.323581 320.725305 1770.426923 270.755156 1725.649212 C103.119892 1575.433061 28.096782 1345.260410 7.065148 1121.152972 M546.998205 25.918589 C413.786917 25.909090 300.400272 125.279997 225.565309 235.484243 C144.729058 354.526178 93.043588 491.665085 61.920784 632.152992 C23.542728 805.391013 15.679494 985.344577 38.800544 1161.269857 C57.820684 1305.991807 98.532642 1449.764043 175.409354 1573.845387 C239.185368 1676.781807 337.888832 1769.654995 458.575699 1779.552812 C532.748341 1785.635887 607.186719 1758.991335 667.757894 1715.751106 C728.329069 1672.510876 776.170857 1613.583292 816.329116 1550.926298 C940.319132 1357.470659 995.294974 1125.588271 1002.951474 895.936390 C1009.588275 696.869743 981.253504 494.155926 898.333533 313.059665 C865.033767 240.333338 822.373294 170.581525 763.231476 116.727664 C704.089657 62.873803 626.985677 25.924285 546.998222 25.918579 M324.909058 1766.106186 C324.807363 1815.117410 325.143706 1864.129542 325.918033 1913.134754 C325.974849 1916.730491 326.038879 1920.364374 326.920881 1923.850722 C329.357695 1933.482869 337.595543 1940.512811 346.088173 1945.669512 C369.384104 1959.814732 396.994374 1964.601152 423.870917 1969.122116 C432.322737 1970.543814 440.774556 1971.965514 449.226375 1973.387213 C457.347711 1974.753323 465.478480 1976.120669 473.680101 1976.866159 C502.970820 1979.528552 532.334934 1974.217727 561.267025 1968.929187 C581.540159 1965.223429 602.400018 1961.292049 619.727587 1950.134633 C625.047106 1946.709332 629.952902 1942.642163 634.304610 1938.049495 C633.802294 1887.876398 633.299978 1837.703302 632.797663 1787.530206 C632.733795 1781.150858 631.983545 1773.558103 626.385917 1770.497592 C603.067587 1781.863885 578.664635 1791.003732 553.616840 1797.752420 C528.083718 1804.631870 501.720546 1809.037625 475.283503 1808.446062 C446.935752 1807.811744 418.973035 1801.447566 391.981878 1792.759942 C381.208402 1789.292291 370.555218 1785.450924 360.047926 1781.245073 C348.206693 1776.505272 336.556083 1771.304969 324.909058 1766.106187 z"/><path class="selected"  fill="#000000" opacity="1.000000" stroke="none" 
 	d="
M347.881235 950.234223 C329.411963 963.377493 331.821193 991.649475 340.227544 1012.701620 C353.021285 1044.741164 375.209530 1072.963811 403.324185 1092.958270 C403.858949 1100.721903 391.472080 1100.385764 384.864783 1096.274365 C370.778354 1087.509063 358.574890 1075.734140 349.311842 1061.969914 C344.495532 1054.813219 338.083080 1045.987938 329.642830 1047.770433 C296.251063 1054.822473 261.552576 1035.266193 241.678344 1007.521717 C221.804111 979.777240 214.056792 945.288745 208.906775 911.551252 C183.139755 742.752865 212.579964 565.980622 291.663225 414.644333 C301.538316 395.747039 313.865057 375.773307 334.058808 368.929507 C357.591546 360.954101 384.256138 374.711748 398.268989 395.230932 C412.281839 415.750116 416.210593 441.404525 418.049826 466.183833 C420.196012 495.098609 420.001874 524.186763 417.469935 553.070316 C407.582732 665.860379 362.225615 775.661338 370.936313 888.548356 C372.187746 904.766413 376.640894 923.734630 391.725397 929.821437 C428.952053 944.842903 454.977869 978.912332 474.662608 1013.897747 C478.609696 1020.912851 482.485550 1029.135742 479.754186 1036.707454 C477.022821 1044.279167 464.046518 1046.874755 461.517648 1039.233027 C451.483545 1008.912026 432.574041 981.587055 407.733319 961.512573 C390.740230 947.779979 365.682288 937.566477 347.881236 950.234221 M337.937864 455.007134 C333.734480 450.679295 326.436148 450.815648 321.147372 453.718660 C315.858597 456.621672 312.133983 461.660323 308.673935 466.602659 C298.570812 481.033966 289.227565 495.997200 280.695813 511.409688 C269.776821 531.134693 260.200259 551.567781 250.632958 571.982653 C247.589811 578.476173 244.523900 585.035442 242.973919 592.037163 C225.449105 671.201912 213.545151 752.324325 218.634436 833.245742 C220.553915 863.766130 224.888410 894.134316 231.584068 923.972993 C238.607949 955.274367 248.761095 986.976294 269.765827 1011.223193 C271.901871 1013.688944 274.253147 1016.143143 277.301675 1017.304645 C284.424948 1020.018643 292.507973 1014.276651 295.146718 1007.125160 C297.785463 999.973669 296.501045 992.046162 295.184124 984.537998 C287.574661 941.154123 279.965198 897.770249 272.355734 854.386375 C267.563028 827.061693 262.762361 799.672033 260.960583 771.988791 C256.507323 703.567119 270.860934 634.015336 302.037500 572.946698 C317.696593 542.273677 328.337827 509.335432 338.912411 476.560143 C341.239684 469.346900 343.218550 460.444176 337.937861 455.007136 z"/><path class="selected"  fill="#000000" opacity="1.000000" stroke="none" 
 	d="
M711.398520 1058.057582 C707.485854 1064.541340 702.979081 1070.759807 697.242928 1075.703958 C677.269042 1092.920013 645.620861 1090.776607 623.517206 1076.396862 C601.413550 1062.017117 587.399537 1038.012616 577.586934 1013.536884 C555.954309 959.578291 551.169341 900.455787 549.733098 842.340064 C546.914927 728.306416 556.615569 611.754089 600.712229 506.553806 C611.811191 480.075294 625.206385 454.214162 644.023238 432.529499 C650.589702 424.962259 657.902259 417.854242 666.671688 413.008763 C684.512993 403.150691 706.864794 403.815610 725.842244 411.255375 C768.642473 428.034433 793.738694 480.414380 779.996401 524.284023 C760.533047 586.417059 743.662423 649.362220 729.443151 712.900781 C724.521430 734.893404 719.909016 757.008905 717.660702 779.433086 C714.346668 812.486524 716.229126 846.055736 723.217831 878.531427 C736.151863 938.634351 743.162813 1005.420327 711.398524 1058.057581 M565.385672 809.922933 C565.059697 830.207501 565.772235 850.511074 567.608133 870.715020 C569.477616 891.288563 572.509535 911.742141 576.052231 932.094412 C579.621448 952.599044 583.721913 973.058180 589.904676 992.931597 C593.560870 1004.683797 597.940184 1016.210982 603.009614 1027.426277 C605.798796 1033.596891 609.316733 1040.177290 615.597082 1042.709724 C624.527465 1046.310738 634.925577 1039.427693 638.565304 1030.513018 C642.205030 1021.598342 640.900518 1011.520806 639.325114 1002.021482 C633.991158 969.858971 626.216899 938.101461 616.091203 907.111974 C608.869660 885.010587 606.717391 861.594724 605.558631 838.372337 C603.379220 794.695350 604.566544 750.692876 612.099552 707.615239 C620.407004 660.108932 636.347476 614.202425 655.651182 570.007064 C664.077092 550.716149 673.193896 531.597778 678.686027 511.276069 C681.076492 502.431005 682.653516 492.538182 678.309108 484.471238 C673.964701 476.404294 661.344631 472.665712 655.513764 479.733275 C632.374302 507.780513 612.670155 538.988729 600.241831 573.159158 C588.734539 604.797304 583.648972 638.350652 578.864298 671.674771 C572.279254 717.538043 566.130163 763.595314 565.385672 809.922933 z"/><path class="selected"  fill="#000000" opacity="1.000000" stroke="none" 
 	d="
M576.348072 1192.394599 C603.353713 1183.812757 629.072509 1171.374715 656.401053 1163.884502 C709.528970 1149.323189 772.188822 1156.628609 810.485762 1196.225980 C849.222768 1236.278358 853.848994 1301.255060 831.886085 1352.464232 C809.923175 1403.673403 765.739704 1442.463668 717.575064 1470.480022 C598.070079 1539.993550 445.848345 1550.092805 318.207389 1496.976345 C273.613586 1478.419097 231.667304 1452.320874 198.570381 1417.141726 C165.473459 1381.962579 141.574346 1337.322195 135.124094 1289.453907 C130.537411 1255.415451 135.126045 1219.456582 152.411730 1189.777309 C169.697414 1160.098036 200.608730 1137.595752 234.832749 1134.702549 C280.882104 1130.809661 321.923301 1160.572385 363.987554 1179.711249 C430.008336 1209.750129 507.221205 1214.361709 576.348072 1192.394601 M427.578971 1222.366002 C423.410637 1219.844339 418.377036 1219.346188 413.553430 1218.663095 C395.552590 1216.113918 378.042186 1210.144355 362.232774 1201.167104 C352.489863 1195.634666 341.084348 1188.752211 330.928570 1193.484268 C324.587813 1196.438726 320.998073 1203.118185 317.852929 1209.366552 C311.550668 1221.887075 305.285169 1234.426063 299.019682 1246.965028 C286.058742 1272.903440 273.097801 1298.841852 260.136861 1324.780264 C251.216426 1342.632510 242.295992 1360.484756 233.375558 1378.337002 C227.549731 1389.996085 221.694026 1403.934381 227.741416 1415.480097 C230.436746 1420.626036 235.139151 1424.379084 239.780811 1427.872003 C277.738171 1456.435479 320.787339 1478.212110 366.286921 1491.865734 C372.748923 1493.804867 379.417022 1495.598838 386.146323 1495.114869 C392.875623 1494.630900 399.770526 1491.465349 403.060848 1485.575401 C419.542496 1456.071869 405.450332 1417.469243 418.659182 1386.362502 C426.634286 1367.581192 423.818807 1346.221454 425.736528 1325.907364 C428.286869 1298.892022 439.413072 1272.754007 438.077518 1245.651437 C437.640764 1236.788317 435.171602 1226.959218 427.578973 1222.366001 M427.451866 1495.754308 C427.840072 1497.706270 428.346583 1499.726295 429.648854 1501.231270 C431.632255 1503.523398 434.921952 1504.062803 437.932671 1504.413944 C470.386209 1508.199004 503.189571 1507.027896 535.841896 1505.851285 C549.374026 1505.363663 565.496202 1503.297813 571.516770 1491.168960 C573.700199 1486.770272 574.087800 1481.725400 574.365817 1476.822494 C578.670929 1400.900496 565.799455 1325.077357 564.552258 1249.043627 C564.462675 1243.582300 564.389542 1237.920634 562.055109 1232.982564 C559.720676 1228.044493 554.417310 1224.045715 549.053926 1225.079264 C523.973158 1229.912449 498.191940 1231.095155 472.774004 1228.578587 C465.344022 1227.842961 458.444175 1233.405060 455.217047 1240.137921 C451.989918 1246.870782 451.638306 1254.571507 451.343826 1262.032006 C450.648399 1279.650303 449.952972 1297.268600 449.257546 1314.886896 C448.838219 1325.510320 448.332808 1336.489468 443.658241 1346.038363 C436.040987 1361.598385 438.736166 1379.927418 437.881720 1397.230792 C436.243614 1430.404055 420.973209 1463.178615 427.451866 1495.754308 M710.138129 1448.673060 C715.944447 1440.728872 715.188965 1429.926339 714.172733 1420.139067 C710.976435 1389.355747 707.726299 1358.578047 704.476165 1327.800366 C702.547434 1309.535921 700.608724 1291.212009 696.361617 1273.343824 C692.323879 1256.356490 690.295214 1238.892533 690.331380 1221.431962 C690.356044 1209.524551 690.461481 1195.604958 681.028740 1188.337880 C671.617942 1181.087706 658.140518 1184.717306 646.932761 1188.656126 C634.803207 1192.918904 622.673652 1197.181679 610.544098 1201.444455 C599.557006 1205.305726 587.537738 1210.042867 582.318539 1220.453706 C575.473256 1234.108135 583.513394 1250.071768 585.903494 1265.157812 C587.072431 1272.535974 586.840455 1280.053670 586.718789 1287.522865 C585.810540 1343.281330 591.221517 1398.927802 596.626322 1454.431130 C597.629345 1464.731431 598.632368 1475.031732 599.635391 1485.332033 C599.897868 1488.027468 600.344121 1491.058560 602.539712 1492.644009 C604.798251 1494.274911 607.912218 1493.662492 610.605895 1492.951896 C640.532830 1485.057115 669.515547 1473.589501 696.742244 1458.870262 C701.721835 1456.178205 706.797868 1453.243197 710.138129 1448.673060 M167.423819 1334.494837 C174.156649 1346.913957 180.889478 1359.333077 187.622308 1371.752197 C190.316372 1376.721564 193.242085 1381.935750 198.130908 1384.773354 C203.019731 1387.610958 210.457091 1386.850232 212.927871 1381.766155 C218.051509 1371.223340 223.175148 1360.680525 228.298786 1350.137711 C236.624049 1333.006973 244.949311 1315.876236 253.274574 1298.745499 C262.708018 1279.334477 272.141462 1259.923456 281.574906 1240.512435 C289.355367 1224.502725 297.135828 1208.493016 304.916290 1192.483307 C309.112619 1183.848597 304.064384 1172.993194 296.152309 1167.555690 C288.240233 1162.118186 278.293770 1160.786822 268.748616 1159.758512 C237.457751 1156.387511 201.908750 1156.044906 179.310425 1177.949188 C161.821607 1194.900882 157.000469 1220.692822 153.063514 1244.728610 C151.915789 1251.735669 150.764152 1258.806394 151.116925 1265.898057 C151.890269 1281.444270 159.829189 1296.105400 159.658877 1311.669904 C159.569929 1319.798702 163.549392 1327.348223 167.423815 1334.494839 M719.086351 1177.329572 C708.983895 1178.762620 701.298386 1189.671255 703.349115 1199.666641 C710.506684 1234.553041 715.452790 1269.893005 718.147887 1305.403963 C718.461875 1309.541112 720.482784 1313.318893 722.013456 1317.175269 C727.940615 1332.108133 726.638608 1348.755691 727.441282 1364.801793 C728.320416 1382.376371 731.852407 1399.815887 737.880754 1416.347606 C738.863365 1419.042250 740.135079 1421.960537 742.737395 1423.166599 C746.694514 1425.000553 751.081344 1421.904488 754.288699 1418.948976 C770.879044 1403.661317 785.981762 1386.760055 799.314362 1368.561325 C803.117188 1363.370546 806.794262 1358.043986 809.547003 1352.227794 C816.063289 1338.459713 817.041522 1322.815857 817.912715 1307.608522 C818.537409 1296.704005 819.162104 1285.799489 819.786799 1274.894973 C822.114781 1234.258288 792.162043 1194.128306 752.541702 1184.801557 C741.397453 1182.178166 729.660599 1181.718390 719.086351 1177.329573 z"/></svg>