<?xml version="1.0" encoding="utf-8"?><!DOCTYPE svg PUBLIC "-//W3C//DTD SVG 1.1//EN" "http://www.w3.org/Graphics/SVG/1.1/DTD/svg11.dtd"><svg version="1.1" id="Contours" xmlns="http://www.w3.org/2000/svg" xmlns:xlink="http://www.w3.org/1999/xlink" x="0px" y="0px" width="1694.763550px" height="1694.763550px" viewBox="-0.000001 -0.000000 1694.763550 2021.646240" enable-background="new 0 0 1694.763550 1694.763550" xml:space="preserve" stroke="black" fill="none" stroke-linecap='round' stroke-linejoin='round'><path class="selected"  fill="#000000" opacity="1.000000" stroke="none" 
 	d="
M1337.683879 318.807209 C1338.589187 323.657554 1339.392995 328.678271 1338.293260 333.488262 C1337.193526 338.298252 1333.739407 342.893888 1328.903189 343.871856 C1319.863624 345.699818 1313.764190 335.383462 1308.926954 327.531309 C1298.861836 311.192870 1282.380229 299.603384 1264.715649 292.105807 C1247.051069 284.608231 1228.071918 280.830837 1209.248129 277.100418 C1201.680895 275.600776 1194.022318 274.093856 1186.316896 274.465898 C1178.878676 274.825037 1171.596718 276.929510 1164.152999 277.146593 C1156.709279 277.363675 1148.540074 275.202964 1144.329330 269.060836 C1140.118587 262.918708 1142.610527 252.477024 1149.919328 251.049609 C1184.090857 244.375884 1219.832440 245.887877 1253.318247 255.423740 C1278.156281 262.496948 1301.904147 274.051317 1321.653478 290.692297 C1325.939638 294.303857 1330.099761 298.232829 1332.830931 303.127239 C1335.509306 307.927038 1336.675379 313.403998 1337.683879 318.807209 z"/><path class="selected"  fill="#000000" opacity="1.000000" stroke="none" 
 	d="
M586.787930 266.297530 C581.500474 272.313830 571.797648 271.674868 564.456296 268.472118 C557.114943 265.269368 550.619473 260.048238 542.851791 258.094732 C535.244837 256.181648 527.219791 257.610950 519.603425 259.486210 C473.641020 270.802821 431.959822 298.741417 404.027055 336.956189 C399.164797 343.608235 387.302892 338.544152 385.443146 330.517160 C383.583401 322.490167 388.119349 314.466813 392.884635 307.744959 C423.839051 264.081036 473.241340 233.958386 526.233214 226.436730 C540.101734 224.468235 554.069518 228.770554 567.077701 233.966515 C573.988371 236.726901 581.070909 239.963932 585.715625 245.778026 C590.360341 251.592121 591.700440 260.707860 586.787935 266.297526 z"/><path class="selected"  fill="#000000" opacity="1.000000" stroke="none" 
 	d="
M895.809948 1559.475660 C919.761898 1560.184843 943.485187 1555.170072 966.821469 1549.727940 C976.139578 1547.554913 983.417572 1540.430631 992.022910 1536.247646 C1000.628248 1532.064660 1013.255221 1532.227075 1017.363358 1540.868395 C1020.914045 1548.337140 1015.727272 1557.035721 1009.763498 1562.764849 C990.738357 1581.041442 963.197877 1587.093496 936.948064 1589.727344 C889.441237 1594.494072 841.073435 1590.542444 794.970316 1578.127825 C770.653186 1571.579723 746.605397 1562.502441 726.469575 1547.377987 C720.875433 1543.176107 715.479659 1538.357235 712.385387 1532.082229 C709.291115 1525.807222 708.927293 1517.782573 713.049500 1512.129465 C717.171706 1506.476357 726.353813 1504.667300 731.390535 1509.523395 C743.304801 1521.010394 758.000423 1529.592200 773.859515 1534.324014 C781.542419 1536.616331 789.752985 1538.144060 796.119309 1543.017627 C799.663927 1545.731114 804.272403 1546.519637 808.680365 1547.224753 C824.895369 1549.818557 841.110372 1552.412365 857.325375 1555.006174 C870.087103 1557.047584 882.891637 1559.093168 895.809948 1559.475661 z"/><path class="selected"  fill="#000000" opacity="1.000000" stroke="none" 
 	d="
M803.526590 1777.095763 C808.569224 1773.450112 811.778758 1767.574010 817.133757 1764.404956 C824.818210 1759.857346 834.564382 1762.065444 843.137808 1764.561028 C847.467926 1765.821454 852.792564 1768.638366 851.988054 1773.075862 C851.681992 1774.764037 850.461514 1776.504429 851.239151 1778.033771 C852.573886 1780.658719 849.558906 1783.733579 846.615429 1783.821966 C843.671952 1783.910353 841.021217 1782.218183 838.345847 1780.987629 C835.670476 1779.757075 832.286781 1779.032329 829.956513 1780.832806 C828.428154 1782.013690 827.777722 1783.969198 827.019923 1785.745741 C824.494335 1791.666598 819.901595 1796.681788 814.225254 1799.717292 C817.867429 1799.652610 820.648985 1802.958166 822.253034 1806.228739 C823.857083 1809.499313 824.998290 1813.207917 827.815445 1815.517303 C833.352881 1820.056664 841.626533 1816.757458 848.715026 1817.768526 C854.848726 1818.643406 860.304160 1823.218348 862.234290 1829.105817 C858.511323 1835.276978 851.394501 1838.800788 844.252736 1839.769751 C837.110972 1840.738714 829.865788 1839.477090 822.820366 1837.958632 C818.356689 1836.996603 813.597350 1835.741289 810.654073 1832.250296 C807.340588 1828.320201 806.960343 1822.231292 802.888002 1819.094276 C796.454746 1814.138594 792.553691 1806.054657 792.677152 1797.934908 C792.800612 1789.815159 796.945641 1781.853563 803.526590 1777.095763 z"/><path class="selected"  fill="#000000" opacity="1.000000" stroke="none" 
 	d="
M1009.628536 874.425106 C991.989731 812.462187 982.659905 748.139594 981.967065 683.718706 C981.859569 673.723686 982.691386 662.200168 990.737800 656.269973 C994.821012 653.260652 1000.030154 652.341300 1005.033308 651.506390 C1042.545233 645.246518 1080.057158 638.986646 1117.569083 632.726775 C1087.261764 596.982290 1039.522678 581.463485 1003.460486 551.534903 C998.688687 547.574712 993.915036 543.033152 992.257029 537.057854 C990.142417 529.436990 993.569413 521.487782 996.988462 514.356215 C1019.576963 467.240371 1046.419739 420.310906 1087.758679 388.354137 C1129.097619 356.397368 1188.068086 342.466487 1234.596758 366.240962 C1248.931248 373.565367 1261.402418 383.998354 1273.737961 394.340449 C1286.330293 404.897837 1298.986138 415.517568 1309.678159 427.995786 C1321.147871 441.381615 1330.162803 456.683492 1338.368702 472.284707 C1409.128806 606.815194 1421.664246 766.985151 1393.552796 916.367849 C1393.134378 918.591301 1392.691153 920.858399 1391.576105 922.827023 C1387.882998 929.347222 1378.167647 929.907798 1371.634676 926.237333 C1365.101705 922.566867 1360.817513 916.025563 1356.169734 910.147622 C1322.188894 867.172784 1262.711433 854.673223 1208.030470 851.278166 C1152.947409 847.858143 1093.627924 852.035350 1049.673536 885.409771 C1042.165965 891.110245 1033.422112 898.007139 1024.388967 895.312457 C1015.844505 892.763552 1012.069795 883.000945 1009.628535 874.425107 z"/><path class="selected"  fill="#000000" opacity="1.000000" stroke="none" 
 	d="
M799.996027 814.960635 C795.879881 820.466264 792.892996 826.889022 787.871817 831.583954 C782.850639 836.278885 774.686476 838.753423 769.124756 834.713388 C761.748862 829.355534 764.340706 817.782214 768.649367 809.748174 C781.107582 786.518265 801.949133 767.900525 826.431718 758.131247 C843.972548 751.131935 863.505833 748.632385 881.997725 752.469182 C900.489617 756.305978 917.801442 766.724400 928.695767 782.151155 C937.425956 794.513415 941.829215 809.708502 942.001447 824.841644 C942.074197 831.233839 941.418519 837.628488 940.152555 843.894489 C937.199888 858.508988 930.883353 872.433287 921.831804 884.281128 C913.965517 894.577545 904.168299 903.209778 894.430415 911.757777 C888.553779 916.916339 882.391267 922.226318 874.844113 924.272307 C867.296959 926.318296 857.959534 924.028585 854.409831 917.061145 C851.163699 910.689562 853.798803 902.677106 858.468711 897.261720 C863.138618 891.846334 869.516876 888.263240 875.265321 884.010026 C888.721211 874.054160 899.051697 859.935585 904.468867 844.097830 C908.329621 832.810439 909.607624 819.965415 904.430088 809.218148 C898.812246 797.556916 886.770474 790.489253 874.926391 785.267933 C871.320426 783.678287 867.621018 782.180399 863.719452 781.625666 C853.994444 780.242942 844.519029 784.813104 835.761229 789.261548 C822.549508 795.972320 808.869000 803.092426 799.996028 814.960636 z"/><path class="selected"  fill="#000000" opacity="1.000000" stroke="none" 
 	d="
M471.184368 634.410194 C451.287223 615.493023 427.925626 600.676894 404.730245 585.989144 C386.638768 574.533282 368.547292 563.077420 350.455815 551.621559 C343.450953 547.185949 346.723170 536.410597 350.913770 529.256466 C375.314698 487.599610 405.461149 449.313511 440.232038 415.821959 C477.193671 380.220269 524.559423 348.516153 575.643590 353.420302 C613.452336 357.049993 647.227874 380.924333 669.838749 411.443578 C692.449624 441.962823 705.155368 478.666382 714.433489 515.498331 C736.398925 602.695921 740.836007 694.270982 727.403636 783.183700 C723.104836 811.638685 720.585578 840.362394 719.865468 869.131254 C719.653948 877.581638 719.489896 886.451394 715.309859 893.798572 C711.129823 901.145750 701.414716 906.107403 693.982566 902.080385 C642.395914 874.128801 585.612341 853.471188 526.959113 851.963711 C468.305884 850.456235 407.539192 869.868403 367.017567 912.300368 C359.157208 920.531293 348.940166 930.470372 338.252375 926.558275 C327.778983 922.724654 326.150751 908.835507 326.292238 897.683441 C327.255881 821.728803 328.219524 745.774166 329.183167 669.819529 C329.239272 665.397355 329.313291 660.873997 330.846539 656.725754 C336.115022 642.471738 354.623667 639.520009 369.805595 638.854460 C403.598519 637.373039 437.391443 635.891616 471.184368 634.410194 z"/><path class="selected"  fill="#000000" opacity="1.000000" stroke="none" 
 	d="
M548.915028 1925.889186 C520.940510 1947.338557 492.965992 1968.787928 464.991474 1990.237300 C489.121924 1923.649172 550.829170 1872.155442 620.661099 1860.333446 C619.953798 1793.870103 619.246496 1727.406761 618.539194 1660.943418 C306.234128 1573.425343 57.413675 1291.959261 8.863687 971.277540 C-39.686300 650.595818 114.667300 308.090724 387.070577 132.050040 C659.473853 -43.990645 1035.152935 -44.019302 1307.583065 131.979821 C1580.013196 307.978945 1734.419049 650.460486 1685.917986 971.149611 C1637.416924 1291.838735 1388.639415 1573.342775 1076.347705 1660.908496 C1063.939250 1664.387792 1061.610008 1680.705428 1061.698486 1693.592143 C1062.061491 1746.459330 1062.424487 1799.326513 1062.787482 1852.193697 C1063.057603 1891.534409 1107.487004 1912.447239 1142.596736 1930.197488 C1177.706468 1947.947737 1213.726092 1990.228591 1190.047074 2021.646240 C1171.368781 1994.202289 1152.110483 1966.156368 1125.049878 1946.926892 C1097.989273 1927.697416 1061.054242 1918.812650 1031.138830 1933.204218 C903.238931 1994.733709 743.497822 1984.298080 624.690066 1906.651577 C601.335838 1891.388481 571.055391 1908.913122 548.915016 1925.889160 M697.587925 1632.221669 C749.465183 1642.092418 802.319424 1646.821318 855.124981 1646.316602 C1166.337608 1643.342030 1466.710060 1441.447844 1586.984131 1154.400295 C1707.258203 867.352747 1640.525307 511.639952 1424.389060 287.704090 C1208.252813 63.768229 855.128158 -15.527740 563.998875 94.499019 C272.869592 204.525779 60.458252 497.555291 46.457464 808.467055 C32.456675 1119.378820 217.670649 1430.313952 497.732340 1566.062234 C561.062031 1596.758673 628.451285 1619.066957 697.587923 1632.221668 M725.760346 1924.335307 C734.844863 1926.118185 744.252752 1927.258202 752.487172 1931.489212 C763.995112 1937.402221 777.374602 1938.161991 790.303584 1938.649620 C833.229843 1940.268627 876.220743 1940.172989 919.139374 1938.363012 C929.712210 1937.917131 940.716382 1937.246639 949.935654 1932.051574 C961.442360 1925.567539 975.411767 1925.703974 988.101305 1922.040286 C997.360919 1919.366877 1005.889285 1914.677069 1014.329598 1910.024255 C1019.440551 1907.206787 1024.793091 1904.160130 1027.747907 1899.127334 C1030.690177 1894.115906 1030.754888 1887.986140 1030.737855 1882.174852 C1030.542981 1815.689555 1030.348109 1749.204259 1030.153237 1682.718962 C1030.147724 1680.837934 1030.098425 1678.816448 1028.988019 1677.298129 C1027.529467 1675.303771 1024.768100 1674.859158 1022.299317 1674.759451 C1004.818858 1674.053460 988.371526 1682.337706 971.256745 1685.963878 C961.523168 1688.026167 951.540507 1688.578303 941.601926 1689.047529 C878.850188 1692.010199 815.953862 1691.908351 753.212049 1688.742469 C740.985156 1688.125514 728.623151 1687.367677 716.926709 1683.752323 C698.474035 1678.048628 679.372820 1674.445973 660.110266 1673.036249 C656.195043 1672.749712 651.686804 1672.784285 649.096238 1675.733869 C646.993263 1678.128297 646.913917 1681.631665 646.945848 1684.818319 C647.575719 1747.673402 648.205585 1810.528485 648.835451 1873.383568 C648.986729 1888.479743 662.778950 1899.637699 676.112466 1906.718287 C691.677740 1914.984015 708.466398 1920.941292 725.760346 1924.335307 z"/><path class="selected"  fill="#000000" opacity="1.000000" stroke="none" 
 	d="
M455.693068 971.793117 C473.861304 968.588417 493.009326 965.454313 510.382462 971.661492 C589.880452 1000.065019 668.595607 1031.623258 750.883184 1050.476517 C833.170760 1069.329776 920.329526 1075.007457 1001.402249 1051.472288 C1046.068115 1038.505921 1087.719688 1017.063584 1130.706572 999.307062 C1173.693456 981.550539 1219.428947 967.256209 1265.868553 969.811453 C1312.308160 972.366696 1359.800823 994.477569 1382.638142 1034.994518 C1402.219950 1069.735684 1401.200377 1113.281902 1388.013410 1150.918316 C1374.826443 1188.554730 1350.671198 1221.289274 1325.227996 1251.998218 C1235.244314 1360.604986 1090.402298 1409.563072 949.929508 1422.207766 C758.725123 1439.419079 555.943285 1394.087639 411.162968 1268.016207 C372.676140 1234.502753 337.754680 1194.064143 323.587648 1145.036778 C309.420616 1096.009413 320.359079 1037.198171 360.339036 1005.480820 C387.038663 984.299172 422.129952 977.713323 455.693066 971.793116 M1098.137852 1329.065789 C1092.933643 1318.371224 1090.850336 1306.481272 1088.402972 1294.842203 C1085.673428 1281.861148 1082.426379 1268.995407 1079.180288 1256.133793 C1074.117328 1236.073404 1069.054368 1216.013014 1063.991407 1195.952624 C1056.494475 1166.248384 1048.997542 1136.544143 1041.500609 1106.839902 C1040.774608 1103.963348 1040.035045 1101.051563 1038.613573 1098.447516 C1031.797353 1085.960633 1014.070676 1086.238578 999.982508 1088.215097 C969.079706 1092.550658 938.176904 1096.886215 907.274101 1101.221772 C895.548490 1102.866834 882.399811 1105.368310 875.849196 1115.231659 C872.083185 1120.902193 871.293621 1128.001432 871.016253 1134.802966 C869.376430 1175.014071 881.870263 1214.414503 884.995978 1254.537462 C885.974849 1267.102650 886.032210 1279.719018 886.509909 1292.313220 C887.428901 1316.541829 889.906942 1340.711193 893.923617 1364.622202 C894.915269 1370.525441 896.057431 1376.566380 899.182170 1381.672025 C902.306910 1386.777669 907.871811 1390.817324 913.845778 1390.438738 C937.375507 1388.947595 960.905235 1387.456453 984.434964 1385.965311 C994.565638 1385.323303 1004.801676 1384.662920 1014.520152 1381.731374 C1020.437161 1379.946528 1026.080725 1377.341986 1031.991330 1375.536043 C1041.992193 1372.480351 1052.535977 1371.771514 1062.822401 1369.888966 C1073.108825 1368.006419 1083.574122 1364.712585 1091.177472 1357.533199 C1098.780821 1350.353813 1102.713579 1338.468833 1098.137853 1329.065790 M844.303711 1150.410142 C841.690936 1130.638075 836.450287 1108.584026 819.318582 1098.372958 C800.717993 1087.286391 776.502947 1095.148383 755.625985 1089.399794 C745.977017 1086.742900 736.833313 1081.133392 726.835620 1081.589263 C715.542022 1082.104224 705.836859 1090.562529 700.607004 1100.585460 C695.377149 1110.608392 693.799580 1122.075196 692.302359 1133.280947 C686.431540 1177.220301 680.560721 1221.159655 674.689902 1265.099009 C673.421413 1274.592841 672.141028 1284.141348 669.275752 1293.280937 C663.026740 1313.213881 661.335443 1334.560928 664.367674 1355.229212 C664.743273 1357.789344 665.246722 1360.467164 666.893385 1362.463122 C668.826095 1364.805800 671.936902 1365.749003 674.865005 1366.555055 C727.937453 1381.164893 782.795102 1389.605431 837.838078 1390.240172 C840.443761 1390.270220 843.173850 1390.253808 845.473289 1389.027811 C849.078506 1387.105609 850.618765 1382.807445 851.577071 1378.835782 C855.385765 1363.050793 854.824724 1346.583297 854.241077 1330.355809 C853.386226 1306.587945 852.531377 1282.820081 851.676527 1259.052218 C850.371351 1222.763665 849.060799 1186.409206 844.303710 1150.410142 M670.413749 1091.038083 C668.319950 1082.761561 662.123693 1076.246007 656.161199 1070.135894 C652.039166 1065.911811 647.902857 1061.674775 643.276006 1058.010587 C630.119898 1047.591738 613.727296 1042.326548 597.726733 1037.265170 C589.687222 1034.722072 581.641683 1032.177258 573.462171 1030.128680 C567.183982 1028.556295 560.578954 1027.278931 554.287689 1028.798151 C545.291021 1030.970673 538.463368 1038.596285 534.568042 1046.991898 C530.672716 1055.387511 529.179623 1064.654556 527.091921 1073.671284 C523.381383 1089.696997 517.701597 1105.198173 511.583875 1120.467916 C502.325377 1143.576983 492.035314 1166.256551 481.749198 1188.926898 C472.486318 1209.342059 463.223438 1229.757221 453.960558 1250.172383 C451.653250 1255.257632 456.304586 1260.637732 460.594647 1264.212478 C474.641000 1275.916767 489.487486 1286.660649 504.996124 1296.344271 C534.007482 1314.459016 565.240669 1328.807765 597.189135 1341.018352 C602.342261 1342.987859 607.707240 1344.933326 613.213056 1344.587410 C618.718872 1344.241495 624.430377 1340.981054 625.884941 1335.659596 C632.288735 1312.231555 638.722263 1288.638553 640.686804 1264.430661 C641.707941 1251.847782 641.522708 1239.098943 644.181967 1226.757958 C646.569028 1215.680175 651.196912 1205.191588 653.737442 1194.147991 C658.610220 1172.966194 655.674782 1150.370290 662.154508 1129.623588 C666.138879 1116.866480 673.691534 1103.994749 670.413751 1091.038084 M1080.026636 1132.281891 C1085.314228 1158.350834 1092.366721 1184.024152 1099.413468 1209.673553 C1103.190976 1223.423278 1106.968485 1237.173003 1110.745993 1250.922728 C1112.485952 1257.255993 1114.232072 1263.607495 1116.724230 1269.684242 C1118.610166 1274.282809 1120.922313 1278.722092 1122.352501 1283.482149 C1125.578092 1294.217805 1124.115242 1305.818288 1126.309187 1316.811256 C1128.503132 1327.804224 1136.709304 1339.325525 1147.907165 1338.809146 C1151.821755 1338.628623 1155.500796 1336.978725 1159.047295 1335.311725 C1195.746649 1318.061530 1230.155235 1295.945446 1261.088760 1269.724676 C1265.132281 1266.297190 1269.135617 1262.780797 1272.525307 1258.705541 C1285.421806 1243.200719 1287.730002 1219.712735 1278.098424 1201.994048 C1252.298187 1154.530766 1226.497950 1107.067484 1200.697713 1059.604202 C1195.435612 1049.923802 1189.725454 1039.769959 1180.201904 1034.229035 C1168.221883 1027.258904 1152.997389 1029.288837 1139.955542 1033.980729 C1126.913694 1038.672621 1114.691597 1045.796716 1101.150791 1048.754789 C1091.659863 1050.828141 1084.327087 1058.214352 1078.056072 1065.633978 C1071.148440 1073.806826 1064.429250 1084.044268 1066.937000 1094.447249 C1068.011222 1098.903483 1070.685093 1102.773203 1072.727680 1106.876838 C1076.666103 1114.789278 1078.269706 1123.619843 1080.026641 1132.281890 M410.774662 1017.383504 C387.330389 1023.067848 370.491817 1043.184063 356.705308 1062.979968 C353.805874 1067.143233 350.923460 1071.424013 349.407260 1076.265565 C347.492379 1082.380188 347.887262 1088.960797 348.612849 1095.327027 C353.904290 1141.753534 376.397914 1186.021400 410.777209 1217.667631 C415.502159 1222.016960 423.005121 1217.740090 427.555457 1213.208398 C433.897419 1206.892413 439.604560 1199.931802 444.469946 1192.419136 C452.174661 1180.522253 457.698705 1167.372621 463.181392 1154.302098 C465.326476 1149.188293 467.471560 1144.074488 469.616645 1138.960683 C480.418595 1113.209228 491.220544 1087.457773 502.022494 1061.706318 C508.531249 1046.189682 514.511130 1026.681991 503.491772 1013.965717 C496.023444 1005.347301 483.171092 1003.563598 471.902726 1005.317726 C460.634360 1007.071854 449.985037 1011.701586 438.756257 1013.693452 C429.486122 1015.337876 419.924407 1015.165040 410.774662 1017.383505 M1331.018055 1026.712322 C1302.000612 1004.411073 1261.834488 997.454937 1227.007471 1008.699337 C1222.816185 1010.052553 1218.424102 1011.868519 1216.037657 1015.570268 C1211.837991 1022.084612 1215.780313 1030.597437 1219.711347 1037.277320 C1248.504917 1086.205274 1277.298482 1135.133230 1306.092046 1184.061187 C1309.871814 1190.484020 1317.103893 1197.884104 1323.398594 1193.894597 C1325.335675 1192.666900 1326.536098 1190.585605 1327.640169 1188.575492 C1342.515523 1161.492830 1353.683150 1132.376877 1360.734340 1102.293203 C1363.350554 1091.131209 1365.398067 1079.433351 1362.751878 1068.278425 C1360.070089 1056.973426 1352.796180 1047.294788 1344.697752 1038.963494 C1340.427456 1034.570407 1335.875714 1030.445657 1331.018056 1026.712322 z"/></svg>