<?xml version="1.0" encoding="utf-8"?><!DOCTYPE svg PUBLIC "-//W3C//DTD SVG 1.1//EN" "http://www.w3.org/Graphics/SVG/1.1/DTD/svg11.dtd"><svg version="1.1" id="Contours" xmlns="http://www.w3.org/2000/svg" xmlns:xlink="http://www.w3.org/1999/xlink" x="0px" y="0px" width="2038.276123px" height="2038.276123px" viewBox="-0.000000 0.000000 2038.276123 2038.000000" enable-background="new 0 0 2038.276123 2038.276123" xml:space="preserve" stroke="black" fill="none" stroke-linecap='round' stroke-linejoin='round'><path class="selected"  fill="#000000" opacity="1.000000" stroke="none" 
 	d="
M1085.850181 522.481865 C1098.530780 565.123779 1103.370527 610.083920 1100.055677 654.447668 C946.692815 582.689173 780.864826 537.665093 612.269685 522.008535 C560.973031 517.244880 508.356139 515.291452 458.802360 529.379107 C480.667612 481.078544 507.535704 435.044482 538.837682 392.251727 C546.183843 382.208822 554.061556 372.084897 564.831624 365.853393 C574.442801 360.292419 585.644511 358.254018 596.638734 356.696398 C681.475880 344.676991 768.133305 355.999762 851.370972 376.329500 C907.730439 390.094579 963.415057 408.120398 1014.527746 435.567800 C1031.094646 444.464184 1047.436333 454.576959 1059.629640 468.892374 C1072.620700 484.144381 1080.139523 503.278224 1085.850187 522.481860 z"/><path class="selected"  fill="#000000" opacity="1.000000" stroke="none" 
 	d="
M119.471904 1665.830568 C178.785867 1611.657395 210.526858 1533.746698 231.719586 1456.262847 C247.868188 1503.394575 271.089815 1548.095998 300.366653 1588.407831 C309.891616 1601.522932 306.915791 1619.710168 302.196570 1635.216932 C289.091624 1678.278086 265.590873 1718.136076 234.254932 1750.448012 C231.729137 1753.052477 228.657548 1755.803656 225.040865 1755.516466 C222.488483 1755.313785 220.335874 1753.617915 218.355892 1751.994523 C186.194336 1725.625150 154.032778 1699.255780 121.871221 1672.886409 C119.676650 1671.087073 117.376444 1667.744414 119.471903 1665.830568 z"/><path class="selected"  fill="#000000" opacity="1.000000" stroke="none" 
 	d="
M1010.474947 413.254542 C901.733730 361.752818 781.691766 334.277272 661.374590 333.351462 C635.267762 333.150576 608.798767 334.238075 583.826640 341.853829 C601.673352 306.632949 646.532040 294.745671 686.009751 295.470888 C725.487461 296.196105 765.484729 305.572279 804.023592 296.983239 C827.186286 291.821047 848.972593 280.286270 872.647718 278.659278 C899.385636 276.821806 926.394218 287.832959 952.632935 282.371982 C987.784102 275.056095 1010.754360 240.158599 1019.955574 205.453204 C1028.187297 174.404554 1032.997467 135.562777 1062.787455 123.548767 C1084.201860 114.912549 1109.849282 126.543138 1123.080996 145.466211 C1136.312711 164.389285 1139.334069 188.667444 1138.520844 211.743398 C1136.675654 264.102262 1116.609435 315.644539 1082.566478 355.468306 C1075.928622 363.233332 1070.855978 378.483291 1080.857440 380.563560 C1091.826189 382.845026 1095.750814 361.076180 1106.862196 362.509973 C1105.945681 381.873823 1107.832516 401.368155 1112.445646 420.196795 C1113.773734 425.617436 1115.775970 431.561191 1120.724155 434.142401 C1125.672339 436.723612 1133.523154 432.394570 1131.704480 427.118246 C1118.676950 389.322913 1121.133513 346.441685 1138.392056 310.381371 C1149.752350 286.644958 1168.124787 265.316424 1192.473991 255.336955 C1216.823196 245.357486 1247.428349 248.729179 1265.898851 267.472554 C1297.197623 299.233712 1287.248528 362.608722 1327.006751 382.799508 C1347.620895 393.268186 1372.267793 386.300342 1394.870361 381.436171 C1417.472929 376.571999 1444.867397 375.609666 1459.589736 393.436303 C1471.291370 407.605305 1491.525495 411.487367 1509.877517 410.542855 C1528.229538 409.598344 1546.360282 404.808299 1564.721066 405.563571 C1595.116503 406.813890 1624.353765 424.406456 1639.694478 450.676371 C1551.725112 422.674919 1457.164314 420.512051 1365.540881 431.818556 C1273.917447 443.125060 1184.482963 467.506499 1095.421840 491.813021 C1084.273062 453.615127 1046.437086 430.286833 1010.474948 413.254540 z"/><path class="selected"  fill="#000000" opacity="1.000000" stroke="none" 
 	d="
M1639.025803 460.772275 C1646.087766 493.990331 1650.428804 527.786427 1651.991161 561.710896 C1628.865060 557.228568 1605.159033 556.848904 1581.602553 556.840458 C1426.305594 556.784780 1271.007159 572.276011 1118.781264 603.007513 C1117.290035 572.791603 1111.604552 542.785605 1101.938751 514.118599 C1100.571369 510.063194 1105.739860 507.078009 1109.859257 505.917578 C1244.230782 468.065300 1382.938925 437.326848 1522.284377 445.773504 C1547.345063 447.292599 1572.568936 450.129745 1596.333182 458.229513 C1610.397725 463.023249 1626.903042 469.364716 1639.025804 460.772283 z"/><path class="selected"  fill="#000000" opacity="1.000000" stroke="none" 
 	d="
M1627.652690 1314.761895 C1626.729369 1306.829983 1612.932838 1305.946150 1611.828219 1298.037449 C1611.474262 1295.503266 1612.645499 1293.030886 1613.803893 1290.749332 C1626.715489 1265.318883 1642.056904 1241.122808 1659.551150 1218.597970 C1677.304104 1195.740031 1697.774562 1174.216125 1723.376628 1160.718460 C1734.566650 1154.818969 1747.240498 1150.470121 1759.735685 1152.442651 C1773.090632 1154.550904 1784.567002 1163.796309 1791.878670 1175.169032 C1799.190339 1186.541755 1802.796983 1199.899131 1805.117106 1213.218904 C1815.806782 1274.588095 1801.176832 1337.369913 1783.830505 1397.199267 C1782.878737 1400.482022 1781.764289 1403.993121 1779.035229 1406.050930 C1776.914655 1407.649919 1774.164214 1408.093433 1771.529866 1408.430791 C1753.488434 1410.741198 1735.107398 1410.382016 1717.170000 1407.368548 C1735.349269 1389.443966 1746.109009 1365.089144 1751.703774 1340.179807 C1757.298540 1315.270470 1758.097772 1289.568602 1758.874630 1264.050511 C1759.023152 1259.171895 1758.407643 1253.072381 1753.843817 1251.341936 C1750.344589 1250.015149 1746.317021 1252.381875 1744.491000 1255.648465 C1742.664980 1258.915055 1742.486872 1262.815774 1742.342423 1266.555306 C1741.069522 1299.508512 1738.863602 1333.278795 1725.421062 1363.392450 C1711.978523 1393.506104 1684.908106 1419.628899 1652.083852 1422.807329 C1649.815901 1423.026939 1647.273119 1423.051163 1645.573860 1421.533154 C1643.576085 1419.748468 1643.586088 1416.605907 1642.126115 1414.359869 C1638.123580 1408.202317 1628.894232 1413.024653 1622.281312 1416.219183 C1612.104410 1421.135381 1600.172479 1420.507048 1589.001296 1418.791530 C1549.348692 1412.702224 1511.741667 1393.935508 1483.034737 1365.911931 C1481.554746 1364.467170 1480.017231 1362.840756 1479.755932 1360.789066 C1479.487993 1358.685236 1480.629147 1356.687111 1481.728119 1354.873234 C1496.615255 1330.301708 1511.502391 1305.730183 1526.389526 1281.158657 C1528.983129 1276.877861 1533.888056 1271.968576 1538.095074 1274.680215 C1560.494035 1289.117491 1582.892996 1303.554767 1605.291957 1317.992042 C1609.291989 1320.570268 1613.579408 1323.238531 1618.338206 1323.275323 C1623.097003 1323.312115 1628.202941 1319.488916 1627.652688 1314.761895 z"/><path class="selected"  fill="#000000" opacity="1.000000" stroke="none" 
 	d="
M465.186627 1869.881493 C462.678023 1857.707750 462.027894 1845.152810 463.265676 1832.785069 C490.377414 1859.956500 525.333747 1879.209139 562.789603 1887.599120 C534.162167 1891.572253 505.199848 1878.357585 476.584067 1882.413807 C468.611412 1883.543913 460.894968 1885.993678 453.061794 1887.859621 C406.202507 1899.021991 357.200008 1889.041092 310.075718 1879.056478 C323.569114 1868.855752 328.008543 1849.523118 323.573361 1833.199647 C319.138180 1816.876176 307.212152 1803.434630 293.429855 1793.627754 C279.647557 1783.820878 263.936722 1777.154407 248.583311 1770.055159 C246.053058 1768.885197 243.114340 1765.902253 245.062911 1763.908748 C282.361348 1725.750356 309.854607 1678.085568 324.209441 1626.693208 C346.204668 1659.731188 364.491205 1695.236270 378.615605 1732.328040 C382.209283 1741.765317 385.550061 1751.364143 387.204726 1761.326011 C388.634850 1769.936033 388.786248 1778.700641 388.934332 1787.427370 C389.402455 1815.014317 389.870579 1842.601265 390.338702 1870.188212 C390.412072 1874.511964 390.729145 1879.385177 394.001279 1882.212430 C396.728236 1884.568630 400.661077 1884.728522 404.264721 1884.769999 C416.543033 1884.911315 428.821345 1885.052633 441.099658 1885.193950 C446.596185 1885.257212 452.306269 1885.276953 457.291530 1882.961139 C462.276790 1880.645326 466.296044 1875.265265 465.186627 1869.881493 z"/><path class="selected"  fill="#000000" opacity="1.000000" stroke="none" 
 	d="
M559.063604 1738.980327 C558.116519 1740.055627 556.535292 1740.236150 555.106462 1740.344250 C507.087400 1743.977200 459.068339 1747.610150 411.049277 1751.243099 C406.878131 1751.558673 401.400282 1750.990124 400.415755 1746.924566 C385.370268 1684.794911 348.254354 1630.751341 313.833956 1576.883941 C279.413558 1523.016540 246.204231 1465.394176 240.675178 1401.708304 C240.533385 1400.075086 240.445813 1398.296787 241.368056 1396.941437 C242.627961 1395.089852 245.190551 1394.793415 247.426828 1394.671793 C298.119992 1391.914792 348.813157 1389.157791 399.506321 1386.400789 C407.044918 1385.990795 416.753732 1387.018927 418.849053 1394.272076 C420.087417 1398.558779 417.670905 1403.227314 414.147691 1405.965258 C410.624477 1408.703201 406.190428 1409.926674 401.882444 1411.088845 C384.567552 1415.759909 367.252663 1420.430974 349.937774 1425.102038 C344.376627 1426.602277 337.687796 1429.405275 337.344480 1435.154988 C336.952047 1441.727278 345.012919 1445.026768 351.460012 1446.362430 C382.691642 1452.832773 413.923272 1459.303116 445.154902 1465.773458 C447.004785 1466.156704 448.252890 1467.839259 449.315093 1469.401523 C503.433217 1548.997219 541.203382 1639.656450 559.606174 1734.131755 C559.928938 1735.788745 560.179376 1737.713502 559.063604 1738.980327 z"/><path class="selected"  fill="#000000" opacity="1.000000" stroke="none" 
 	d="
M629.685757 1338.925317 C630.713822 1340.205489 630.711928 1342.001342 630.661151 1343.642433 C630.358946 1353.409332 630.056743 1363.176230 629.754539 1372.943129 C629.564118 1379.097376 634.562966 1384.022155 639.175126 1388.101249 C688.224608 1431.481634 737.274089 1474.862022 786.323569 1518.242409 C653.814735 1490.803303 521.357236 1463.116290 388.951999 1435.181564 C397.037532 1430.483079 406.110765 1427.808103 415.084082 1425.175389 C463.598551 1410.941552 512.113019 1396.707715 560.627488 1382.473878 C570.032376 1379.714544 579.717712 1376.810323 587.292507 1370.590330 C594.867303 1364.370338 599.851730 1353.908136 596.740179 1344.613833 C595.688054 1341.471106 598.072799 1338.012595 601.111193 1336.689018 C604.149587 1335.365441 607.611320 1335.617536 610.913936 1335.893983 C615.456522 1336.274223 619.999108 1336.654462 624.541694 1337.034702 C626.416345 1337.191621 628.507834 1337.458539 629.685758 1338.925316 z"/><path class="selected"  fill="#000000" opacity="1.000000" stroke="none" 
 	d="
M1591.607367 877.191708 C1590.333233 883.065033 1592.292683 889.123835 1594.516564 894.707178 C1603.631345 917.591014 1617.705587 938.484834 1635.487556 955.530383 C1638.788341 958.694470 1643.022515 961.953451 1647.467984 960.883667 C1652.981014 959.556979 1654.846791 952.081443 1652.618428 946.867231 C1650.390065 941.653020 1645.574442 938.112290 1641.300938 934.385258 C1625.281739 920.414502 1614.647950 900.417689 1612.021362 879.325088 C1639.929767 902.537024 1665.497025 928.562249 1688.209878 956.878309 C1673.370644 964.126117 1658.531411 971.373926 1643.692177 978.621734 C1625.203156 987.652176 1605.316337 998.083726 1596.951564 1016.883283 C1588.586791 1035.682840 1601.038366 1063.720699 1621.503707 1061.584683 C1608.170841 1105.453195 1640.576073 1157.329614 1685.847414 1164.590299 C1647.658282 1198.879696 1616.341114 1240.791707 1594.281691 1287.133420 C1555.932887 1278.317882 1524.921979 1243.756848 1520.298315 1204.680432 C1518.838514 1192.343075 1505.780476 1182.678992 1493.555038 1184.888082 C1481.329600 1187.097173 1472.479418 1200.719989 1475.429583 1212.788044 C1459.832877 1211.411640 1450.199155 1193.715298 1434.938254 1190.214352 C1416.382928 1185.957645 1400.811944 1203.746773 1390.086055 1219.474931 C1383.181162 1229.600083 1375.943482 1241.542276 1379.309088 1253.326542 C1380.949374 1259.069812 1384.401999 1266.648899 1379.347582 1269.831439 C1367.572947 1277.245378 1374.535282 1295.682931 1383.892520 1305.981018 C1398.986488 1322.592651 1417.666823 1335.929001 1438.280121 1344.809663 C1443.027865 1346.855096 1447.956426 1348.713640 1451.989221 1351.948054 C1456.709813 1355.734101 1459.830860 1361.099150 1463.170469 1366.145450 C1481.259474 1393.478760 1508.858139 1414.384969 1540.068605 1424.396401 C1450.398476 1424.998733 1360.760637 1430.379538 1271.662367 1440.508362 C1265.892324 1441.164309 1259.496835 1442.176098 1255.909790 1446.743020 C1252.322746 1451.309942 1255.077480 1460.171885 1260.839367 1459.447784 C1352.548595 1447.922600 1445.036835 1442.600342 1537.462747 1443.529424 C1547.671848 1443.632048 1560.166837 1442.447545 1564.373588 1433.144883 C1568.868466 1433.832501 1573.363350 1434.520127 1577.858234 1435.207753 C1555.559591 1454.718709 1536.804901 1478.267610 1522.778826 1504.366960 C1518.799014 1511.772490 1508.824535 1512.884198 1500.419762 1513.085577 C1426.460685 1514.857621 1352.501610 1516.629669 1278.542534 1518.401717 C1270.417365 1518.596395 1262.130096 1518.770338 1254.350210 1516.418814 C1229.425270 1508.885078 1219.096881 1479.668620 1214.178668 1454.098695 C1205.086627 1406.828919 1202.160676 1358.620046 1199.254418 1310.571626 C1196.630853 1267.196880 1194.007288 1223.822134 1191.383722 1180.447389 C1191.179881 1177.077334 1191.927676 1172.520865 1195.292150 1172.239559 C1211.047347 1170.922276 1214.291166 1149.429843 1213.031723 1133.669919 C1211.766342 1117.835787 1210.500965 1102.001656 1209.235588 1086.167525 C1207.728424 1067.307834 1201.102199 1043.097756 1182.210535 1042.065989 C1173.518194 1041.591259 1171.219535 1029.960846 1171.222206 1021.255553 C1171.240579 961.580781 1160.586071 901.918263 1139.914146 845.938356 C1131.489480 823.124225 1119.573150 799.006018 1097.300031 789.240378 C1112.149490 738.013860 1119.761716 684.695147 1119.840382 631.359826 C1119.854237 621.965647 1131.324713 617.619670 1140.555594 615.875639 C1308.255662 584.191384 1479.481438 571.205354 1650.041817 577.235413 C1684.729696 628.641916 1694.927011 695.834088 1677.053000 755.217564 C1663.663487 799.702031 1635.277871 845.123046 1650.301858 889.082421 C1642.640640 878.995398 1634.330515 868.415047 1622.438985 864.052272 C1610.547456 859.689497 1594.292740 864.813055 1591.607367 877.191708 z"/><path class="selected"  fill="#000000" opacity="1.000000" stroke="none" 
 	d="
M1670.179942 1665.666760 C1695.606357 1713.994216 1730.461773 1757.338172 1772.207810 1792.542064 C1750.713133 1797.130097 1729.552029 1803.280123 1708.946519 1810.927615 C1695.810406 1815.802928 1682.561433 1821.505536 1672.546676 1831.305066 C1662.531920 1841.104596 1656.300597 1855.885514 1660.121866 1869.366020 C1663.929897 1882.799826 1676.852346 1892.072756 1690.385318 1895.511787 C1703.918289 1898.950818 1718.149547 1897.583136 1732.043284 1896.193055 C1733.740809 1896.838695 1733.577399 1899.556065 1732.147626 1900.675971 C1730.717853 1901.795876 1728.732823 1901.774883 1726.918122 1901.702069 C1696.654984 1900.487766 1666.391846 1899.273462 1636.128709 1898.059159 C1635.057005 1898.016157 1633.922603 1897.953436 1633.034855 1897.351521 C1631.544563 1896.341066 1631.325635 1894.271115 1631.249922 1892.472155 C1630.377469 1871.742623 1629.505017 1851.013091 1628.632565 1830.283560 C1628.431365 1825.503023 1630.906103 1818.610065 1635.360904 1820.356135 C1642.646170 1823.211623 1650.741039 1816.552103 1652.749884 1808.989472 C1654.758730 1801.426841 1652.681108 1793.474261 1651.377956 1785.758651 C1648.159787 1766.704794 1649.740256 1747.134341 1653.009589 1728.089197 C1656.666610 1706.785630 1662.427047 1685.843687 1670.179942 1665.666760 z"/><path class="selected"  fill="#000000" opacity="1.000000" stroke="none" 
 	d="
M1440.180281 1810.211708 C1445.900856 1812.830645 1447.254550 1820.301905 1447.104393 1826.591680 C1446.954236 1832.881456 1446.269544 1839.863284 1450.191940 1844.782495 C1454.114336 1849.701705 1464.566637 1848.154030 1463.995692 1841.888422 C1463.199576 1833.151759 1462.403460 1824.415096 1461.607344 1815.678432 C1461.406871 1813.478419 1461.236048 1811.126239 1462.303222 1809.191972 C1465.342096 1803.683969 1474.523635 1807.384122 1476.757543 1813.264811 C1478.991451 1819.145501 1477.686851 1825.870099 1479.650875 1831.846340 C1481.614899 1837.822582 1490.184453 1842.336106 1493.944806 1837.293031 C1497.375728 1832.691764 1492.906586 1825.060049 1496.710467 1820.761984 C1533.017743 1820.865227 1569.325019 1820.968469 1605.632295 1821.071711 C1607.099919 1821.075885 1608.682006 1821.116608 1609.853869 1822.000168 C1611.463094 1823.213492 1611.684096 1825.503066 1611.767706 1827.516711 C1612.570104 1846.841643 1613.372504 1866.166574 1614.174903 1885.491506 C1528.509707 1886.962821 1442.706817 1880.310976 1358.291943 1865.654251 C1355.213452 1865.119741 1351.988372 1864.508695 1349.570692 1862.529395 C1345.821273 1859.459830 1345.100117 1853.744917 1346.771503 1849.196639 C1348.442889 1844.648360 1352.035998 1841.081614 1355.816984 1838.051018 C1368.551447 1827.843893 1384.217143 1822.143625 1399.572187 1816.614198 C1408.251143 1813.488862 1419.911597 1811.240830 1425.034761 1818.911892 C1428.469437 1824.054736 1426.756026 1830.858720 1426.684900 1837.042632 C1426.613774 1843.226543 1430.532202 1850.920176 1436.619924 1849.831389 C1442.877001 1848.712313 1443.686465 1840.145122 1442.946983 1833.831923 C1442.024748 1825.958518 1441.102515 1818.085113 1440.180281 1810.211708 z"/><path class="selected"  fill="#000000" opacity="1.000000" stroke="none" 
 	d="
M1091.244286 670.295187 C1093.914653 671.517438 1096.719973 672.863189 1098.336283 675.315189 C1100.399973 678.445880 1100.003402 682.532316 1099.497454 686.247698 C1082.075262 814.185753 1026.525836 936.688643 941.765987 1034.092169 C932.156566 1045.135033 959.707852 1059.684122 953.536764 1072.958288 C950.284865 1079.953208 940.306659 1079.861147 932.902863 1077.696073 C921.041973 1074.227622 909.926343 1068.233316 900.511735 1060.228566 C901.726255 1054.457405 909.848296 1053.292060 915.231750 1055.700336 C920.615203 1058.108612 925.011484 1062.658777 930.736177 1064.076260 C936.460870 1065.493743 944.151125 1060.908136 942.260497 1055.321823 C937.063331 1039.965549 916.442277 1034.794588 901.314150 1040.622577 C886.186022 1046.450566 875.433211 1059.763079 865.420781 1072.513645 C857.541053 1082.548271 849.661325 1092.582896 841.781597 1102.617522 C838.402203 1106.921090 834.918362 1111.446790 833.881094 1116.819413 C831.396983 1129.686123 818.929507 1137.937662 807.031334 1143.429157 C779.705776 1156.041025 749.348784 1162.024231 719.281271 1160.724242 C698.579360 1159.829172 672.544477 1158.181246 662.855449 1176.497713 C657.408331 1186.795170 660.019368 1199.451373 657.209435 1210.756804 C654.399503 1222.062235 639.497868 1232.062452 631.788014 1223.329375 C627.738110 1218.741984 628.504451 1211.790282 629.512139 1205.754523 C632.022429 1190.718617 637.369047 1172.552045 652.289662 1169.428710 C657.588162 1168.319574 657.810487 1159.961843 653.704913 1156.433595 C649.599338 1152.905347 643.684169 1152.779663 638.279530 1152.472819 C604.798820 1150.571976 573.151297 1134.770421 547.754937 1112.870740 C522.358577 1090.971060 502.665196 1063.221084 485.405224 1034.469312 C464.015437 998.838068 445.932144 961.149631 432.659105 921.767720 C393.952217 806.922031 398.052000 678.189188 443.988071 566.039142 C449.649823 552.216329 465.973886 546.565958 480.616245 543.611823 C532.680665 533.107691 586.528269 536.651555 639.261004 542.999718 C795.283022 561.782226 948.352321 604.892291 1091.244286 670.295187 z"/><path class="selected"  fill="#000000" opacity="1.000000" stroke="none" 
 	d="
M411.861429 1288.630775 C396.202167 1280.896101 382.840154 1268.579717 373.857901 1253.601173 C375.740336 1251.426345 379.261453 1252.979341 381.628508 1254.613503 C439.898122 1294.841565 507.462419 1321.517199 577.497285 1331.946118 C581.619776 1332.560000 582.310548 1338.161719 581.942456 1342.313381 C581.489691 1347.420053 580.759702 1353.083306 576.830241 1356.376091 C574.814498 1358.065231 572.223006 1358.869136 569.706578 1359.633335 C528.787955 1372.059667 487.869333 1384.485998 446.950711 1396.912330 C441.489223 1398.570897 435.529837 1395.035259 432.538148 1390.174343 C429.546460 1385.313428 428.829672 1379.435843 428.181901 1373.764944 C425.636076 1351.477574 423.090252 1329.190203 420.544428 1306.902832 C419.744241 1299.897607 418.183100 1291.753276 411.861436 1288.630769 z"/><path class="selected"  fill="#000000" opacity="1.000000" stroke="none" 
 	d="
M1402.723720 1890.883598 C1328.439402 1888.401233 1253.917500 1893.079040 1180.526690 1904.831107 C1288.061755 1912.815215 1396.207857 1912.556176 1503.703440 1904.057012 C1489.031343 1912.053899 1512.295579 1930.188583 1528.992687 1929.534978 C1664.659634 1924.224320 1800.326581 1918.913663 1935.993527 1913.603006 C1918.167563 1910.581039 1898.985506 1921.903182 1893.016801 1938.969870 C1941.436556 1930.761409 1989.856311 1922.552948 2038.276067 1914.344486 C2038.257056 1955.562990 2038.238045 1996.781493 2038.219034 2037.999996 C1358.885700 2038.000006 679.552367 2038.000016 0.219033 2038.000027 C0.219034 1358.666684 0.219034 679.333342 0.219034 0.000000 C679.552726 0.000021 1358.886419 0.000041 2038.220111 0.000062 C2038.218841 632.141426 2038.217572 1264.282791 2038.216303 1896.424155 C1944.081991 1897.714904 1849.947680 1899.005652 1755.813368 1900.296401 C1802.753344 1893.932852 1847.686017 1873.444963 1883.271498 1842.179492 C1900.997701 1826.605227 1917.089662 1807.025111 1920.310112 1783.649810 C1923.530561 1760.274510 1909.318667 1733.403588 1885.996673 1729.817420 C1905.361756 1727.499786 1901.057378 1697.997190 1891.206487 1681.164541 C1853.363790 1616.501413 1815.521130 1551.838275 1777.678470 1487.175137 C1740.599725 1539.095697 1703.520980 1591.016257 1666.442235 1642.936817 C1706.140214 1558.979678 1765.012108 1484.788473 1800.506651 1398.969663 C1836.001193 1313.150854 1843.655035 1206.242049 1784.987825 1134.249764 C1858.180043 1131.426741 1913.050827 1042.340306 1882.639788 975.705190 C1852.228748 909.070073 1748.977467 892.147636 1698.886444 945.588813 C1671.827136 921.059699 1665.357786 880.558664 1669.766803 844.303401 C1674.175819 808.048138 1687.592162 773.468518 1693.759113 737.470570 C1705.663190 667.983872 1690.137180 597.057082 1674.686074 528.272117 C1661.177877 468.136579 1634.573401 395.510289 1573.340762 388.487604 C1501.119442 380.204643 1428.898122 371.921683 1356.676803 363.638722 C1337.839770 361.478331 1313.915756 354.210908 1313.120151 335.267094 C1311.518038 297.118663 1291.630367 258.700733 1257.927525 240.756731 C1224.224683 222.812730 1177.324675 229.965056 1154.852169 260.833410 C1159.373790 222.411168 1162.212382 181.474781 1144.744700 146.955311 C1127.277018 112.435842 1082.042885 89.152446 1048.522462 108.468112 C1001.032706 135.833408 1015.651868 216.107690 972.381752 249.750423 C953.003866 264.816827 926.724380 266.469662 902.200486 267.507747 C845.763780 269.896685 789.327074 272.285625 732.890368 274.674564 C698.135464 276.145722 662.621302 277.771937 630.272099 290.562432 C591.910697 305.730080 561.123862 335.412043 534.613743 367.016921 C399.390593 528.227479 355.111952 761.008339 421.703374 960.607254 C388.323357 916.305852 339.110405 879.427022 283.652612 878.298727 C228.194820 877.170432 171.002748 923.523021 175.545502 978.805958 C178.064830 1009.464866 158.883285 1036.998372 144.885063 1064.391171 C130.886840 1091.783970 122.767774 1128.328177 143.714518 1150.857038 C163.280160 1171.900482 158.515459 1204.687061 159.472963 1233.405072 C160.430466 1262.123084 178.199702 1297.478061 206.586449 1293.024570 C180.866460 1268.154564 171.452328 1227.810504 183.508737 1194.125521 C196.690433 1213.397770 234.157990 1199.244540 231.305716 1176.070389 C228.453442 1152.896239 188.672145 1148.250796 180.557122 1170.144245 C143.749898 1141.859172 143.082043 1078.191531 179.287828 1049.140572 C182.408266 1070.159770 216.984714 1076.056881 226.895854 1057.260256 C236.806993 1038.463631 212.408339 1013.264178 193.301549 1022.563339 C181.680673 984.493083 195.376621 939.993445 226.392900 915.045909 C257.409179 890.098373 303.810275 886.259744 338.504522 905.771238 C336.448699 942.429765 317.320500 977.776632 287.756180 999.548747 C273.100360 1010.341761 255.402233 1018.654686 246.530461 1034.547259 C237.658689 1050.439831 246.187999 1076.738636 264.340376 1075.406938 C284.953789 1073.894693 298.152152 1099.770319 293.741463 1119.963025 C289.330774 1140.155730 274.298572 1155.993741 262.749586 1173.134933 C210.475356 1250.721142 229.568692 1354.032857 213.293417 1446.159564 C191.935200 1567.058425 109.520639 1666.799930 30.083308 1760.407720 C49.621257 1779.631655 69.159207 1798.855591 88.697158 1818.079526 C103.744801 1804.855767 118.792445 1791.632008 133.840089 1778.408249 C133.858254 1822.633562 167.152736 1864.671430 210.198217 1874.818606 C140.132144 1880.600622 70.066072 1886.382639 0.000000 1892.164655 C262.556583 1906.241280 525.650840 1910.286433 788.516078 1904.288324 C734.382276 1885.792978 675.535156 1881.283176 619.215241 1891.313802 C641.727588 1899.830291 663.837352 1870.349091 657.482103 1847.133855 C651.126854 1823.918619 628.357798 1809.364044 606.287926 1799.758987 C584.218054 1790.153929 560.072102 1782.587539 543.721100 1764.924552 C555.487126 1761.116578 567.253153 1757.308604 579.019179 1753.500631 C565.291899 1653.755426 529.216541 1557.149464 474.205498 1472.820767 C592.479217 1499.514141 711.540873 1522.716192 831.183202 1542.386527 C771.979856 1477.047435 706.504108 1417.394388 635.949380 1364.514681 C658.731414 1343.435841 676.850991 1317.344697 688.645496 1288.635323 C665.832935 1292.051913 643.020374 1295.468504 620.207813 1298.885095 C628.449344 1309.514677 641.338060 1316.404070 654.754957 1317.351547 C630.251836 1319.676882 605.376829 1318.037709 581.390726 1312.517109 C584.899370 1278.503038 592.500136 1244.912959 603.976917 1212.701919 C612.677175 1243.207769 661.516453 1250.651188 678.909205 1224.122080 C669.476184 1242.471281 650.568720 1255.613133 630.082400 1258.059716 C648.479176 1269.096713 674.981614 1263.472118 687.309751 1245.914393 C699.637887 1228.356668 695.928754 1201.519053 679.300531 1187.963286 C749.038932 1171.071311 820.062075 1159.486083 891.553465 1153.340785 C941.983283 1149.005911 979.298955 1089.614166 961.320853 1042.298782 C1017.476368 971.034734 1062.709014 891.179923 1094.957211 806.373908 C1133.762152 865.003092 1153.291475 936.167945 1149.846765 1006.391435 C1108.841879 1044.149681 1106.348255 1116.078011 1144.639816 1156.585321 C1179.884761 1193.869720 1186.326332 1249.657858 1184.934578 1300.945240 C1183.542824 1352.232622 1176.328226 1404.819120 1191.069917 1453.961922 C1205.811608 1503.104725 1251.477821 1548.204988 1302.266335 1540.934545 C1370.076181 1531.227475 1438.981597 1529.194366 1507.245807 1534.886461 C1472.849631 1613.527634 1463.549466 1702.922688 1481.021484 1786.959939 C1436.946623 1787.996098 1393.122267 1798.635220 1353.478363 1817.923244 C1344.942286 1822.076316 1336.181202 1827.014312 1331.384865 1835.206245 C1322.041306 1851.164639 1332.586061 1872.801957 1348.666396 1881.934057 C1364.746731 1891.066157 1384.232449 1891.096499 1402.723719 1890.883598 M1320.501306 165.668864 C1293.276507 186.466866 1283.208812 226.872816 1297.492449 258.013213 C1299.986898 263.451475 1303.330557 268.804237 1308.481398 271.848212 C1313.632239 274.892187 1320.944356 274.923608 1325.042562 270.564519 C1327.300811 268.162519 1328.281065 264.872813 1329.683491 261.889108 C1339.968628 240.007147 1370.826050 236.832947 1386.286865 218.243503 C1394.496019 208.373158 1397.467082 194.380984 1393.977098 182.026474 C1390.487115 169.671964 1380.634186 159.302395 1368.473999 155.186116 C1352.329229 149.721037 1334.045901 155.321663 1320.501308 165.668864 M630.512630 1274.100061 C627.788036 1276.964472 628.608047 1281.938969 631.308217 1284.826415 C634.008387 1287.713861 638.007833 1288.959262 641.874616 1289.781605 C645.752703 1290.606351 649.722085 1291.124426 653.680678 1290.902389 C662.200576 1290.424509 670.121302 1286.585541 677.778108 1282.818532 C680.778110 1281.342586 683.865732 1279.799911 686.037183 1277.257622 C688.208635 1274.715334 689.237958 1270.884910 687.596455 1267.972197 C685.647965 1264.514757 680.818241 1263.756719 677.021551 1264.912422 C673.224861 1266.068125 670.042543 1268.629356 666.545905 1270.506594 C660.049097 1273.994536 652.296226 1275.079351 645.091581 1273.508578 C640.093992 1272.418990 634.037888 1270.393898 630.512630 1274.100061 z"/><path class="selected"  fill="#000000" opacity="1.000000" stroke="none" 
 	d="
M430.469952 1022.240821 C429.901346 1015.607743 437.277308 1011.441534 443.482662 1009.030184 C445.043929 1008.423488 446.855918 1007.828203 448.323110 1008.636275 C449.168815 1009.102055 449.719622 1009.952052 450.235378 1010.768240 C461.866770 1029.175026 473.498163 1047.581810 485.129556 1065.988594 C485.601179 1066.734940 486.093007 1067.589201 485.890555 1068.448546 C485.710728 1069.211844 485.034209 1069.740293 484.394183 1070.193425 C470.995149 1079.679766 454.715754 1083.986396 438.826359 1088.115794 C432.681982 1089.712618 426.537605 1091.309443 420.393229 1092.906267 C418.754692 1093.332097 416.049722 1092.156602 417.240536 1090.953233 C430.208375 1077.848707 432.030931 1057.549537 431.456095 1039.122302 C431.280321 1033.487596 430.951445 1027.857668 430.469952 1022.240821 z"/><path class="selected"  fill="#000000" opacity="1.000000" stroke="none" 
 	d="
M1424.441394 1266.666126 C1427.995201 1270.102197 1431.382829 1273.956472 1435.932841 1275.888704 C1440.482854 1277.820935 1446.676423 1277.061701 1449.103490 1272.755255 C1452.389662 1266.924467 1446.923023 1260.171883 1441.919852 1255.726066 C1431.334648 1246.320056 1420.749445 1236.914047 1410.164242 1227.508037 C1411.227329 1224.360074 1415.990307 1225.982168 1418.538002 1228.115025 C1426.220199 1234.546350 1433.902398 1240.977673 1441.584596 1247.408995 C1445.200183 1250.435864 1449.664475 1253.664640 1454.200661 1252.377228 C1459.997437 1250.732048 1461.352601 1242.505747 1458.409147 1237.247866 C1455.465693 1231.989986 1449.925705 1228.854568 1445.031828 1225.339002 C1440.137951 1221.823437 1435.329883 1216.980629 1435.219887 1210.955919 C1445.545241 1217.842868 1455.870595 1224.729817 1466.195949 1231.616766 C1470.224371 1234.303701 1474.493775 1237.076600 1479.323352 1237.427302 C1484.152929 1237.778004 1489.594360 1234.719708 1490.058803 1229.899740 C1490.753604 1222.689073 1491.981806 1215.529863 1493.730056 1208.499924 C1494.108114 1206.979701 1494.607970 1205.325737 1495.925129 1204.477741 C1498.992528 1202.502929 1502.391226 1206.496293 1503.783270 1209.868389 C1510.005515 1224.941202 1514.184356 1240.856012 1516.169731 1257.041324 C1516.504680 1259.771920 1516.734020 1262.726743 1515.337038 1265.096720 C1502.259604 1287.282536 1489.182171 1309.468353 1476.104738 1331.654170 C1475.151791 1333.270841 1474.087210 1334.988447 1472.359932 1335.722098 C1470.361237 1336.571031 1468.078024 1335.861015 1466.027140 1335.147331 C1455.433847 1331.460982 1444.798762 1327.756834 1434.835531 1322.605034 C1418.156716 1313.980732 1403.585073 1301.316064 1392.720744 1286.001762 C1398.419217 1284.454570 1404.305833 1287.610752 1408.959935 1291.244720 C1413.614037 1294.878689 1418.041811 1299.242086 1423.762823 1300.703732 C1429.483836 1302.165378 1436.913746 1299.039204 1437.310827 1293.147793 C1437.546705 1289.648129 1435.288402 1286.492202 1432.883065 1283.939236 C1421.714102 1272.084773 1404.531540 1264.989698 1398.742287 1249.766079 C1408.261313 1253.733108 1417.027528 1259.497878 1424.441394 1266.666126 z"/><path class="selected"  fill="#000000" opacity="1.000000" stroke="none" 
 	d="
M1191.598410 1091.709342 C1191.172536 1095.371441 1186.519601 1096.595202 1182.838886 1096.806565 C1174.088084 1097.309075 1165.137861 1097.069833 1156.827503 1094.282904 C1148.517144 1091.495975 1140.851521 1085.871993 1137.191733 1077.907384 C1136.356448 1076.089599 1135.736855 1073.985678 1136.444596 1072.114542 C1137.152336 1070.243406 1139.718557 1069.046158 1141.254132 1070.328365 C1152.251985 1079.511584 1166.375678 1084.879954 1180.696653 1085.320340 C1183.084274 1085.393761 1185.548596 1085.348539 1187.758639 1086.255089 C1189.968682 1087.161639 1191.874343 1089.336581 1191.598411 1091.709340 z"/><path class="selected"  fill="#000000" opacity="1.000000" stroke="none" 
 	d="
M1906.860694 1772.866809 C1907.164615 1774.395452 1906.239761 1775.871352 1905.353199 1777.153197 C1894.574301 1792.737988 1883.084732 1807.831232 1870.932152 1822.370322 C1853.758683 1842.916297 1834.111163 1863.105417 1808.625804 1871.325004 C1799.239522 1874.352287 1789.387590 1875.631269 1779.576676 1876.637604 C1756.054763 1879.050317 1732.380666 1879.978384 1708.742063 1879.414447 C1696.354915 1879.118934 1681.000449 1876.181319 1677.682284 1864.243207 C1674.351875 1852.261034 1686.175322 1841.727594 1697.122871 1835.827153 C1707.339483 1830.320669 1718.072120 1825.772106 1729.134191 1822.260540 C1733.610541 1820.839557 1740.525326 1821.177648 1740.644679 1825.872609 C1740.801823 1832.054305 1741.124404 1838.715794 1744.961561 1843.564947 C1748.798718 1848.414099 1757.543130 1849.657854 1760.723313 1844.354601 C1763.764917 1839.282443 1759.852843 1833.102159 1757.143104 1827.845215 C1754.433365 1822.588271 1754.424435 1813.988342 1760.255827 1813.001928 C1765.331336 1812.143373 1768.461074 1818.145822 1770.596384 1822.829662 C1773.016918 1828.139158 1776.269198 1833.068472 1780.198225 1837.382686 C1783.978547 1841.533615 1790.275778 1845.257300 1794.835032 1841.980984 C1800.028352 1838.249023 1797.097347 1829.916547 1792.803409 1825.177329 C1788.509471 1820.438110 1782.833749 1815.336097 1783.859188 1809.023683 C1792.716147 1815.882354 1803.186805 1820.643136 1814.177574 1822.808798 C1819.003483 1823.759713 1825.151594 1823.612104 1827.429585 1819.252702 C1830.337545 1813.687724 1823.867980 1807.669139 1817.817918 1805.989270 C1811.767857 1804.309402 1804.536533 1803.836333 1800.941996 1798.688081 C1818.761853 1780.177583 1838.664975 1763.674121 1860.154725 1749.589501 C1862.532292 1748.031217 1865.111979 1746.447109 1867.954517 1746.479613 C1870.886856 1746.513146 1873.488951 1748.256671 1875.894387 1749.934054 C1885.268752 1756.471093 1894.643119 1763.008129 1904.017485 1769.545166 C1905.244634 1770.400895 1906.568962 1771.399478 1906.860694 1772.866809 z"/><path class="selected"  fill="#000000" opacity="1.000000" stroke="none" 
 	d="
M611.775321 1192.966019 C600.484324 1193.674981 589.782388 1200.610868 584.523760 1210.627657 C583.286368 1212.984677 581.115026 1215.992976 578.723523 1214.823619 C564.976774 1208.101962 550.730381 1202.402432 536.140757 1197.787602 C535.178044 1197.483088 535.049162 1196.044292 535.679021 1195.255100 C536.308879 1194.465908 537.357615 1194.170716 538.335649 1193.919730 C564.531845 1187.197202 590.728041 1180.474673 616.924236 1173.752144 C617.963867 1173.485351 619.087189 1173.222559 620.085247 1173.617390 C621.083305 1174.012220 621.750524 1175.370596 621.067620 1176.198638 C618.905233 1178.820578 618.747067 1182.486803 617.996823 1185.801559 C617.246579 1189.116314 615.167238 1192.753039 611.775320 1192.966018 z"/><path class="selected"  fill="#000000" opacity="1.000000" stroke="none" 
 	d="
M1708.613467 1137.239395 C1698.595747 1142.897436 1686.763455 1146.736214 1675.609504 1143.915307 C1669.436384 1142.354085 1663.899639 1138.845354 1659.101373 1134.659490 C1639.646456 1117.687605 1632.233882 1088.235638 1641.336732 1064.076235 C1644.303434 1056.202465 1635.496683 1049.073936 1627.667149 1045.992386 C1619.837615 1042.910836 1610.201004 1039.090884 1609.258468 1030.729713 C1608.419175 1023.284423 1615.286359 1017.457318 1621.527983 1013.312577 C1645.667608 997.282700 1671.472048 983.761496 1698.391621 973.036994 C1702.158446 971.536327 1707.028734 970.305766 1709.796542 973.268908 C1722.271613 986.624387 1734.746683 999.979865 1747.221754 1013.335344 C1751.201533 1017.595990 1749.665243 1024.587525 1746.711624 1029.614241 C1743.758005 1034.640958 1739.562793 1039.215099 1738.606646 1044.966406 C1736.904624 1055.204205 1747.072754 1064.523262 1757.430902 1065.169934 C1767.789050 1065.816605 1777.518994 1060.104358 1785.342325 1053.284908 C1793.027646 1046.585761 1806.541752 1053.009664 1808.947245 1062.917052 C1811.352738 1072.824439 1805.341104 1083.158717 1797.197939 1089.293176 C1787.373093 1096.694488 1772.590203 1099.124897 1763.019736 1091.397467 C1759.309172 1088.401466 1756.707619 1084.191148 1752.920472 1081.292558 C1749.133326 1078.393969 1743.184625 1077.229933 1739.880857 1080.669325 C1736.859899 1083.814299 1737.727872 1089.171384 1740.287657 1092.701901 C1742.847441 1096.232418 1746.677655 1098.586855 1749.887602 1101.538683 C1755.359703 1106.570757 1759.134778 1113.982973 1758.090869 1121.343401 C1757.046960 1128.703829 1750.133117 1135.284916 1742.755153 1134.373158 C1745.217291 1131.209759 1747.752891 1127.890278 1748.534506 1123.958573 C1749.316121 1120.026867 1747.743488 1115.314558 1744.008457 1113.858956 C1738.931711 1111.880466 1733.952130 1116.572211 1730.178878 1120.502904 C1723.855107 1127.090540 1716.564552 1132.748596 1708.613467 1137.239395 M1711.253840 1080.876901 C1709.384741 1077.532271 1704.914754 1076.390866 1701.175401 1077.225923 C1697.436048 1078.060981 1694.252599 1080.429239 1691.194754 1082.737846 C1687.586695 1085.461852 1682.454545 1082.400686 1679.543297 1078.941938 C1676.632050 1075.483190 1673.668817 1071.136545 1669.154110 1070.900506 C1665.068563 1070.686906 1661.507188 1074.403021 1660.886931 1078.446856 C1660.266673 1082.490691 1662.017306 1086.584236 1664.537228 1089.807172 C1673.520201 1101.296234 1691.658782 1102.620633 1704.236614 1095.238866 C1709.341712 1092.242752 1714.141472 1086.044133 1711.253839 1080.876901 M1714.565192 1018.974887 C1715.078529 1011.487783 1711.145037 1003.788050 1704.617298 1000.085501 C1698.089560 996.382951 1689.266792 997.046688 1683.559561 1001.919855 C1681.740064 1003.473444 1680.199318 1005.490148 1679.747078 1007.839549 C1678.894440 1012.269025 1682.834680 1016.966142 1687.344941 1016.896879 C1689.554548 1016.862947 1691.663235 1015.874342 1693.872392 1015.818337 C1696.081549 1015.762333 1698.668907 1017.290082 1698.416766 1019.485517 C1698.022534 1022.918170 1700.169283 1026.484269 1703.387304 1027.742389 C1706.605324 1029.000508 1710.601530 1027.836063 1712.640035 1025.046256 C1713.909514 1023.308903 1714.418007 1021.121584 1714.565190 1018.974887 M1786.497754 1085.837157 C1796.752746 1083.400250 1803.343571 1071.064930 1799.738349 1061.160096 C1798.578920 1057.974732 1794.171414 1057.094902 1791.091287 1058.510399 C1788.011160 1059.925895 1785.963353 1062.863552 1784.020596 1065.641412 C1782.077840 1068.419273 1779.913665 1071.307566 1776.750124 1072.525278 C1772.865706 1074.020470 1772.224299 1079.886673 1774.960280 1083.023344 C1777.696260 1086.160016 1782.448271 1086.799440 1786.497754 1085.837157 z"/><path class="selected"  fill="#000000" opacity="1.000000" stroke="none" 
 	d="
M1194.205955 1153.667787 C1192.991363 1154.916741 1191.326683 1155.621966 1189.661753 1156.134927 C1175.937582 1160.363310 1161.296329 1153.291602 1149.846126 1144.624138 C1147.670580 1142.977315 1145.357781 1139.989249 1147.091022 1137.881904 C1148.474361 1136.199984 1151.135415 1136.858589 1153.193280 1137.571100 C1162.628260 1140.837851 1172.759959 1142.076142 1182.703984 1141.177884 C1184.982630 1140.972049 1187.306309 1140.658289 1189.535940 1141.171458 C1194.799520 1142.382919 1197.971542 1149.795668 1194.205959 1153.667785 z"/><path class="selected"  fill="#000000" opacity="1.000000" stroke="none" 
 	d="
M1821.659848 1089.325859 C1824.478694 1089.260750 1826.629598 1092.239636 1826.627904 1095.059234 C1826.626209 1097.878832 1825.067386 1100.450001 1823.369380 1102.700981 C1813.907475 1115.244270 1798.171549 1122.794309 1782.466698 1122.325938 C1779.115144 1122.225984 1774.807657 1120.742444 1774.938753 1117.391964 C1775.077803 1113.838203 1779.822612 1112.910594 1783.366201 1112.608064 C1795.998292 1111.529612 1808.022460 1104.676618 1815.388073 1094.357678 C1817.008016 1092.088201 1818.872269 1089.390249 1821.659848 1089.325861 z"/><path class="selected"  fill="#000000" opacity="1.000000" stroke="none" 
 	d="
M213.507382 1173.473587 C215.515696 1173.236582 216.939473 1175.813326 216.298673 1177.731365 C215.657873 1179.649405 213.754873 1180.844661 211.879633 1181.601610 C207.163581 1183.505262 201.741763 1183.596526 196.964315 1181.852675 C201.268472 1177.237983 207.240470 1174.213157 213.507382 1173.473587 z"/><path class="selected"  fill="#000000" opacity="1.000000" stroke="none" 
 	d="
M885.024568 1074.678924 C888.293542 1072.587486 892.378968 1075.405752 895.383549 1077.861927 C905.743949 1086.331318 918.281383 1092.114739 931.448976 1094.498631 C935.901642 1095.304751 941.197410 1096.282042 943.008048 1100.429048 C935.338891 1100.814776 927.640171 1100.611306 920.002096 1099.821026 C907.743598 1098.552689 894.884520 1095.356424 886.381488 1086.435780 C883.258302 1083.159204 881.211557 1077.118429 885.024568 1074.678924 z"/><path class="selected"  fill="#000000" opacity="1.000000" stroke="none" 
 	d="
M1139.189733 1105.246378 C1155.250024 1113.328264 1173.869456 1116.225617 1191.626126 1113.405957 C1194.246919 1112.989790 1195.881878 1116.756792 1194.585257 1119.072072 C1193.288636 1121.387352 1190.484968 1122.342627 1187.895119 1122.920924 C1171.903581 1126.491730 1154.410008 1122.631610 1141.406138 1112.662696 C1139.016664 1110.830899 1136.766499 1107.033280 1139.189730 1105.246378 z"/><path class="selected"  fill="#000000" opacity="1.000000" stroke="none" 
 	d="
M1180.266518 1059.856209 C1184.169555 1061.529778 1188.447671 1063.148694 1190.774500 1066.701214 C1186.401960 1068.459795 1181.490238 1068.332419 1176.840715 1067.561946 C1163.932755 1065.422967 1151.901032 1058.369591 1143.729525 1048.151121 C1141.322733 1045.141429 1139.184253 1041.715371 1138.765726 1037.884479 C1138.347200 1034.053587 1140.072558 1029.775535 1143.601221 1028.226525 C1147.129884 1026.677514 1152.084207 1029.123657 1152.154524 1032.976701 C1152.308424 1041.409616 1159.375814 1048.012058 1166.481396 1052.556113 C1170.866746 1055.360567 1175.482366 1057.804830 1180.266518 1059.856209 z"/><path class="selected"  fill="#000000" opacity="1.000000" stroke="none" 
 	d="
M855.841401 1115.978424 C865.508185 1125.722173 878.061823 1132.565865 891.488939 1135.411897 C895.856386 1136.337628 900.614768 1136.997490 903.831215 1140.093623 C901.534049 1143.363648 896.749136 1143.318608 892.784200 1142.819317 C877.819869 1140.934905 861.784267 1136.653795 852.737784 1124.585516 C851.346706 1122.729777 850.104858 1120.461412 850.598579 1118.195335 C851.092301 1115.929258 854.207963 1114.331985 855.841398 1115.978422 z"/><path class="selected"  fill="#000000" opacity="1.000000" stroke="none" 
 	d="
M572.228932 1246.608392 C573.809650 1245.774066 574.402798 1249.220419 572.720490 1249.824246 C571.363217 1249.428025 571.033178 1247.257787 572.211303 1246.475993 z"/><path class="selected"  fill="#000000" opacity="1.000000" stroke="none" 
 	d="
M1760.094466 1047.469781 C1759.386194 1047.097206 1758.755191 1046.576612 1758.261784 1045.946525 C1755.529843 1042.457808 1759.163501 1036.340767 1763.534006 1037.071058 C1767.570471 1037.558859 1769.860918 1043.318356 1767.084394 1046.288524 C1765.350573 1048.143267 1762.341480 1048.651786 1760.094466 1047.469781 z"/><path class="selected"  fill="#000000" opacity="1.000000" stroke="none" 
 	d="
M208.648439 1043.437429 C210.906815 1044.770332 213.518425 1046.979340 212.650245 1049.453841 C211.871987 1051.672048 208.606444 1052.018723 206.687172 1050.661327 C204.767900 1049.303932 203.881826 1046.944219 203.100285 1044.727167 C202.822046 1043.937871 202.543604 1043.066062 202.844448 1042.285105 C203.684503 1040.104415 206.984062 1041.455690 208.661724 1043.082511 z"/><path class="selected"  fill="#000000" opacity="1.000000" stroke="none" 
 	d="
M874.071316 1098.007055 C886.629581 1110.145338 904.212743 1116.917198 921.668772 1116.338418 C923.350223 1116.282667 925.265934 1116.250275 926.421525 1117.472975 C928.054868 1119.201169 926.796434 1122.302512 924.656187 1123.338761 C922.515941 1124.375009 919.991322 1123.984133 917.649640 1123.570617 C902.107048 1120.825969 885.977179 1117.840707 873.171587 1108.614548 C870.778362 1106.890280 868.343455 1104.605432 868.222465 1101.658233 C868.101474 1098.711034 871.950413 1095.957081 874.071316 1098.007055 z"/><path class="selected"  fill="#000000" opacity="1.000000" stroke="none" 
 	d="
M315.745180 1099.144120 C310.350446 1090.555703 304.955713 1081.967285 299.560979 1073.378867 C305.349475 1069.004808 301.444852 1057.676098 294.190588 1057.797436 C290.311849 1057.862312 286.993737 1060.448433 283.363024 1061.814720 C272.461867 1065.916977 258.935620 1056.150609 259.399581 1044.512377 C259.863542 1032.874145 274.124306 1024.215512 284.664313 1029.172522 C290.235318 1031.792589 296.225824 1026.695308 300.151478 1021.952936 C320.758296 997.058944 337.441366 968.923576 349.398063 938.900433 C351.279347 934.176548 358.213742 935.053967 362.871329 937.093866 C387.649442 947.946029 407.608301 967.254094 426.468138 986.645608 C428.272559 988.500896 430.158206 990.523970 430.595731 993.074773 C431.033256 995.625577 429.241021 998.705282 426.656770 998.565026 C418.482995 998.121408 412.420284 1006.815296 411.756717 1014.974161 C411.093149 1023.133026 414.002418 1031.115179 415.054563 1039.233085 C416.535402 1050.658543 414.217321 1062.543917 408.551577 1072.575533 C401.966648 1084.234633 390.557727 1093.401477 377.405335 1095.913541 C364.252942 1098.425605 349.623173 1093.659162 341.515872 1083.002353 C338.415504 1078.927011 336.208188 1074.054090 332.206878 1070.858747 C328.205568 1067.663405 321.357556 1067.086268 318.618592 1071.412788 C316.045364 1075.477509 318.655445 1080.767780 321.494873 1084.651221 C328.978256 1094.886125 338.359370 1103.728749 349.018283 1110.594742 C340.386124 1108.496286 331.753965 1106.397829 323.121807 1104.299372 C321.440713 1103.890702 319.702727 1103.455107 318.342356 1102.386238 C317.247796 1101.526220 316.485603 1100.322876 315.745178 1099.144121 M372.916248 1044.896417 C367.991225 1045.866087 363.190479 1043.202734 358.531340 1041.334970 C353.872201 1039.467206 347.841239 1038.628527 344.431470 1042.312219 C342.318606 1044.594818 341.955114 1048.311385 343.585677 1050.960103 C344.442200 1052.351457 345.743616 1053.407357 347.076386 1054.352461 C356.670169 1061.155675 369.341174 1063.424169 380.699370 1060.371994 C385.495171 1059.083266 390.362437 1056.597012 392.590711 1052.159070 C394.818984 1047.721128 393.014106 1041.163320 388.202340 1039.935541 C382.908081 1038.584645 378.277220 1043.840913 372.916249 1044.896415 M364.414699 967.189457 C356.773840 965.561826 348.342732 968.443906 343.297110 974.408268 C338.251489 980.372630 336.806625 989.164805 339.678127 996.430229 C341.581495 1001.246104 349.260879 1002.243169 352.330961 998.073032 C354.319379 995.372136 354.229074 991.689671 355.515359 988.592235 C356.801645 985.494799 361.163425 983.072312 363.352547 985.613254 C366.025248 988.715494 371.508241 988.245848 374.149306 985.116631 C376.790370 981.987414 376.669600 977.103439 374.484862 973.640184 C372.300124 970.176928 368.419625 968.042574 364.414701 967.189458 M276.974366 1033.936457 C275.030583 1033.524766 272.890106 1033.674538 271.225806 1034.759843 C269.052352 1036.177172 268.081446 1038.923073 268.014735 1041.516964 C267.888024 1046.443773 271.300322 1051.698343 276.207991 1052.150316 C280.793553 1052.572627 285.093082 1048.315170 285.159864 1043.710688 C285.226646 1039.106206 281.479396 1034.890619 276.974366 1033.936459 z"/><path class="selected"  fill="#000000" opacity="1.000000" stroke="none" 
 	d="
M1375.468323 199.420984 C1372.659038 207.292978 1365.386925 212.635119 1358.122927 216.769694 C1342.924628 225.420371 1324.921353 231.999367 1316.374996 247.256571 C1315.691506 248.476755 1314.818874 249.911726 1313.420800 249.949065 C1311.810897 249.992061 1310.876438 248.176279 1310.400460 246.637748 C1302.581902 221.365431 1313.115206 191.559135 1335.076718 176.810855 C1339.790736 173.645150 1345.062530 171.095107 1350.704582 170.454090 C1358.241467 169.597792 1366.183603 172.455780 1371.195647 178.149400 C1376.207691 183.843019 1378.017836 192.276904 1375.468322 199.420983 z"/></svg>