<?xml version="1.0" encoding="utf-8"?><!DOCTYPE svg PUBLIC "-//W3C//DTD SVG 1.1//EN" "http://www.w3.org/Graphics/SVG/1.1/DTD/svg11.dtd"><svg version="1.1" id="Contours" xmlns="http://www.w3.org/2000/svg" xmlns:xlink="http://www.w3.org/1999/xlink" x="0px" y="0px" width="1843.820801px" height="1843.820801px" viewBox="0.000000 -0.000000 1843.820801 2039.343140" enable-background="new 0 0 1843.820801 1843.820801" xml:space="preserve" stroke="black" fill="none" stroke-linecap='round' stroke-linejoin='round'><path class="selected"  fill="#000000" opacity="1.000000" stroke="none" 
 	d="
M1496.925850 1232.489444 C1499.236148 1227.982597 1499.795957 1222.811835 1500.317524 1217.774265 C1501.474679 1206.597861 1502.457208 1194.550082 1496.787532 1184.849268 C1493.045802 1178.447172 1486.391196 1171.368596 1490.036283 1164.910987 C1491.538860 1162.249033 1488.964382 1159.189595 1486.625132 1157.221945 C1474.552125 1147.066788 1460.764555 1136.313883 1445.021749 1137.337980 C1436.001905 1137.924736 1427.444960 1133.586524 1419.681306 1128.957534 C1404.112846 1119.675011 1389.272263 1108.424900 1379.116647 1093.411385 C1368.961031 1078.397870 1363.993388 1059.114646 1369.173712 1041.744948 C1374.189489 1024.926976 1388.115483 1011.799468 1404.019753 1004.379469 C1419.924023 996.959470 1437.714999 994.614196 1455.244634 993.769177 C1461.314672 993.476569 1467.493251 993.363767 1473.360775 994.945896 C1485.054601 998.099040 1493.901022 1007.447477 1501.880079 1016.559147 C1508.464108 1024.077767 1515.134606 1032.171411 1517.119879 1041.966193 C1519.808431 1055.230752 1512.228193 1069.864401 1499.842368 1075.320424 C1487.456544 1080.776447 1471.542793 1076.492029 1463.570423 1065.555021 C1455.598053 1054.618013 1456.389453 1038.156622 1465.374247 1028.034848 C1468.148504 1024.909524 1464.987720 1019.469515 1460.862222 1018.802867 C1456.736725 1018.136218 1452.772241 1020.629947 1449.672402 1023.432650 C1436.339344 1035.487692 1431.250233 1055.846454 1437.342644 1072.757304 C1439.990672 1080.107503 1444.462802 1086.630214 1448.557840 1093.283644 C1450.233782 1096.006639 1451.870264 1098.787582 1454.049661 1101.127179 C1456.312830 1103.556706 1459.092010 1105.435601 1461.851311 1107.282435 C1488.265536 1124.961794 1515.278792 1141.746136 1542.829143 1157.596979 C1558.910092 1166.849005 1564.877388 1188.312392 1560.624518 1206.370908 C1556.371647 1224.429425 1543.949011 1239.471195 1530.327722 1252.067123 C1521.987562 1259.779466 1512.852576 1266.969952 1502.192858 1270.895369 C1482.947102 1277.982575 1461.451961 1273.560879 1441.954966 1267.197327 C1433.647962 1264.486035 1425.451922 1261.434787 1417.394242 1258.053780 C1409.635655 1254.798272 1401.680125 1250.981820 1396.626364 1244.254747 C1387.950149 1232.705817 1391.689398 1213.932807 1404.128572 1206.589685 C1410.377512 1202.900797 1417.881080 1202.013221 1425.137354 1201.952901 C1434.386542 1201.876013 1444.109799 1203.190652 1451.557056 1208.676248 C1459.004312 1214.161844 1463.251120 1224.812989 1459.054727 1233.055784 C1456.286701 1238.492900 1460.579346 1245.501532 1466.375085 1247.407735 C1472.170824 1249.313938 1478.553762 1247.388289 1483.942459 1244.527145 C1489.237499 1241.715728 1494.191023 1237.824445 1496.925849 1232.489444 z"/><path class="selected"  fill="#000000" opacity="1.000000" stroke="none" 
 	d="
M1312.416952 1144.764955 C1294.270891 1147.625899 1275.116863 1148.520940 1258.077785 1141.655491 C1242.584551 1135.412899 1229.616690 1122.424928 1224.822570 1106.424094 C1217.285663 1081.268950 1231.891851 1052.629487 1255.059866 1040.267069 C1278.227881 1027.904652 1307.490588 1030.388679 1330.694627 1042.683346 C1336.514407 1045.766956 1342.257959 1049.661746 1345.376667 1055.462793 C1348.495374 1061.263840 1348.143912 1069.368993 1343.041915 1073.534098 C1341.336218 1074.926571 1339.264719 1075.779343 1337.226572 1076.612605 C1323.655017 1082.161103 1310.083463 1087.709602 1296.511908 1093.258101 C1288.553981 1096.511561 1279.061898 1102.311692 1280.458661 1110.794773 C1281.300778 1115.909282 1286.252826 1119.547263 1291.342490 1120.528431 C1296.432153 1121.509599 1301.665765 1120.398557 1306.729487 1119.291270 C1313.970158 1117.707950 1322.854956 1114.275112 1323.108180 1106.867678 C1323.409410 1098.055912 1334.307848 1092.093779 1342.533742 1095.267516 C1350.759636 1098.441254 1355.067329 1108.400003 1353.436657 1117.064808 C1351.805984 1125.729614 1345.299453 1132.886877 1337.615093 1137.209904 C1329.930734 1141.532931 1321.126284 1143.391825 1312.416953 1144.764956 M1297.241061 1064.285768 C1298.777886 1063.999791 1300.440570 1063.858452 1301.656121 1062.875575 C1302.278193 1062.372575 1302.735384 1061.668927 1302.942242 1060.896146 C1288.392358 1055.642541 1271.002160 1059.356275 1259.867472 1070.094901 C1263.608962 1075.868164 1272.291785 1075.695144 1278.595406 1072.939483 C1284.899028 1070.183823 1290.477534 1065.544346 1297.241061 1064.285769 z"/><path class="selected"  fill="#000000" opacity="1.000000" stroke="none" 
 	d="
M450.898514 727.123800 C446.771250 703.698788 453.771940 679.381834 465.729928 658.820414 C477.687915 638.258993 494.336740 620.884210 511.064022 603.973754 C546.467373 568.182718 583.633334 533.007964 628.268796 509.725552 C672.904259 486.443139 726.471368 476.118953 774.166739 492.229408 C859.608877 521.089902 921.344915 603.426806 936.514538 692.326576 C946.753412 752.330282 937.616135 815.485765 910.790534 870.127016 C883.964933 924.768268 839.585259 970.621832 785.849274 999.217691 C778.137427 1003.321588 768.812163 1007.106906 760.986877 1003.223678 C755.346595 1000.424740 752.194268 994.396200 749.410194 988.748566 C688.735552 865.667010 628.060909 742.585455 567.386266 619.503900 C560.618177 618.800385 555.737153 626.783174 556.444195 633.550895 C557.151237 640.318616 561.369210 646.106227 564.525459 652.134498 C581.175596 683.935378 567.225398 725.116167 540.764274 749.371722 C523.031502 765.626445 496.048794 776.135237 474.961979 764.558820 C461.511711 757.174786 453.560945 742.234896 450.898514 727.123802 M845.400561 833.680092 C846.599410 833.457450 847.510265 832.506863 848.324581 831.599285 C891.153838 783.864852 907.592778 713.828960 890.474874 652.023631 C873.356971 590.218302 823.229359 538.619006 761.945082 519.720363 C756.032963 517.897203 749.992428 516.353085 743.821323 515.912052 C729.544532 514.891727 715.583113 519.788588 702.107794 524.613894 C700.981648 525.017149 699.813115 525.447118 698.982076 526.307464 C696.782710 528.584394 698.031155 532.331261 699.397640 535.186843 C746.310267 633.221215 793.222887 731.255589 840.135508 829.289962 C841.200689 831.515896 842.974375 834.130666 845.400561 833.680093 z"/><path class="selected"  fill="#000000" opacity="1.000000" stroke="none" 
 	d="
M1040.567862 1352.547298 C1044.165061 1345.609953 1035.078689 1339.130421 1032.109341 1331.902034 C1028.831363 1323.922338 1034.072680 1314.295842 1041.825233 1310.511849 C1049.577787 1306.727856 1058.873587 1307.678343 1067.043736 1310.447703 C1083.704483 1316.095046 1098.058491 1329.901384 1101.675036 1347.117468 C1105.291582 1364.333551 1096.343473 1384.121385 1079.956084 1390.518758 C1062.165268 1397.464010 1042.539499 1388.237305 1025.696536 1379.233739 C1011.867530 1371.841313 998.031182 1364.444726 984.604109 1356.345154 C944.480447 1332.141482 908.144843 1301.672061 877.318929 1266.380575 C874.278459 1264.862156 873.748019 1270.765783 875.603979 1273.612792 C893.740136 1301.433328 911.876296 1329.253862 930.012457 1357.074397 C932.112351 1360.295597 934.415472 1363.691714 937.957220 1365.188946 C943.473283 1367.520795 950.200732 1364.496648 955.660767 1366.956826 C962.807390 1370.176948 962.993263 1381.081200 958.049297 1387.164011 C953.105330 1393.246822 945.179488 1395.836611 937.836199 1398.578781 C908.573527 1409.506196 882.376448 1427.138886 854.688509 1441.598840 C847.861324 1445.164321 840.289302 1448.637204 832.733415 1447.143326 C825.177527 1445.649448 818.847623 1436.705567 822.827326 1430.111247 C832.192375 1414.593472 823.512523 1394.850594 814.843552 1378.933482 C777.904788 1311.110166 740.966025 1243.286850 704.027261 1175.463533 C701.776220 1171.330392 695.595484 1167.044321 693.465816 1171.241290 C686.359810 1185.245215 673.005237 1195.928345 657.782831 1199.786266 C646.523703 1202.639746 632.679124 1200.885550 626.315361 1191.168923 C621.691151 1184.108365 622.351048 1174.581841 625.926477 1166.936508 C629.501906 1159.291175 635.580215 1153.142687 641.660833 1147.289406 C698.173958 1092.889144 769.903584 1048.203154 848.334206 1046.876738 C865.473090 1046.586885 883.066542 1048.503735 898.408347 1056.149279 C917.770785 1065.798492 932.074770 1084.159063 939.031349 1104.643626 C945.987929 1125.128189 946.002307 1147.554957 941.519327 1168.718941 C935.755096 1195.931662 922.596166 1221.540620 903.827874 1242.071323 C900.384969 1245.837529 903.774940 1251.751377 907.187735 1255.544889 C944.225637 1296.714590 989.989042 1329.996613 1040.567862 1352.547298 M807.878618 1097.349365 C800.125474 1094.085853 792.205799 1090.780510 783.819724 1090.120577 C775.433650 1089.460644 766.348034 1091.888732 760.995585 1098.378188 C781.365190 1143.618418 808.008686 1186.028580 839.924808 1224.014898 C840.768022 1225.018484 841.765772 1226.098012 843.074487 1226.171909 C844.419128 1226.247832 845.552098 1225.232300 846.485651 1224.261578 C861.451826 1208.699491 869.138836 1186.409832 866.947084 1164.930513 C864.755333 1143.451194 852.724750 1123.173519 834.923837 1110.954991 C826.588416 1105.233567 817.196852 1101.271666 807.878618 1097.349364 z"/><path class="selected"  fill="#000000" opacity="1.000000" stroke="none" 
 	d="
M1170.647625 1064.632430 C1176.352940 1065.328563 1182.345849 1066.135867 1186.952187 1069.573435 C1191.558525 1073.011003 1194.036426 1080.017935 1190.653048 1084.664221 C1186.431984 1090.460871 1188.559686 1098.521855 1190.851866 1105.316297 C1211.382163 1166.171865 1231.912459 1227.027432 1252.442755 1287.883000 C1253.833258 1292.004706 1259.589190 1292.083299 1263.847649 1291.195895 C1283.961621 1287.004404 1303.282670 1279.039502 1320.507092 1267.838624 C1309.754247 1259.830404 1305.183683 1244.458801 1309.814189 1231.876524 C1314.444695 1219.294248 1327.889378 1210.552582 1341.268231 1211.425265 C1354.647083 1212.297947 1366.842264 1222.712063 1369.799042 1235.789246 C1374.371420 1256.011878 1358.442192 1275.089244 1341.546988 1287.106464 C1309.833681 1309.663505 1270.211913 1320.859997 1231.383134 1318.237049 C1225.859947 1317.863948 1220.038565 1317.098041 1215.676809 1313.689247 C1211.206058 1310.195271 1209.074652 1304.569114 1207.147135 1299.232434 C1182.541477 1231.107181 1157.935818 1162.981929 1133.330159 1094.856677 C1130.674207 1087.503188 1120.453570 1084.884667 1118.232704 1077.388292 C1116.420931 1071.272782 1121.251351 1064.783784 1127.189518 1062.455662 C1133.127686 1060.127541 1139.767635 1060.864615 1146.098923 1061.637126 C1154.281824 1062.635561 1162.464724 1063.633995 1170.647625 1064.632430 z"/><path class="selected"  fill="#000000" opacity="1.000000" stroke="none" 
 	d="
M981.262922 1144.914823 C989.339537 1142.816196 997.416153 1140.717570 1005.492768 1138.618943 C1014.370969 1136.312033 1023.249169 1134.005123 1032.127370 1131.698213 C1040.357209 1129.559773 1049.501069 1127.511308 1057.020274 1131.481790 C1064.539479 1135.452273 1066.980838 1148.327983 1059.271803 1151.916012 C1051.238408 1155.655008 1052.906303 1167.529743 1056.519287 1175.620593 C1068.147993 1201.661703 1086.767037 1224.541881 1109.901611 1241.219940 C1112.874484 1243.363128 1116.170187 1245.486493 1119.835021 1245.471597 C1125.239739 1245.449628 1129.647325 1240.572870 1130.955149 1235.328725 C1132.262973 1230.084580 1131.187842 1224.572032 1130.043315 1219.289842 C1118.681227 1166.851845 1100.645980 1115.863515 1076.510198 1067.943742 C1073.442585 1061.853228 1064.846128 1061.564799 1058.219009 1063.172873 C1051.591890 1064.780947 1044.309855 1067.343821 1038.290860 1064.138153 C1032.889248 1061.261304 1030.626106 1053.695561 1033.560697 1048.325098 C1036.242354 1043.417524 1041.970397 1041.129806 1047.337829 1039.559392 C1058.626551 1036.256516 1070.357735 1034.469442 1082.117873 1034.261161 C1085.562964 1034.200146 1089.350498 1034.402110 1091.884589 1036.736796 C1093.336913 1038.074839 1094.166192 1039.939776 1094.956827 1041.749334 C1104.754931 1064.174641 1114.553035 1086.599948 1124.351140 1109.025254 C1138.473053 1141.346633 1152.685370 1173.945420 1159.984531 1208.453712 C1163.389405 1224.550952 1165.218733 1241.532843 1160.454557 1257.281396 C1155.690381 1273.029949 1143.035782 1287.275400 1126.767324 1289.735393 C1115.853456 1291.385706 1104.861573 1287.712581 1094.731276 1283.329303 C1052.657436 1265.124372 1016.591297 1233.329250 993.254874 1193.869918 C987.602248 1184.311947 979.629689 1172.729387 968.703711 1174.711805 C960.454441 1176.208566 955.480819 1163.991614 959.862023 1156.843485 C964.243226 1149.695355 973.148425 1147.023292 981.262922 1144.914823 z"/><path class="selected"  fill="#000000" opacity="1.000000" stroke="none" 
 	d="
M1137.209335 525.744801 C1136.762891 523.726535 1136.232499 521.562631 1134.667725 520.212004 C1132.024241 517.930296 1127.975600 519.083014 1124.746783 520.413028 C1105.403888 528.380753 1087.015797 538.663469 1070.100144 550.971714 C1065.302266 554.462768 1060.058352 559.873128 1062.135585 565.431203 C1070.441052 587.654238 1061.470882 615.055937 1041.631705 628.065593 C1028.649961 636.578446 1009.373156 638.090016 998.864582 626.663547 C993.127757 620.425626 991.066149 611.546495 991.147541 603.072052 C991.201695 597.433689 992.125161 591.747431 994.417311 586.595721 C997.991927 578.561609 1004.604715 572.347954 1011.049135 566.365121 C1041.168236 538.403325 1072.231803 509.833568 1110.428838 494.667526 C1124.306014 489.157626 1141.735540 486.121131 1152.861815 496.078088 C1160.121258 502.574599 1162.491134 512.796504 1164.389962 522.351534 C1181.004503 605.956998 1190.638599 690.948540 1193.159109 776.151613 C1193.249014 779.190739 1193.890414 782.992903 1196.821075 783.802591 C1205.899724 781.133485 1214.649241 777.346883 1222.809378 772.555415 C1226.575665 770.343927 1230.741411 766.234618 1228.781673 762.331410 C1224.077558 752.962228 1225.597795 741.053270 1231.766686 732.576535 C1237.935577 724.099799 1248.262676 719.070078 1258.727630 718.441588 C1273.523430 717.553002 1289.801827 727.492946 1291.033747 742.264123 C1292.126964 755.372217 1281.825215 766.472118 1271.614577 774.764291 C1256.927872 786.691526 1240.776736 796.813739 1223.639623 804.831072 C1213.855828 809.408268 1203.363894 813.369304 1192.576773 812.811281 C1181.789651 812.253258 1170.658470 806.141900 1167.153463 795.924841 C1166.128322 792.936568 1161.611023 794.666886 1159.274128 796.792824 C1141.403801 813.050001 1120.742676 826.822097 1097.531986 833.523450 C1074.321296 840.224802 1048.331598 839.311034 1027.123463 827.741278 C1005.915328 816.171522 990.531565 793.084360 991.316270 768.938377 C991.897531 751.052491 1000.738964 734.549498 1010.268715 719.402663 C1019.537003 704.671404 1029.780591 690.360538 1042.693473 678.691406 C1066.058993 657.576421 1097.916970 646.141180 1129.376927 647.576870 C1135.184540 647.841904 1140.565352 643.906766 1143.533904 638.908136 C1146.502456 633.909505 1147.468390 627.994081 1148.048645 622.209454 C1151.292709 589.868965 1144.229305 557.480447 1137.209335 525.744801 M1145.332076 683.120148 C1141.002590 681.808987 1135.671050 684.425965 1132.095901 681.654341 C1120.808758 672.904014 1104.568341 675.380370 1091.089411 680.101206 C1087.005825 681.531435 1082.850717 683.211009 1079.815832 686.294951 C1077.313130 688.838105 1075.759043 692.154795 1074.487629 695.488660 C1062.467242 727.008165 1072.405048 762.487892 1085.717410 793.483858 C1087.659145 798.004915 1091.150018 803.330099 1095.980843 802.395535 C1112.110880 799.275026 1125.454123 788.247166 1137.434823 777.005352 C1143.102503 771.687216 1148.905648 765.772106 1150.537543 758.173285 C1154.878646 737.959203 1155.733001 717.001092 1153.051617 696.500739 C1152.343646 691.087975 1150.556616 684.702370 1145.332077 683.120147 z"/><path class="selected"  fill="#000000" opacity="1.000000" stroke="none" 
 	d="
M876.655862 1749.623159 C885.952331 1747.700659 898.258327 1747.199411 902.121510 1755.870982 C904.665757 1761.581972 901.511021 1768.538384 896.536537 1772.325614 C891.562054 1776.112845 885.213338 1777.481767 879.091296 1778.750312 C802.426797 1794.635921 725.762300 1810.521528 649.097802 1826.407136 C639.289343 1828.439541 626.051797 1828.717476 622.598866 1819.314614 C620.513774 1813.636599 623.779923 1807.110226 628.654533 1803.528934 C633.529143 1799.947642 639.656593 1798.634364 645.580018 1797.409406 C722.605302 1781.480656 799.630582 1765.551907 876.655862 1749.623159 z"/><path class="selected"  fill="#000000" opacity="1.000000" stroke="none" 
 	d="
M1001.429409 1671.569709 C1006.551840 1670.386868 1011.816105 1669.196697 1017.020993 1669.936674 C1022.225880 1670.676651 1027.436238 1673.788132 1029.115388 1678.769986 C1031.019045 1684.417920 1027.795852 1690.773212 1023.028616 1694.350437 C1018.261381 1697.927661 1012.264963 1699.350563 1006.456883 1700.688203 C893.016108 1726.814374 779.575334 1752.940545 666.134561 1779.066716 C662.327413 1779.943527 658.390061 1780.824444 654.548364 1780.114138 C648.909463 1779.071543 644.144280 1774.324961 643.079635 1768.690181 C642.014991 1763.055401 644.719848 1756.897418 649.589619 1753.869295 C652.260177 1752.208684 655.387398 1751.475657 658.451523 1750.768108 C772.777485 1724.368643 887.103447 1697.969176 1001.429409 1671.569709 z"/><path class="selected"  fill="#000000" opacity="1.000000" stroke="none" 
 	d="
M693.081768 115.858912 C707.659317 93.888855 728.220464 76.509425 750.014797 61.670445 C825.322097 10.396418 921.262009 -13.110694 1010.035127 7.372170 C1098.808245 27.855033 1177.567766 95.309433 1202.563508 182.918948 C1267.764238 167.577029 1332.964967 152.235111 1398.165696 136.893193 C1406.392292 134.957451 1415.349793 133.083481 1423.026894 136.617047 C1432.289807 140.880525 1436.537461 151.456487 1439.939251 161.069322 C1565.971793 517.214502 1692.004341 873.359679 1818.036888 1229.504855 C1840.615291 1293.307337 1861.466153 1370.028600 1820.311849 1423.758148 C1785.321188 1429.097129 1748.054339 1435.497461 1722.150250 1459.618597 C1696.246161 1483.739732 1690.190033 1532.099344 1719.468120 1551.990162 C1743.781729 1568.508234 1769.315361 1586.465414 1780.902387 1613.479097 C1792.489414 1640.492781 1782.681359 1678.782654 1754.348043 1686.607068 C1403.335105 1783.541379 1052.322168 1880.475691 701.309231 1977.410002 C683.576666 1982.306955 664.034236 1988.568784 655.051621 2004.622961 C639.336174 2032.710510 602.111098 2046.560305 571.858532 2035.575431 C536.018354 2022.561653 517.907227 1983.574111 503.485288 1948.277028 C345.151557 1560.761806 186.817819 1173.246587 28.484082 785.731369 C11.915566 745.180619 -4.983337 702.177293 1.369009 658.835319 C5.665428 629.520991 20.292048 602.871251 34.990146 577.146655 C55.699275 540.901570 77.061892 505.029869 99.064120 469.554864 C113.793485 445.806167 129.439278 421.569164 152.496331 405.779070 C175.553383 389.988976 208.081633 384.664160 231.196882 400.368938 C247.085005 411.163541 268.349694 407.036390 287.012624 402.492103 C415.431969 371.222788 543.851318 339.953498 672.270666 308.684208 C663.691664 243.100224 656.512597 170.972918 693.081781 115.858919 M778.837458 1635.510488 C1125.197503 1529.434014 1471.557547 1423.357540 1817.917592 1317.281065 C1681.998957 933.201415 1546.080323 549.121764 1410.161689 165.042113 C1346.116842 179.926114 1282.071996 194.810115 1218.027150 209.694115 C1223.925977 262.843060 1229.824804 315.992004 1235.723630 369.140948 C1237.417957 384.406977 1237.456894 403.224336 1224.225400 411.024973 C1209.866882 419.490047 1192.285769 407.954463 1179.935570 396.760845 C1152.234032 371.653522 1125.803358 345.144120 1100.778535 317.368031 C1078.704269 366.302343 1056.630002 415.236655 1034.555736 464.170967 C1031.556245 470.820251 1026.821176 478.583027 1019.541803 478.113292 C1012.064898 477.630781 1008.450137 468.945049 1006.369495 461.747290 C987.518648 396.534352 957.102437 334.682401 916.963349 279.938132 C695.193223 333.756083 473.423100 387.574031 251.652977 441.391980 C423.979002 840.921919 599.715700 1238.980759 778.837458 1635.510488 M193.070056 989.034614 C183.969543 1003.997729 174.975967 1019.884066 160.414549 1029.614392 C215.949803 1166.058029 271.485064 1302.501673 327.020326 1438.945316 C393.965514 1348.780149 460.910701 1258.614982 527.855889 1168.449814 C529.883143 1165.719405 531.985010 1162.801166 532.295604 1159.414660 C532.582693 1156.284353 531.289569 1153.249516 530.024033 1150.372078 C471.851830 1018.106881 413.679634 885.841682 355.507438 753.576484 C310.086964 837.500013 242.656962 907.503535 193.070056 989.034614 M781.704533 1664.886378 C770.069141 1668.434428 751.155342 1665.867255 753.874117 1654.010642 C758.769148 1632.663390 734.819080 1613.534134 712.960753 1614.905243 C691.102426 1616.276352 672.650484 1631.084398 656.590362 1645.975296 C611.684098 1687.612281 571.979594 1736.361228 549.365797 1793.271917 C526.751999 1850.182606 522.591156 1916.051754 546.897781 1972.260280 C554.488707 1989.814129 565.912261 2007.260428 583.687130 2014.318315 C601.461998 2021.376202 626.018808 2012.844793 629.679211 1994.073507 C631.423861 1985.126591 628.324336 1975.809878 629.770927 1966.809966 C631.217518 1957.810054 641.471310 1949.003187 648.857757 1954.344669 C656.341904 1959.756803 666.679385 1957.510916 675.578351 1955.038662 C1025.158150 1857.920642 1374.737949 1760.802621 1724.317748 1663.684600 C1737.308215 1660.075672 1753.747907 1649.169521 1747.230022 1637.367243 C1386.826531 1724.456701 1026.423047 1811.546164 666.019563 1898.635626 C658.570793 1900.435580 650.820536 1902.385233 644.994458 1907.363268 C631.943988 1918.514114 633.401082 1940.139654 621.521686 1952.530622 C606.968249 1967.710787 579.143302 1959.932259 567.521835 1942.405667 C555.900368 1924.879074 556.289534 1902.167501 558.767189 1881.284466 C567.762523 1805.466859 601.189504 1730.044298 661.623110 1683.385914 C672.375947 1675.084076 684.845618 1667.464923 698.422979 1667.911325 C712.000340 1668.357727 725.830266 1680.282100 723.488987 1693.663521 C1067.917855 1597.266106 1412.346723 1500.868689 1756.775592 1404.471272 C1770.422041 1400.651957 1784.446543 1396.646831 1795.648724 1387.967897 C1806.850905 1379.288962 1814.683769 1364.691200 1811.217023 1350.950951 C1468.046193 1455.596093 1124.875363 1560.241236 781.704533 1664.886378 M1089.114521 290.003673 C1092.125385 286.231631 1095.485010 282.329619 1100.107822 280.942821 C1109.866316 278.015373 1118.612968 287.304349 1124.797914 295.400311 C1148.446501 326.355816 1175.364063 354.812373 1204.958281 380.143801 C1207.728627 323.218844 1200.474589 265.820011 1183.629241 211.374077 C1178.572911 195.031489 1172.631391 178.888700 1164.462127 163.858405 C1148.839161 135.114351 1125.542134 111.281637 1100.867404 89.800125 C1077.692341 69.624202 1053.028753 51.158439 1027.143363 34.602534 C1013.733257 26.025632 999.280714 17.734097 983.383219 16.919325 C974.132271 16.445198 964.963527 18.552135 955.954314 20.705953 C907.503103 32.289115 859.472796 45.632783 811.990012 60.701783 C796.971074 65.468150 781.602550 70.627014 769.541573 80.767014 C788.307832 95.599752 807.074092 110.432489 825.840351 125.265227 C840.956173 137.212677 856.123594 149.206566 869.504272 163.069722 C885.555599 179.699822 898.810255 198.784248 911.828036 217.882486 C954.617018 280.657717 995.975883 345.180837 1023.371312 416.040677 C1036.911137 370.324219 1059.370259 327.267599 1089.114522 290.003673 M1235.152993 1598.895339 C1299.782428 1574.673348 1364.411862 1550.451356 1429.041297 1526.229365 C1200.418735 1590.474734 971.796174 1654.720103 743.173613 1718.965472 C732.761814 1721.891298 721.764971 1724.831994 711.280837 1722.177011 C700.796703 1719.522028 691.454198 1709.081852 694.057911 1698.584867 C637.964204 1727.987598 610.186162 1792.003195 592.004624 1852.669962 C583.878028 1879.786166 577.852787 1912.316892 596.294113 1933.793568 C608.583760 1925.709368 615.620012 1910.302544 613.681935 1895.720584 C611.430346 1878.779814 633.421696 1864.309630 648.088653 1873.081155 C638.707754 1872.550679 635.377262 1858.798235 640.815507 1851.136106 C646.253751 1843.473977 656.156193 1840.698594 665.275955 1838.437475 C717.176721 1825.569399 769.077488 1812.701323 820.978255 1799.833246 C831.576636 1797.205524 843.907809 1794.909981 852.498091 1801.650727 C861.088373 1808.391474 856.526089 1826.892116 845.943210 1824.202637 C1008.309522 1785.350211 1170.675833 1746.497785 1333.042144 1707.645359 C1341.503066 1705.620756 1351.018106 1702.786184 1354.826334 1694.964189 C1358.850610 1686.698402 1368.083476 1682.580487 1376.597497 1679.112140 C1417.111698 1662.607939 1457.625896 1646.103734 1498.140095 1629.599528 C1331.506205 1680.198948 1164.872315 1730.798368 998.238425 1781.397788 C991.243820 1783.521743 983.825719 1785.661585 976.735112 1783.884229 C969.644506 1782.106874 963.397630 1774.805555 965.530195 1767.813570 C967.460441 1761.484919 974.682144 1758.698609 981.009954 1756.765607 C1152.894432 1704.258799 1324.778908 1651.751990 1496.663384 1599.245181 C1504.832060 1596.749836 1513.816675 1594.282828 1521.686606 1597.602196 C1529.556537 1600.921564 1533.774786 1612.913768 1527.004315 1618.120948 C1550.716986 1609.362610 1574.429657 1600.604272 1598.142329 1591.845934 C1608.158803 1588.146323 1618.594619 1584.168578 1625.716182 1576.212434 C1632.837744 1568.256289 1635.293935 1555.025615 1628.168832 1547.072642 C1437.125768 1607.843717 1246.082705 1668.614792 1055.039643 1729.385867 C1045.395206 1732.453777 1032.003070 1734.012866 1027.809757 1724.801821 C1022.929575 1714.081998 1036.915565 1704.902960 1048.137294 1701.324754 C1235.642914 1641.535951 1423.148534 1581.747148 1610.654153 1521.958346 C1643.875387 1511.365288 1659.275952 1472.550191 1688.940044 1454.222482 C1618.440842 1473.681586 1547.941641 1493.140691 1477.442440 1512.599796 C1487.358654 1511.035856 1495.919985 1524.207020 1490.465053 1532.634412 C1487.342922 1537.457841 1481.529473 1539.660096 1476.108180 1541.563452 C1397.377414 1569.204953 1318.646652 1596.846457 1239.915891 1624.487961 C1232.604291 1627.054984 1223.001929 1629.004283 1218.339585 1622.814642 C1211.480828 1613.709085 1224.478335 1602.896016 1235.152993 1598.895339 M499.589464 1862.085026 C516.294191 1783.431024 554.360413 1709.421752 608.628684 1650.088333 C638.526614 1617.399865 676.816355 1587.696421 721.092362 1586.262103 C692.644982 1521.347577 664.197598 1456.433045 635.750215 1391.518513 C634.920286 1389.624685 633.848342 1387.513713 631.851160 1386.978334 C629.442949 1386.332784 627.200153 1388.321980 625.496177 1390.142054 C561.244466 1458.771672 496.992752 1527.401285 432.741038 1596.030899 C423.417606 1605.989598 413.980733 1616.045195 402.602238 1623.570612 C434.931312 1703.075416 467.260388 1782.580221 499.589464 1862.085026 M346.658308 1486.843892 C361.657772 1523.472142 376.657236 1560.100391 391.656700 1596.728641 C465.951359 1517.677407 540.246018 1438.626172 614.540677 1359.574937 C615.951608 1358.073673 617.418497 1356.469996 617.868613 1354.459544 C618.403168 1352.071928 617.396934 1349.638319 616.412493 1347.398378 C593.501273 1295.267628 570.590057 1243.136878 547.678841 1191.006127 C515.930769 1227.266788 487.856104 1266.556166 459.839664 1305.771657 C423.517357 1356.613129 387.195050 1407.454600 350.872744 1458.296072 C347.352955 1463.222830 343.693177 1468.547979 343.528673 1474.600647 C343.413348 1478.843921 345.049677 1482.915664 346.658308 1486.843892 M53.437920 638.801964 C47.454786 651.510079 41.322774 664.577347 31.141501 674.253905 C23.257710 681.746875 25.970086 694.725251 29.619698 704.971181 C39.995037 734.098878 53.248648 762.200505 69.124806 788.733841 C138.577954 728.890543 208.031103 669.047245 277.484251 609.203947 C280.455804 606.643551 283.707355 602.641748 281.678666 599.284640 C265.479172 572.477445 257.898789 541.486298 245.904589 512.552088 C233.956023 483.727961 217.499966 456.777544 197.317964 432.980793 C194.232199 429.342343 188.504365 428.988573 184.130546 430.893822 C179.756727 432.799070 176.434719 436.464508 173.309700 440.069300 C122.469867 498.714401 86.498611 568.581402 53.437920 638.801964 M306.207960 641.257424 C303.778137 635.740921 297.616540 629.213204 293.077065 633.179185 C221.868041 695.392042 149.613176 756.407824 76.353295 816.192056 C74.438053 817.755002 75.204154 820.794828 76.137316 823.083967 C100.516777 882.889033 124.896234 942.694100 149.275691 1002.499167 C205.353538 906.444043 285.741509 826.072324 339.530487 728.717007 C340.915444 726.210304 342.312177 723.225966 341.157777 720.605083 C329.507835 694.155864 317.857897 667.706644 306.207960 641.257424 M741.674211 103.455216 C736.142439 103.810731 731.209254 107.041974 727.044968 110.700608 C706.653180 128.616305 699.499569 157.160315 696.529414 184.141334 C692.235988 223.142989 694.461426 262.854382 703.085610 301.132131 C766.268345 285.852820 829.451080 270.573510 892.633815 255.294199 C895.189055 254.676272 898.354168 253.278520 898.159693 250.656828 C898.089074 249.704915 897.545290 248.862512 897.018107 248.066775 C881.808412 225.109155 866.462610 201.983078 847.026415 182.473557 C835.585360 170.989339 822.851051 160.887100 810.149795 150.814211 C794.167356 138.139137 778.184917 125.464064 762.202478 112.788991 C756.169427 108.004405 749.358356 102.961374 741.674211 103.455217 M1655.823252 1585.754180 C1655.956341 1597.189416 1643.501182 1604.038501 1632.887237 1608.296024 C1578.100780 1630.272230 1523.314328 1652.248442 1468.527876 1674.224654 C1558.557917 1652.571625 1648.587958 1630.918595 1738.618000 1609.265565 C1714.011723 1580.534841 1688.771454 1552.347100 1662.921758 1524.729777 C1657.976097 1544.659459 1655.584281 1565.221409 1655.823252 1585.754180 M787.969300 1839.478139 C784.123606 1838.393373 779.979771 1838.387206 776.130864 1839.460518 C778.999106 1842.933304 785.090734 1842.942370 787.969300 1839.478140 M716.066418 1857.702920 C717.529758 1858.321270 719.416264 1857.066390 719.441666 1855.477970 C716.140867 1853.750756 711.762482 1854.390272 709.093602 1856.989426 C711.274776 1857.899630 713.718839 1858.169152 716.045937 1857.756104 M760.266889 1845.116152 C763.098660 1845.946462 766.114019 1846.144186 769.029968 1845.690765 C770.688396 1845.097161 768.693830 1842.690988 766.934938 1842.595900 C764.683174 1842.474173 762.401877 1842.948173 760.384983 1843.956830 M793.423613 1836.189248 C796.763816 1837.387263 800.563583 1837.246228 803.805784 1835.803896 C801.068021 1833.036497 795.948691 1833.226510 793.423613 1836.189247 M749.066752 1849.703711 C750.533584 1850.318953 752.425960 1849.061125 752.437631 1847.470533 C749.477396 1845.755584 745.338754 1846.458013 743.110128 1849.053635 C744.956063 1849.882079 747.056930 1850.131471 749.045517 1849.758219 M1464.055178 1517.806210 C1465.723392 1517.806917 1467.391606 1517.807623 1469.059820 1517.808330 C1469.532649 1517.037485 1469.715623 1516.093419 1469.565015 1515.201743 C1467.093785 1514.732011 1464.557727 1514.604606 1462.051858 1514.824300 C1461.575822 1515.549147 1461.397536 1516.463414 1461.566354 1517.314010 C1462.287400 1517.792019 1463.205703 1517.961846 1464.050014 1517.773330 M700.122035 1861.752242 C701.123628 1862.052545 702.282202 1861.744941 703.002925 1860.987360 C700.815851 1858.061069 695.776912 1857.993594 693.512267 1860.860269 C695.454987 1861.986324 697.859543 1862.285503 700.018970 1861.669844 M834.995462 1826.984219 C832.415195 1826.160971 829.468095 1826.581764 827.221325 1828.094225 C830.558665 1829.090182 834.153307 1829.210021 837.549570 1828.438553 C838.175666 1827.377218 836.301094 1826.679565 835.081045 1826.852502 M816.153213 1832.596691 C817.883681 1833.092107 820.499407 1833.023525 820.626925 1831.228060 C817.185773 1830.490578 813.582668 1830.518992 810.153575 1831.310651 C811.503656 1832.950086 814.020108 1833.494149 815.926854 1832.558849 M734.568594 1850.992524 C732.398271 1850.908218 730.227947 1850.823913 728.057623 1850.739607 C727.571500 1851.442913 727.412443 1852.362837 727.634199 1853.188536 C729.948954 1854.733674 733.498837 1853.897469 734.880543 1851.481600 M666.005693 1867.955606 C663.463533 1867.257569 660.651937 1867.599936 658.351581 1868.887645 C660.851053 1870.472709 664.313143 1870.366201 666.710457 1868.630487 M1438.055292 1523.806208 C1436.053970 1523.805762 1434.052648 1523.805316 1432.051326 1523.804869 C1431.583322 1524.560429 1431.399851 1525.487703 1431.544866 1526.364555 C1434.021505 1526.583724 1436.563714 1525.985059 1438.682301 1524.683761 M677.116234 1866.121482 C679.286326 1865.782347 681.456419 1865.443211 683.626511 1865.104076 C681.783488 1863.107080 678.197457 1863.134453 676.385134 1865.159350 M1503.668710 1627.150031 C1504.678847 1628.430626 1507.103372 1627.983176 1507.589864 1626.426376 C1506.421293 1625.229397 1504.081949 1625.632325 1503.381167 1627.151280 z"/></svg>